<svg id="Layer_1" data-name="Layer 1" xmlns="http://www.w3.org/2000/svg" width="764" height="353" viewBox="0 0 764 353">
  <g>
    <g>
      <path d="M641.6,86.7v-48a56.6,56.6,0,0,0-.9-10.1,7.9,7.9,0,0,0-6-6.8,23.3,23.3,0,0,0-5.3-.7c-1.6,0-3.1-.1-4.6,0a2.7,2.7,0,0,1-2.4-1.2c-.1-.2-.1-.5-.3-.6-1.8-1.1-1.4-2.8-1.4-4.5a1.1,1.1,0,0,1,.4-.9c1.3-1.3,2.5-2.5,4.8-2.4h60.8c10.4,0,20.8.5,31,2.7a68.1,68.1,0,0,1,15.9,4.9,47,47,0,0,1,8.5,4.7A65.3,65.3,0,0,1,754.5,35a66.4,66.4,0,0,1,5.5,7.3,78.2,78.2,0,0,1,7.8,15.9,76,76,0,0,1,3.9,18.7,88,88,0,0,1-.1,18.5,75.6,75.6,0,0,1-3.1,15.6,32.4,32.4,0,0,1-1.9,5.5,76.5,76.5,0,0,1-6.6,12.7,77.4,77.4,0,0,1-7.5,9.6,71.9,71.9,0,0,1-11.6,9.7c-2.9,2-6.2,3.3-9.3,5s-9.5,3.4-14.3,4.9c-9.6,2.9-19.4,3.2-29.3,3.2H625.9c-2.2,0-3.4-1-4.7-2.2s-.7-3.6-.2-4.6,2.5-3.1,4.9-2.9a27.7,27.7,0,0,0,7.6-.3,9.5,9.5,0,0,0,7.4-7.9c.3-3.1.7-6.3.7-9.5Zm26.1.3v58.2a1.1,1.1,0,0,0,1,1.2l1.3.3c8.2,1.3,16.4,2.5,24.7,1.4,5.1-.7,10.3-1.4,15-4,3.1-1.6,6.3-3,9.2-5.2a95.1,95.1,0,0,0,8.8-7.9c.1-.1.3-.2.3-.3a77,77,0,0,0,7.8-12,69.1,69.1,0,0,0,4.3-12.3,89,89,0,0,0,2-23.6,95,95,0,0,0-3-19.1,53.5,53.5,0,0,0-11.3-20.8,56.4,56.4,0,0,0-10.7-9.4,45.3,45.3,0,0,0-9.8-5,59.1,59.1,0,0,0-18.6-3.2A92,92,0,0,0,670.5,27c-2.8.6-2.8.5-2.8,3.3Z" transform="translate(-8.1 -8)" fill="#fff"/>
      <path d="M281.3,11.5h54.8c2.4,0,2.4,0,2.5,2.4l1.2,23.7c.2,2.3.2,4.6.3,6.8a3.9,3.9,0,0,1-1,2.5,5.3,5.3,0,0,1-4.8,2.1c-3.3-.2-3.3-.1-4-3.3a76.2,76.2,0,0,0-3.2-11.3,13.1,13.1,0,0,0-10.5-8.6,69.9,69.9,0,0,0-10.2-.7H270.8c-2.9,0-2.5,0-2.5,2.4V74.7c0,1.6,0,1.7,1.7,1.7h29.5c2.3-.1,4.7-.4,7.1-.7,4.9-.7,7.4-3.8,8.9-8.1a37.4,37.4,0,0,0,1.7-9.9c.2-2.4-.1-2.1,2.4-2.2s2,.1,3.1,0a3.4,3.4,0,0,1,2.1.8c1.6,1.1,2,2.4,2,4.3-.1,15.2-.1,30.5,0,45.8,0,1.5-.2,2.7-1.5,3.6a2.4,2.4,0,0,0-.8.9,1.1,1.1,0,0,1-1.2.8h-5c-.7,0-.8-.4-.9-1l-1.5-9a28.3,28.3,0,0,0-1.3-5,4,4,0,0,0-1.1-1.9c-2.1-1.8-4.1-3.6-7-4.1a35.6,35.6,0,0,0-8-.8h-29c-.8-.1-1.2.3-1.2,1.1v44.7a79.4,79.4,0,0,0,.4,8.5,3.7,3.7,0,0,0,3.1,3.4,26.1,26.1,0,0,0,4.8.5h30.7a68.4,68.4,0,0,0,9.1-.8c3.8-.5,6.8-2.4,9.7-4.6a35.1,35.1,0,0,0,7.1-7.8c1.3-1.9,2.7-3.8,3.9-5.8s3.3-5.6,4.7-8.5a1.3,1.3,0,0,1,1.2-.8h2a4.3,4.3,0,0,1,4.8,2.2c.6,1.3,1,2.2.5,3.6-1.3,3.6-2.5,7.2-3.8,10.9-2.1,6.2-4.2,12.4-6.4,18.7-.6,1.7-1.2,3.4-1.7,5.1s-1,1.6-2.1,1.5H226.6a4.9,4.9,0,0,1-3.1-.7c-2-1.3-2.3-3-2.1-5.1a4.9,4.9,0,0,1,4.3-3.8,57.8,57.8,0,0,0,7.2-.3,16.8,16.8,0,0,0,3.8-1.2c2.7-1.2,4.5-3.1,4.8-6.3a91.5,91.5,0,0,0,.7-12.8q.2-45.1,0-90.4a80,80,0,0,0-.7-11.9c-.8-5.7-2.1-6.7-7.7-7.8a32.1,32.1,0,0,0-7.6-.3,3.6,3.6,0,0,1-3.4-1.7,6.6,6.6,0,0,1-1.5-3c-.2-2.3,1.3-3.4,2.7-4.6s.9-.3,1.4-.3h55.9Z" transform="translate(-8.1 -8)" fill="#fff"/>
      <path d="M534.3,161.7H507.7a4.2,4.2,0,0,1-4.5-4.6v-3.7c0-.9.3-1.3,1.2-1.3a32.2,32.2,0,0,0,6.3-.5l3.2-.7a5,5,0,0,0,3.8-5.4,27.3,27.3,0,0,0-2.1-8.4c-2.5-6.8-5.5-13.4-8.3-20-.5-3.6-2.8-4-5.9-3.9H455.8c-2.5,0-2.5.1-3.3,2.3s-1.7,4.1-2.6,6.2c-2.3,5.5-4.7,10.9-7,16.4a51.8,51.8,0,0,0-1.7,5.6,5.8,5.8,0,0,0,4.4,7.1,55.9,55.9,0,0,0,8.2,1.2c1.2.1,2.7-.4,3.6.5s.2,2.5.3,3.8a3.4,3.4,0,0,1,0,1,4.4,4.4,0,0,1-4.4,4.4H411.2c-2.2.1-3.2-1.4-4.5-2.5a1.2,1.2,0,0,1-.2-.8c-.1-1.7,0-3.4-.1-5.1s.4-.8,1-.9l6.4-1.2a12.3,12.3,0,0,0,8.1-5.7,58.5,58.5,0,0,0,3.8-6.3c3.3-6.4,6-13,8.8-19.7,1.7-4,3.5-8,5.3-12.1l6.8-16.2c1.7-4.1,3.5-8.1,5.2-12.2s4.7-11,7.1-16.6l4.8-11.1c1.8-4.2,3.6-8.4,5.3-12.6s3.5-8,5.2-12,3.4-8.2,5.2-12.2c.7-1.8,1.7-3.5,2.3-5.4s.8-1.1,1.7-1.1h5.2a1.5,1.5,0,0,1,1.6,1.2l6.6,16.1,4.8,11.4c1.7,4.1,3.4,8.3,5.2,12.4l4.4,10.4c1.8,4.6,3.7,9.1,5.6,13.7s3,6.9,4.4,10.4l5.7,13.6,4.6,10.8,5.3,13.1c1.7,4,3.5,7.9,5.2,11.9a80,80,0,0,0,3.5,7.2,24,24,0,0,0,8,9.6,10.4,10.4,0,0,0,3.6,1.4,30,30,0,0,0,6.7.9c2.1,0,2.1.1,2.1,2.1a19.2,19.2,0,0,0,0,2.4c.5,2.2-.9,3.4-2.5,4.6a3.2,3.2,0,0,1-2.3.5H534.3ZM500.2,99.5l-1.9-4.7c-1.7-4.1-3.5-8.1-5.2-12.2l-6.8-16.5-5.4-13c-.2-.3-.3-.9-.8-.9s-.6.4-.8.8l-4.5,10.8c-2.1,4.7-4.1,9.4-6.1,14.2s-4.9,11.1-7.3,16.7a25,25,0,0,0-1.8,4.8Z" transform="translate(-8.1 -8)" fill="#fff"/>
      <path d="M155.7,115.4c1.2,1.1,2.7,1,4,1.3a4.3,4.3,0,0,1,3.2,5.4L156,143.8c-1.7,5.2-3.3,10.5-4.9,15.8-.6,2-.6,2.1-2.8,2.1H38.1c-1.9,0-4.1-1.5-4.5-3.1s.6-5.4,2.6-6.3a4.6,4.6,0,0,1,2-.2,67.9,67.9,0,0,0,7.8-.4,9.9,9.9,0,0,0,6.5-4.3c1-1.4,1-3.2,1.3-4.8a47.3,47.3,0,0,0,.4-6.5V37.3a39.6,39.6,0,0,0-.9-9.1c-.9-4-2.2-5.6-7.7-6.8a36.4,36.4,0,0,0-7.4-.3c-2.8-.1-4.4-1.9-4.7-4.8s.9-3.2,2.3-4.3a1.9,1.9,0,0,1,1.4-.5H99.4a5.2,5.2,0,0,1,4.3,1.8c.9.9,1.4,3.9.7,4.9s-1.4,1.6-2.1,2.4a2.7,2.7,0,0,1-2.1.5,56.1,56.1,0,0,0-10,.7l-2.9.8c-3.5,1.5-5.8,3.9-6.3,7.9s-.7,6.6-.7,10v93.1a35.6,35.6,0,0,0,.8,8c.8,3.6,2.4,4.7,5.4,4.9s5.3.3,8,.3c8.4.1,16.7.1,25.1-.1a54.6,54.6,0,0,0,9.9-1.1,27.3,27.3,0,0,0,11.7-6.3l1.4-1.3c2.6-2.3,4.3-5.2,6.1-8.1C151.4,125.3,153.3,120.4,155.7,115.4Z" transform="translate(-8.1 -8)" fill="#fff"/>
      <path d="M603.3,252.7a2.5,2.5,0,0,0,1.2-1.6c2.5-5.3,4.8-10.6,7.3-15.8s4.1-8.3,6-12.6,3.6-7.5,5.3-11.4,3.6-7.7,5.4-11.6,3.8-8.3,5.8-12.4l3-6.3c.5-1.1,1.1-2.2,1.5-3.3a7.2,7.2,0,0,1,1.2-2.1,2.8,2.8,0,0,1,4.9,1c.7,1.8.6,3.8.9,5.8.6,4.8,1.1,9.6,1.6,14.5l1.5,13.6c.5,4.9,1.1,9.7,1.6,14.5l1.8,17.6c.6,5.4,1.3,10.9,1.9,16.4a22.2,22.2,0,0,0,1.7,6.1,5.3,5.3,0,0,0,3.4,3.1l2.2.5c1.9.2,3.7.9,5.7,1s2.5.8,2.6,2a3.3,3.3,0,0,1-2.6,2.8h-8.3c-1.2-.1-2.2-.7-3.5-.8a93.1,93.1,0,0,1-11.8-.4h-1.1c-2.3-.2-4.3-1.9-1.9-4.6a2.4,2.4,0,0,0,.5-2c-.7-6.8-1.4-13.6-2-20.4s-1-10.8-1.4-16.2-1.2-11.5-1.7-17.2a50.5,50.5,0,0,0-.7-6.3,16,16,0,0,0-2.5,4.6c-.9,2.3-2.1,4.4-3.1,6.6-1.8,4.2-3.9,8.2-5.8,12.2l-9.2,19.5c-2.9,6.3-5.8,12.6-8.9,18.8a20.1,20.1,0,0,1-1.9,3.9c-1.6,2.2-3.7,2.3-5.4.2a14,14,0,0,1-1.6-2.6c-.8-2.2-2.1-4.1-3.1-6.2-2.8-5.8-5.9-11.6-8.9-17.4s-4.7-9.6-7-14.5-5.9-12.6-8.8-18.9a22.1,22.1,0,0,0-1.6-3.5.5.5,0,0,0-.7-.4c-.3,0-.4.3-.4.6-.3,2.6-.5,5.2-.7,7.8-.4,4.5-.7,9-1.1,13.5s-1.1,11.3-1.6,16.9-.9,11-1.3,16.5a4.1,4.1,0,0,0,0,1.1c0,2.8.4,3.3,3.1,3.7s2.9.8,4.4,1a1.9,1.9,0,0,1,1,3.3,3.7,3.7,0,0,1-3,1.4,58.1,58.1,0,0,0-5.9-.1c-1.3-.1-2.5-.9-4-.8s-4.5,0-6.8.6-4.5.3-6.7.1a3.1,3.1,0,0,1-2.5-1.9,1.8,1.8,0,0,1,1.5-2.6c1.3-.2,2.6-.7,3.9-.9s3.2-1.5,3.6-3.5a50.3,50.3,0,0,0,.9-5.6l2.1-18.8c.8-7.1,1.5-14.1,2.3-21.2s1.7-14.6,2.5-21.9l1.5-13.8c.2-2.2.4-4.3.7-6.5s1-2.7,2.4-3a3.1,3.1,0,0,1,3.5,1.9c1,2,2,3.9,2.9,5.9s1.9,4,2.9,6.1c2.7,5.8,5.7,11.5,8.5,17.3s6.3,12.9,9.4,19.4l7.1,14.4c1.9,4,3.8,8.1,5.8,12.1A9,9,0,0,0,603.3,252.7Z" transform="translate(-8.1 -8)" fill="#fff"/>
      <path d="M350.4,221.7V200.4c-.1-4.5-.1-8.9-.4-13.3s-1.3-5.6-5.8-6h-2.7a2.4,2.4,0,0,1-2.2-2,2.5,2.5,0,0,1,2.1-2.7,17.5,17.5,0,0,1,5.6-.2,147.8,147.8,0,0,0,16.3.3c6.7-.3,13.4-.5,20.1-.3s11.2.2,16.7,1.7,9.2,2.2,13.5,4.4a49.5,49.5,0,0,1,7.9,4.9,46.5,46.5,0,0,1,9.7,11,50.7,50.7,0,0,1,6,15.1,56.5,56.5,0,0,1,.9,15.4,50.8,50.8,0,0,1-5.6,20.1,47.6,47.6,0,0,1-6.9,10.3c-1.4,1.6-2.9,2.9-4.4,4.4s-5.1,3.6-7.7,5.3-8.5,3.5-12.9,4.9c-7,2.3-14.1,1.8-21.3,1.8s-12.2-.5-18.3-1c-1.8-.2-3.7-.8-5.7-.7s-4.2-.1-6.4.7-3.3.2-5,0a3.1,3.1,0,0,1-2.4-1.8,1.8,1.8,0,0,1,1.3-2.7c1.4-.2,2.5-1,4-1a2.3,2.3,0,0,0,2-1.7,13,13,0,0,0,.8-3.4c.3-2.5.4-4.9.5-7.4C350.4,244.9,350.4,233.3,350.4,221.7Zm24.1-37.9c-2.5,0-4.8,0-7.2.2s-3.3.7-3.3,3.8c-.1,6.2,0,12.5,0,18.7,0,15,0,30,.1,45a67.9,67.9,0,0,0,.6,10,5.6,5.6,0,0,0,2.4,3.9,14.2,14.2,0,0,0,2.9,1,44.5,44.5,0,0,0,9.7,1.4c8.8.5,17.3-.1,25.3-4.4a49.5,49.5,0,0,0,10.1-7.4l.7-.8a39.2,39.2,0,0,0,5.6-11.2,50.1,50.1,0,0,0,2.3-13.3,47.1,47.1,0,0,0-2.4-18.2,40.7,40.7,0,0,0-6-11.5,41.8,41.8,0,0,0-9.2-9.1,40.5,40.5,0,0,0-11-5.5C388.4,184.3,381.4,183.8,374.5,183.8Z" transform="translate(-8.1 -8)" fill="#fff"/>
      <path d="M73.5,237.4H62.4c-2.2,0-2.2,0-2.9,2.1l-3.3,9.6c-1.3,4.1-2.6,8.2-4,12.2a31,31,0,0,0-1.1,5.1c-.2,1.5.3,2,1.7,2.6a6.8,6.8,0,0,0,3.1.8,2.1,2.1,0,0,1,2.4,1.4c.3,1-.1,1.5-1.3,2.5a3.7,3.7,0,0,1-2.8.8l-5.7-.5c-3-.5-6.2-.8-9.2.4a6.4,6.4,0,0,1-2.4.1c-2.1,0-4.1-.1-6.1.1a4.8,4.8,0,0,1-2.9-1.2,2,2,0,0,1-.8-2.1,1.7,1.7,0,0,1,1.6-1.4c1.5,0,2.8-.7,4.3-.9a8.5,8.5,0,0,0,6.8-4.8c2.4-4.5,3.7-9.3,5.6-13.9s2.8-7.8,4.2-11.7c2.2-6,4.3-12,6.5-17.9l4.5-12.1c2.6-7.1,5.1-14.2,7.7-21.4,1.2-3.3,2.5-6.6,3.8-9.9a6.1,6.1,0,0,1,.7-1.4,2.8,2.8,0,0,1,4.6-.2,5.9,5.9,0,0,1,1,1.7l6,15.6,4.8,12.4c2.7,7.2,5.5,14.3,8.2,21.5l4.3,11.1c2.3,5.8,4.5,11.7,6.8,17.4a53.1,53.1,0,0,0,5.3,10,8.7,8.7,0,0,0,6.1,3.5c1.5.2,2.9.8,4.4,1a1.8,1.8,0,0,1,.8,3.3,4.5,4.5,0,0,1-3.1,1.4H111.8a2.7,2.7,0,0,0-.9,0c-3.9.4-7.7-.8-11.6-.8a2.3,2.3,0,0,1-2.3-1.4,2,2,0,0,1,.8-2.5c.9-.6.8-1.5.5-2.5l-6-15.6-4.2-11.4c-.1-.1-.1-.3-.2-.4-.9-2.5-.9-2.5-3.5-2.5Zm-.2-38.2a4.7,4.7,0,0,0-1.2,2.3c-2,6-3.9,12-5.8,18-1,2.9-1.9,5.8-2.8,8.7-.3,1.1-.2,1.2.9,1.3H82.9c.7,0,1-.3.7-1.1-1.1-3.1-2.1-6.2-3.2-9.2s-2.9-8.4-4.4-12.5C75.2,204.2,74.3,201.8,73.3,199.2Z" transform="translate(-8.1 -8)" fill="#fff"/>
      <path d="M274.8,237.4H263.2c-1.8,0-1.8,0-2.4,1.6-1.8,5.5-3.7,11.1-5.6,16.6-.6,2-1.2,3.9-1.9,5.8a18.8,18.8,0,0,0-1,4.7c-.3,1.8.1,2.3,1.8,2.9a6.9,6.9,0,0,0,2.8.8,2.5,2.5,0,0,1,1.5.3,1.7,1.7,0,0,1,.6,2.9c-.8.7-1.6,1.6-2.9,1.5a48.9,48.9,0,0,1-6.6-.5,15.5,15.5,0,0,0-8.8.3l-.9.2h-8.5a3.6,3.6,0,0,1-2.7-1.5,1.8,1.8,0,0,1,1.1-3c1.5-.3,2.9-.8,4.4-1a8.7,8.7,0,0,0,6.8-4.7c2.4-4.5,3.7-9.3,5.6-14s3-8.1,4.4-12.2l6.3-17.2c1.4-3.9,2.9-7.7,4.3-11.6l6.2-17.4,2.1-5.5,3.2-8.7c.6-1.5,1.3-3.1,3.3-3.1s2.7,1.5,3.3,3c2.7,6.8,5.2,13.6,7.9,20.5,1.5,4,3.2,8.1,4.7,12.1l6.3,16.7c1.3,3.5,2.7,7,4.1,10.5,2.3,5.9,4.6,11.9,7,17.8a47.5,47.5,0,0,0,5.2,10,8.7,8.7,0,0,0,6.6,3.8c1.4.2,2.6.7,4,.9a1.8,1.8,0,0,1,.8,3.3,4.1,4.1,0,0,1-3,1.4c-5.4-.1-10.8.1-16.2-.2l-7-.8a2.2,2.2,0,0,1-2-1.4,1.9,1.9,0,0,1,.8-2.3c1-.7,1-1.6.6-2.7-2.7-6.9-5.3-13.8-7.9-20.7-1-2.5-2-5.1-2.9-7.7a1.8,1.8,0,0,0-2.1-1.4Zm-.3-38.1a4.7,4.7,0,0,0-1.3,2.2l-8.4,26.2c-.6,1.7-.5,1.8,1.1,1.8h17.7c.5,0,1,.1,1.3-.6C281.5,219.2,278.1,209.4,274.5,199.3Z" transform="translate(-8.1 -8)" fill="#fff"/>
      <path d="M182,174.6c7.7-.2,15.3.9,23,2.1l7.5.9a3.2,3.2,0,0,1,3,3.8,166.1,166.1,0,0,0-.9,18.7,13.5,13.5,0,0,1-.4,2.8,2,2,0,0,1-2.2,1.9,2.3,2.3,0,0,1-2.6-1.8,6.8,6.8,0,0,1-.2-2,19,19,0,0,0-2.2-9,7,7,0,0,0-1.5-1.9c-2-1.6-4-3.4-6.6-4.3s-5.6-1.6-8.4-2.3a38.7,38.7,0,0,0-12.6-1.3c-1.8.1-3.6-.1-5.2.4-4.7,1.2-9.7,1.5-13.9,4a25.3,25.3,0,0,0-8.1,6.5c-1.2,1.6-2.6,3.2-3.7,5a41.3,41.3,0,0,0-4.7,14.4,80.3,80.3,0,0,0-.5,12,45.2,45.2,0,0,0,3.2,15,44,44,0,0,0,24.5,24.6c7.2,3.1,14.6,3.3,22.1,2.8a23.5,23.5,0,0,0,7.9-1.4,16.6,16.6,0,0,0,7.1-4.5,17.3,17.3,0,0,0,3-5.9c.5-1.6.8-3.3,1.3-4.8a2.2,2.2,0,0,1,2.4-1.9,2.2,2.2,0,0,1,2.2,1.9,11.9,11.9,0,0,1,0,4.6,116.7,116.7,0,0,1-2.7,14.1,5.5,5.5,0,0,1-3.5,3.8,42.9,42.9,0,0,1-14.1,3c-2.9.2-5.7.4-8.5.4-6.1-.1-12.3-.1-18.2-1.5s-9.4-2.3-13.8-4.6a51.3,51.3,0,0,1-8.1-4.9,49.7,49.7,0,0,1-9.5-9.4,49.2,49.2,0,0,1-7.4-14.4,60.7,60.7,0,0,1-2.2-22,54,54,0,0,1,4-15.8,63.3,63.3,0,0,1,6.8-11.5l.3-.4c2.7-2.6,5.2-5.5,8.4-7.8s6.3-3.5,9.5-5.1c4.7-2.4,9.8-3,14.8-3.7S178.4,174.8,182,174.6Z" transform="translate(-8.1 -8)" fill="#fff"/>
      <path d="M485.7,201.2v15.5c0,1.6.1,1.7,1.6,1.7,6.4-.1,12.8.2,19.2-.4,1.5-.2,3-.4,3.8-2a2.8,2.8,0,0,1,2-1.3,2.1,2.1,0,0,1,2.6,1.9c.2,1.4-.3,2.7-.5,4.1a84.7,84.7,0,0,0-.9,11.3,5.7,5.7,0,0,1-1.1,3.6c-1,1.2-2.1,1.2-3-.1a4.7,4.7,0,0,1-.9-2.8c0-4.2-1.1-5.4-5.3-5.9h-.5c-4.9.1-9.8-1.1-14.8-1-2.1,0-2.2,0-2.2,2.2v25.3a60.2,60.2,0,0,0,.3,7.4,18.2,18.2,0,0,0,.7,2.5,4.2,4.2,0,0,0,3.5,2.9,51.1,51.1,0,0,0,11.7.6,44.8,44.8,0,0,0,6.3-.6,7.4,7.4,0,0,0,6.1-5.7c.4-1.3.5-2.6.9-3.9s1.2-2.3,2.4-2.3a1.8,1.8,0,0,1,1.8,1.1,5.4,5.4,0,0,1,.6,2.5,110.1,110.1,0,0,1-1.7,12.5,5.6,5.6,0,0,1-5.8,4.7c-4-.1-8,.1-12-.2s-8.6-.2-12.9-.2c-.9-.1-1.8.2-2.7-.5s-.7-.2-1-.2h-9.4a11.1,11.1,0,0,0-2.5.5,16.8,16.8,0,0,1-6.7.2,3.8,3.8,0,0,1-2-1.6,1.8,1.8,0,0,1,1-2.7,14.6,14.6,0,0,1,3.4-1,3.6,3.6,0,0,0,3.3-3,25.2,25.2,0,0,0,.8-5.4c.1-1.7,0-3.5.1-5.2.4-13.8.2-27.6.2-41.4V197.3c.1-3.5-.2-6.9-.3-10.3v-.6c-.7-4.4-1.8-4.7-5.4-5.2a22,22,0,0,1-3.7-.5,1.9,1.9,0,0,1-1.5-1.9,2.3,2.3,0,0,1,1.3-2.3,7.8,7.8,0,0,1,2.6-.4l8.7.2c10.6.3,21.2.2,31.8.1a38.5,38.5,0,0,0,4.8-.2l3.4-.7c1.9-.7,3.2.3,3.2,2.3a6.8,6.8,0,0,1-.2,1.4,24.8,24.8,0,0,0-1,7.1,42.1,42.1,0,0,1-.6,6.3c-.3,2.2-2.4,3.1-3.9,1.9a2.6,2.6,0,0,1-1-2.3,15,15,0,0,0-.5-3.7,3.8,3.8,0,0,0-2.8-3,18.5,18.5,0,0,0-4.7-.8l-14.6-.4c-1.9-.1-2,0-2,1.9Z" transform="translate(-8.1 -8)" fill="#fff"/>
      <path d="M728.1,274.4c-1.7,0-3.6.5-5.1-.1s-4.3-.4-6.5-.6a9.6,9.6,0,0,0-3.4.2c-2.9,1-5.8.4-8.6.6a3.2,3.2,0,0,1-2.8-1.2c-1.3-1.3-.8-3.1.9-3.4a22.4,22.4,0,0,1,3.7-1,2.9,2.9,0,0,0,2.8-2.4,11.3,11.3,0,0,0,.6-3.2c.4-4.5.3-9.1.4-13.7s0-7.4-.1-11.1a24,24,0,0,0-2.6-10.5c-1.8-3.4-3.8-6.6-5.8-9.9s-4.7-7.8-7-11.7c-1-1.8-2.2-3.5-3.2-5.2a168.3,168.3,0,0,0-9.6-14.2c-1-1.2-2.3-2-3.3-3.1a10.3,10.3,0,0,0-6.4-2.9,2.2,2.2,0,0,1-2.2-2.4c0-1.4.6-2,2.1-2.4h2.6a136.7,136.7,0,0,0,19.2,0,8.8,8.8,0,0,1,3.6.2,2.1,2.1,0,0,1,1.8,2,2.2,2.2,0,0,1-1.2,2.2l-1.4.6a1.2,1.2,0,0,0-.8,1.5,6.2,6.2,0,0,0,.7,2.3c.7,1.4,1.4,2.7,2.2,4,2.3,4.1,4.8,8.1,7.1,12.2s6.2,10.8,9.3,16.2c.9,1.5,2.2,2.9,2.8,4.6a1,1,0,0,0,.9.8c.5-.1.7-.6.9-.9,1.1-2.2,2.3-4.4,3.5-6.5,2.5-4.6,5.2-9.2,7.8-13.8,1.4-2.4,2.9-4.7,4.2-7.1s3.2-5,4.3-7.8a8.4,8.4,0,0,0,.8-2.7c0-2.1,0-2.2-1.9-3.1a1.9,1.9,0,0,1-1-.5,2.1,2.1,0,0,1,.5-3.8,8.6,8.6,0,0,1,4.5-.3,100.3,100.3,0,0,0,15.5,0,9.6,9.6,0,0,1,4.1.2,2,2,0,0,1,1.7,2.2c0,1.1-.5,1.7-1.7,2.2a12.5,12.5,0,0,1-1.9.3,10.2,10.2,0,0,0-5.5,2.2c-3.6,2.8-6,6.4-8.5,10.1s-5.3,8.3-7.9,12.5-5.9,9.6-8.6,14.6c-1.1,2.1-2.4,4.2-3.5,6.5a25.6,25.6,0,0,0-2.3,9.8c-.2,4.7-.3,9.3-.1,14s-.1,9.3.6,13.9c.4,2.7,1.1,3.6,3.9,4.1a35,35,0,0,1,5.5.9c1,.3,1.9.5,2.1,1.6s-.3,1.7-1.2,2.4a3.4,3.4,0,0,1-2.5.8h-4Z" transform="translate(-8.1 -8)" fill="#fff"/>
    </g>
    <g>
      <path d="M34.4,323h8v.8a2.9,2.9,0,0,0-1.4.4,1,1,0,0,0-.4.9,3.7,3.7,0,0,0,.4,1.6l4.1,11.1,4.2-9.1-1.1-2.8a3.5,3.5,0,0,0-1.4-1.7,3.2,3.2,0,0,0-1.7-.4V323h9.2v.8a4.2,4.2,0,0,0-2.2.5,1.8,1.8,0,0,0-.4,1.1,2.9,2.9,0,0,0,.2.9l4.4,11.1,4-10.7a5.4,5.4,0,0,0,.4-1.8.8.8,0,0,0-.4-.7c-.2-.3-.8-.4-1.6-.4V323h6.1v.8a3.5,3.5,0,0,0-2.7,2.5l-6.4,16.6h-.9L50,330.6l-5.6,12.3h-.8l-6.2-16.2a6.4,6.4,0,0,0-1.2-2.1,5.1,5.1,0,0,0-1.8-.8Z" transform="translate(-8.1 -8)" fill="#fff"/>
      <path d="M89.6,323h8.1v.8a3,3,0,0,0-1.5.4,1.2,1.2,0,0,0-.3.9,5.5,5.5,0,0,0,.3,1.6l4.1,11.1,4.2-9.1-1.1-2.8a2.9,2.9,0,0,0-3.1-2.1V323h9.2v.8a3.6,3.6,0,0,0-2.1.5,1.4,1.4,0,0,0-.4,1.1,2.8,2.8,0,0,0,.1.9l4.4,11.1,4.1-10.7a10.1,10.1,0,0,0,.4-1.8,1,1,0,0,0-.4-.7,2.2,2.2,0,0,0-1.6-.4V323h6v.8a3.5,3.5,0,0,0-2.7,2.5l-6.4,16.6H110l-4.8-12.3-5.6,12.3h-.8l-6.2-16.2a6.4,6.4,0,0,0-1.2-2.1,4.3,4.3,0,0,0-1.8-.8Z" transform="translate(-8.1 -8)" fill="#fff"/>
      <path d="M144.8,323h8.1v.8a2.9,2.9,0,0,0-1.4.4,1,1,0,0,0-.4.9,3.7,3.7,0,0,0,.4,1.6l4.1,11.1,4.1-9.1-1.1-2.8a2.9,2.9,0,0,0-1.3-1.7,3.2,3.2,0,0,0-1.7-.4V323h9.2v.8a4,4,0,0,0-2.2.5,1.4,1.4,0,0,0-.4,1.1,1.5,1.5,0,0,0,.2.9l4.3,11.1,4.1-10.7a5.4,5.4,0,0,0,.4-1.8.8.8,0,0,0-.4-.7,2.2,2.2,0,0,0-1.6-.4V323h6.1v.8a3.5,3.5,0,0,0-2.7,2.5l-6.5,16.6h-.8l-4.8-12.3-5.6,12.3h-.8l-6.2-16.2a6.4,6.4,0,0,0-1.2-2.1,4.9,4.9,0,0,0-1.9-.8Z" transform="translate(-8.1 -8)" fill="#fff"/>
      <path d="M202.4,338.2a2.2,2.2,0,0,1,1.7.7,2.5,2.5,0,0,1,.6,1.6,2.2,2.2,0,0,1-.7,1.7,2,2,0,0,1-1.6.7,2.2,2.2,0,0,1-1.7-.7,2.5,2.5,0,0,1-.6-1.7,2.3,2.3,0,0,1,.6-1.6A2.2,2.2,0,0,1,202.4,338.2Z" transform="translate(-8.1 -8)" fill="#fff"/>
      <path d="M239.9,312.4v25.5a11,11,0,0,0,.2,2.4,2,2,0,0,0,.9.9,4.3,4.3,0,0,0,2,.3v.8h-9.5v-.8l1.9-.2a2.2,2.2,0,0,0,.7-.9,7.3,7.3,0,0,0,.3-2.5V320.4a27.1,27.1,0,0,0-.2-4,1.9,1.9,0,0,0-.4-1,1.4,1.4,0,0,0-.9-.3,3.3,3.3,0,0,0-1.4.4l-.3-.8,5.7-2.3Z" transform="translate(-8.1 -8)" fill="#fff"/>
      <path d="M272.6,330.3a10,10,0,0,0,2.1,6.7,6.4,6.4,0,0,0,4.9,2.5,5.2,5.2,0,0,0,3.3-1.1,8.7,8.7,0,0,0,2.4-3.6l.6.5a9.5,9.5,0,0,1-2.6,5.2,6.8,6.8,0,0,1-5.3,2.4,7.6,7.6,0,0,1-5.9-2.7,10.1,10.1,0,0,1-2.5-7.3c0-3.3.8-5.9,2.5-7.7a8.5,8.5,0,0,1,6.4-2.8,6.8,6.8,0,0,1,5.3,2.2,7.7,7.7,0,0,1,2.1,5.7Zm0-1.2h8.9a10,10,0,0,0-.4-2.6,4.9,4.9,0,0,0-1.6-1.9,4,4,0,0,0-5.3.7A5.6,5.6,0,0,0,272.6,329.1Z" transform="translate(-8.1 -8)" fill="#fff"/>
      <path d="M323.5,339.5l-3.7,2.7a6.9,6.9,0,0,1-2.4.5,4.2,4.2,0,0,1-3.3-1.4,4.8,4.8,0,0,1-1.3-3.6,4.8,4.8,0,0,1,.6-2.4,8,8,0,0,1,3-2.7,49.2,49.2,0,0,1,7.1-3.1v-.7c0-2-.3-3.3-.9-4a3.4,3.4,0,0,0-2.7-1.1,3.2,3.2,0,0,0-2.1.8,2.1,2.1,0,0,0-.8,1.6v1.2a2.1,2.1,0,0,1-.5,1.5,1.9,1.9,0,0,1-2.6,0,2.5,2.5,0,0,1-.5-1.5,4.1,4.1,0,0,1,1.9-3.3,7.9,7.9,0,0,1,5.2-1.5,8.8,8.8,0,0,1,4.2.8,4.2,4.2,0,0,1,1.8,2.1,10,10,0,0,1,.4,3.7v6.5a24.8,24.8,0,0,0,.1,3.4,2.2,2.2,0,0,0,.3.8.7.7,0,0,0,.6.2h.6l1.7-1.6v1.2c-1.6,2.1-3.1,3.2-4.5,3.2a2.6,2.6,0,0,1-1.7-.7A4,4,0,0,1,323.5,339.5Zm0-1.4v-7.3a26.4,26.4,0,0,0-4.1,1.8,8.3,8.3,0,0,0-2.4,1.9,4.4,4.4,0,0,0-.7,2.2,3.9,3.9,0,0,0,.9,2.6,3,3,0,0,0,2.1,1C320.4,340.3,321.8,339.6,323.5,338.1Z" transform="translate(-8.1 -8)" fill="#fff"/>
      <path d="M369.5,340.1a9.7,9.7,0,0,1-2.8,2.1,5.9,5.9,0,0,1-2.9.7,7.1,7.1,0,0,1-5.5-2.7,9.5,9.5,0,0,1-2.4-6.7,12.5,12.5,0,0,1,2.6-7.6,8.2,8.2,0,0,1,6.7-3.5,6.1,6.1,0,0,1,4.3,1.7v-3.6a27.8,27.8,0,0,0-.2-4.1,1.9,1.9,0,0,0-.5-1,1.1,1.1,0,0,0-.8-.3,3.4,3.4,0,0,0-1.5.4l-.3-.8,5.8-2.3h.9v22.3a27.8,27.8,0,0,0,.2,4.1,1.9,1.9,0,0,0,.5,1,1.1,1.1,0,0,0,.8.3l1.5-.3.2.7-5.7,2.4h-.9Zm0-1.4v-10a7.9,7.9,0,0,0-.8-2.6,4.2,4.2,0,0,0-1.7-1.8,3.9,3.9,0,0,0-2-.6,4.5,4.5,0,0,0-3.3,1.7c-1.3,1.5-1.9,3.6-1.9,6.4a10.3,10.3,0,0,0,1.8,6.5,5.5,5.5,0,0,0,4.2,2.3A5.6,5.6,0,0,0,369.5,338.7Z" transform="translate(-8.1 -8)" fill="#fff"/>
      <path d="M405.6,338.2a2,2,0,0,1,1.6.7,2.1,2.1,0,0,1,.7,1.6,2.2,2.2,0,0,1-.7,1.7,2.1,2.1,0,0,1-1.6.7,2.4,2.4,0,0,1-2.4-2.4,2,2,0,0,1,.7-1.6A2.2,2.2,0,0,1,405.6,338.2Z" transform="translate(-8.1 -8)" fill="#fff"/>
      <path d="M447.3,339.5a44.2,44.2,0,0,1-3.7,2.7,6.9,6.9,0,0,1-2.4.5,4.5,4.5,0,0,1-3.3-1.4,4.8,4.8,0,0,1-1.3-3.6,4.8,4.8,0,0,1,.6-2.4,8,8,0,0,1,3-2.7,54.9,54.9,0,0,1,7.1-3.1v-.7c0-2-.3-3.3-.9-4a3.5,3.5,0,0,0-4.8-.3,2.1,2.1,0,0,0-.8,1.6v1.2a2.1,2.1,0,0,1-.5,1.5,1.5,1.5,0,0,1-1.3.5,1.7,1.7,0,0,1-1.3-.5,2.5,2.5,0,0,1-.5-1.5,4.4,4.4,0,0,1,1.9-3.3,8.1,8.1,0,0,1,5.2-1.5,8.8,8.8,0,0,1,4.2.8,4.2,4.2,0,0,1,1.8,2.1,10,10,0,0,1,.4,3.7v6.5a24.8,24.8,0,0,0,.1,3.4c.1.4.2.7.4.8s.3.2.5.2h.6a10.1,10.1,0,0,0,1.7-1.6v1.2c-1.6,2.1-3.1,3.2-4.5,3.2a2.2,2.2,0,0,1-1.6-.7A3.9,3.9,0,0,1,447.3,339.5Zm0-1.4v-7.3a26.4,26.4,0,0,0-4.1,1.8,8.3,8.3,0,0,0-2.4,1.9,4.4,4.4,0,0,0-.7,2.2,3.9,3.9,0,0,0,.9,2.6,3,3,0,0,0,2.1,1C444.2,340.3,445.6,339.6,447.3,338.1Z" transform="translate(-8.1 -8)" fill="#fff"/>
      <path d="M496,335a10.1,10.1,0,0,1-3,5.8,7.3,7.3,0,0,1-5.1,2.1,7.5,7.5,0,0,1-5.7-2.8,10.8,10.8,0,0,1-2.4-7.4,10.2,10.2,0,0,1,2.7-7.4,8.6,8.6,0,0,1,6.5-2.8,6.9,6.9,0,0,1,4.6,1.5,4,4,0,0,1,1.9,3.1,2.1,2.1,0,0,1-.5,1.3,2.5,2.5,0,0,1-1.5.5,2.2,2.2,0,0,1-1.8-.8,3.1,3.1,0,0,1-.5-1.7,2.9,2.9,0,0,0-.9-1.9,3,3,0,0,0-2-.6,4.3,4.3,0,0,0-3.4,1.5,8.6,8.6,0,0,0-1.7,5.5,11.4,11.4,0,0,0,1.7,6.1,5.2,5.2,0,0,0,4.6,2.6,5.9,5.9,0,0,0,3.7-1.4,10.6,10.6,0,0,0,2.2-3.5Z" transform="translate(-8.1 -8)" fill="#fff"/>
      <path d="M533.8,339.5a44.2,44.2,0,0,1-3.7,2.7,6.9,6.9,0,0,1-2.4.5,4.5,4.5,0,0,1-3.3-1.4,4.8,4.8,0,0,1-1.3-3.6,4.8,4.8,0,0,1,.6-2.4,8,8,0,0,1,3-2.7,54.9,54.9,0,0,1,7.1-3.1v-.7c0-2-.3-3.3-.9-4a3.5,3.5,0,0,0-4.8-.3,2.1,2.1,0,0,0-.8,1.6v1.2a2.1,2.1,0,0,1-.5,1.5,1.5,1.5,0,0,1-1.3.5,1.7,1.7,0,0,1-1.3-.5,2.5,2.5,0,0,1-.5-1.5,4.4,4.4,0,0,1,1.9-3.3,8.1,8.1,0,0,1,5.2-1.5,8.8,8.8,0,0,1,4.2.8,4.2,4.2,0,0,1,1.8,2.1,10,10,0,0,1,.4,3.7v6.5a24.8,24.8,0,0,0,.1,3.4c.1.4.2.7.4.8s.3.2.5.2h.6a10.1,10.1,0,0,0,1.7-1.6v1.2c-1.6,2.1-3.1,3.2-4.5,3.2a2.2,2.2,0,0,1-1.6-.7A3.9,3.9,0,0,1,533.8,339.5Zm0-1.4v-7.3a26.4,26.4,0,0,0-4.1,1.8,8.3,8.3,0,0,0-2.4,1.9,4.4,4.4,0,0,0-.7,2.2,3.9,3.9,0,0,0,.9,2.6,3,3,0,0,0,2.1,1C530.7,340.3,532.1,339.6,533.8,338.1Z" transform="translate(-8.1 -8)" fill="#fff"/>
      <path d="M579.8,340.1a9.7,9.7,0,0,1-2.8,2.1,5.9,5.9,0,0,1-2.9.7,7.1,7.1,0,0,1-5.5-2.7,9.5,9.5,0,0,1-2.4-6.7,12,12,0,0,1,2.7-7.6,8,8,0,0,1,6.7-3.5,5.7,5.7,0,0,1,4.2,1.7v-3.6a27.8,27.8,0,0,0-.2-4.1,1.9,1.9,0,0,0-.5-1,1.1,1.1,0,0,0-.8-.3,3.4,3.4,0,0,0-1.5.4l-.2-.8,5.7-2.3h.9v22.3a27.8,27.8,0,0,0,.2,4.1,1.9,1.9,0,0,0,.5,1,1.1,1.1,0,0,0,.8.3l1.5-.3.3.7-5.8,2.4h-.9Zm0-1.4v-10a7.9,7.9,0,0,0-.8-2.6,4.2,4.2,0,0,0-1.7-1.8,3.9,3.9,0,0,0-2-.6,4.5,4.5,0,0,0-3.3,1.7c-1.3,1.5-1.9,3.6-1.9,6.4a10.3,10.3,0,0,0,1.8,6.5,5.6,5.6,0,0,0,4.2,2.3A5.6,5.6,0,0,0,579.8,338.7Z" transform="translate(-8.1 -8)" fill="#fff"/>
      <path d="M615.1,330.3c0,2.8.6,5.1,2,6.7a6.8,6.8,0,0,0,5,2.5,5.2,5.2,0,0,0,3.3-1.1,7.7,7.7,0,0,0,2.3-3.6l.7.5a10.3,10.3,0,0,1-2.6,5.2,6.8,6.8,0,0,1-5.3,2.4,7.6,7.6,0,0,1-5.9-2.7,10.1,10.1,0,0,1-2.5-7.3c0-3.3.8-5.9,2.5-7.7a8.5,8.5,0,0,1,6.4-2.8,6.9,6.9,0,0,1,5.3,2.2,7.7,7.7,0,0,1,2.1,5.7Zm0-1.2H624a6.5,6.5,0,0,0-.5-2.6,4,4,0,0,0-1.5-1.9,4.4,4.4,0,0,0-2.2-.7,4.3,4.3,0,0,0-3.1,1.4A5.6,5.6,0,0,0,615.1,329.1Z" transform="translate(-8.1 -8)" fill="#fff"/>
      <path d="M660.8,326.6l2.5-2.5a8.2,8.2,0,0,1,2-1.2,5.7,5.7,0,0,1,2.2-.4,4.8,4.8,0,0,1,3.1,1,4.5,4.5,0,0,1,1.7,3.1,17.4,17.4,0,0,1,3.7-3.4,6.7,6.7,0,0,1,3.1-.7,5,5,0,0,1,2.7.7,5.9,5.9,0,0,1,1.9,2.6,12.1,12.1,0,0,1,.4,3.8v8.3a6.9,6.9,0,0,0,.3,2.5,2,2,0,0,0,.8.8,4.4,4.4,0,0,0,1.9.3v.8h-9.6v-.8h.4a3.7,3.7,0,0,0,2-.4,3,3,0,0,0,.7-1.1c0-.3.1-.9.1-2.1v-8.3a6.9,6.9,0,0,0-.6-3.3,2.8,2.8,0,0,0-2.6-1.3,6.4,6.4,0,0,0-2.3.5,16.8,16.8,0,0,0-2.7,2.1v10.3a10,10,0,0,0,.2,2.5,2,2,0,0,0,.8.8,5.5,5.5,0,0,0,2.1.3v.8h-9.7v-.8a5.4,5.4,0,0,0,2.2-.3,2,2,0,0,0,.8-1.2,8.8,8.8,0,0,0,.1-2.1v-8.3a5.8,5.8,0,0,0-.7-3.3,3,3,0,0,0-2.6-1.4,4.6,4.6,0,0,0-2.2.6,7.5,7.5,0,0,0-2.7,2.1v10.3a6.5,6.5,0,0,0,.3,2.5,1.6,1.6,0,0,0,.7.9l2.1.2v.8h-9.5v-.8l1.9-.2a2.1,2.1,0,0,0,.8-1,11,11,0,0,0,.2-2.4v-7.3a19.1,19.1,0,0,0-.2-4.1,1.9,1.9,0,0,0-.4-1c-.2-.2-.5-.2-.9-.2l-1.4.3-.3-.8,5.8-2.3h.9Z" transform="translate(-8.1 -8)" fill="#fff"/>
      <path d="M711.6,323h9v.8h-.4a2.2,2.2,0,0,0-1.5.4,1.3,1.3,0,0,0-.4,1,5.3,5.3,0,0,0,.7,2.3l4.7,9.7,4.3-10.6a5.5,5.5,0,0,0,.3-1.7c0-.3,0-.5-.1-.6l-.5-.4h-1.3V323h6.3v.8l-1.2.3a4.6,4.6,0,0,0-1,1l-.7,1.6L722,345.9a11,11,0,0,1-3,4.3,6.1,6.1,0,0,1-3.6,1.4,2.7,2.7,0,0,1-2-.7,2.3,2.3,0,0,1-.8-1.7,1.8,1.8,0,0,1,.6-1.4,2.5,2.5,0,0,1,1.6-.5,5.8,5.8,0,0,1,1.9.4,2.7,2.7,0,0,0,1,.4,2.6,2.6,0,0,0,1.4-.7,6.8,6.8,0,0,0,1.5-2.5l1.4-3.4L715,327a7.9,7.9,0,0,0-1-1.6,4.9,4.9,0,0,0-.8-1l-1.6-.6Z" transform="translate(-8.1 -8)" fill="#fff"/>
    </g>
    <path d="M8.3,361v-4.8H769.4c.5.1.9.1,1.1.7.8,2.6-.1,4-2.7,4H8.3Z" transform="translate(-8.1 -8)" fill="#fff"/>
    <path d="M8.3,304.7c0-1.6-.6-3.8.2-4.6s3-.2,4.6-.2H770.7c-.1.4-.1.7-.2,1.1,0,3.7,0,3.7-3.8,3.7H8.3Z" transform="translate(-8.1 -8)" fill="#fff"/>
  </g>
</svg>
