<svg id="Layer_1" data-name="Layer 1" xmlns="http://www.w3.org/2000/svg" width="170.8" height="55" viewBox="0 0 170.8 55"><path d="M9,51.6l-1.3-2H8.9l.8,1.1.7-1.1h1.2l-1.3,2,1.5,2.1H10.5l-.8-1.2-.9,1.2H7.5Z" transform="translate(-7.1 -0.3)" fill="#e62b1e"/><path d="M17.1,51.3h-4v-.8h4Zm0,1.7h-4v-.8h4Z" transform="translate(-7.1 -0.3)"/><path d="M20.2,49H19.1v-.9h1.1Zm-1.1.6h1.1v4.1H19.1Z" transform="translate(-7.1 -0.3)"/><path d="M20.9,49.6H22v.6h0a1.7,1.7,0,0,1,1.3-.7c1.2,0,1.5.7,1.5,1.7v2.5H23.7V51.4c0-.6-.2-1-.8-1s-.8.4-.8,1.2v2.1H20.9Z" transform="translate(-7.1 -0.3)"/><path d="M28.4,53.2h0a1.4,1.4,0,0,1-1.2.7,2.3,2.3,0,0,1-2.3-2.1,2.2,2.2,0,0,1,2.2-2.3,1.6,1.6,0,0,1,1.3.6h0v-2h1.1v5.6H28.4Zm-1-2.8c-.7,0-1,.6-1,1.3s.3,1.3,1,1.3,1-.6,1-1.3S28.2,50.4,27.4,50.4Z" transform="translate(-7.1 -0.3)"/><path d="M31.1,52a.9.9,0,0,0,.8,1h.2a1.1,1.1,0,0,0,.9-.5h1a1.8,1.8,0,0,1-1.9,1.4A2,2,0,0,1,30,52v-.3a2.1,2.1,0,0,1,2-2.2h.1c1.4,0,2,1.2,2,2.5Zm1.8-.7c-.1-.6-.3-.9-.9-.9a.8.8,0,0,0-.9.7v.2Z" transform="translate(-7.1 -0.3)"/><path d="M34.6,49.6h1v.6h.1a1.2,1.2,0,0,1,1.2-.7,1.9,1.9,0,0,1,1.9,2.1h0A2,2,0,0,1,37,53.9h-.1a1.9,1.9,0,0,1-1.2-.7h0v2H34.6Zm3,2.1c0-.6-.2-1.3-1-1.3s-.9.6-.9,1.3.2,1.3.9,1.3S37.6,52.4,37.6,51.7Z" transform="translate(-7.1 -0.3)"/><path d="M40.2,52a.9.9,0,0,0,.8,1h.2a1.1,1.1,0,0,0,.9-.5h1a1.8,1.8,0,0,1-1.9,1.4A2,2,0,0,1,39.1,52v-.3a2.1,2.1,0,0,1,2-2.2h.1c1.4,0,2,1.2,2,2.5Zm1.8-.7c-.1-.6-.3-.9-.9-.9a.8.8,0,0,0-.9.7v.2Z" transform="translate(-7.1 -0.3)"/><path d="M43.7,49.6h1v.6h.1a1.4,1.4,0,0,1,1.2-.7c1.2,0,1.5.7,1.5,1.7v2.5H46.4V51.4c0-.6-.2-1-.7-1s-.9.4-.9,1.2v2.1H43.7Z" transform="translate(-7.1 -0.3)"/><path d="M51.1,53.2h0a1.2,1.2,0,0,1-1.2.7,2.2,2.2,0,0,1,0-4.4h0a1.4,1.4,0,0,1,1.2.6h0v-2h1.1v5.6H51.1Zm-.9-2.8c-.8,0-1,.6-1,1.3s.3,1.3,1,1.3.9-.6.9-1.3S50.9,50.4,50.2,50.4Z" transform="translate(-7.1 -0.3)"/><path d="M53.8,52c.1.7.4,1,1,1s.9-.3.9-.5h1a1.8,1.8,0,0,1-1.9,1.4A2,2,0,0,1,52.7,52v-.3a2.1,2.1,0,0,1,2-2.2h.1a2,2,0,0,1,2,2.2V52Zm1.9-.7q-.2-.9-.9-.9a.9.9,0,0,0-1,.8h1.9Z" transform="translate(-7.1 -0.3)"/><path d="M57.3,49.6h1.1v.6h0a1.7,1.7,0,0,1,1.3-.7c1.1,0,1.5.7,1.5,1.7v2.5H60V51.4c0-.6-.2-1-.7-1s-.9.4-.9,1.2v2.1H57.3Z" transform="translate(-7.1 -0.3)"/><path d="M63.3,49.6h.8v.8h-.8v2c0,.4.1.5.5.5h.3v.9h-.7c-.6,0-1.2-.2-1.2-1V50.4h-.7v-.8h.7V48.4h1.1Z" transform="translate(-7.1 -0.3)"/><path d="M64.5,48.1h1.1v5.6H64.5Z" transform="translate(-7.1 -0.3)"/><path d="M68.4,54.3a1.3,1.3,0,0,1-1.4.9h-.7v-1H67a.6.6,0,0,0,.3-.8h0l-1.4-3.9h1.2l.9,2.9h0l.9-2.9h1.2Z" transform="translate(-7.1 -0.3)"/><path d="M74.4,49.5a2.2,2.2,0,1,1-2.1,2.3h0a2,2,0,0,1,1.8-2.2Zm0,3.5c.7,0,1-.6,1-1.3s-.3-1.3-1-1.3-1,.6-1,1.3S73.6,53,74.4,53Z" transform="translate(-7.1 -0.3)"/><path d="M76.9,49.6H78v.8h0a1.4,1.4,0,0,1,1.3-.9h.3v1h-.4c-.9,0-1.2.6-1.2,1.3v1.8H76.9Z" transform="translate(-7.1 -0.3)"/><path d="M83.8,53.5c0,.7-.2,1.8-2.1,1.8s-1.8-.4-1.8-1.3H81a.8.8,0,0,0,.8.6c.6,0,.9-.5.9-1.1V53h0a1.4,1.4,0,0,1-1.2.6c-1.3,0-1.8-.9-1.8-2a1.9,1.9,0,0,1,1.7-2.1h.1a1.4,1.4,0,0,1,1.2.7h0v-.6h1.1Zm-1.1-1.9c0-.6-.2-1.2-.9-1.2s-1,.5-1,1.2a1.1,1.1,0,0,0,1,1.2h0C82.4,52.8,82.7,52.2,82.7,51.6Z" transform="translate(-7.1 -0.3)"/><path d="M84.3,50.9c.1-1,1-1.4,2-1.4s1.8.2,1.8,1.2v2.1a2.8,2.8,0,0,0,.1.9H87.1a.4.4,0,0,1-.1-.3,2.4,2.4,0,0,1-1.4.5,1.2,1.2,0,0,1-1.4-1v-.3c0-.9.7-1.1,1.4-1.2s1.3-.1,1.3-.6-.3-.5-.7-.5-.7.2-.7.6Zm2.6.8c-.2.2-.6.2-.9.3s-.7.2-.7.6.4.5.7.5a.8.8,0,0,0,.9-.7v-.7Z" transform="translate(-7.1 -0.3)"/><path d="M88.8,49.6h1v.6h.1a1.5,1.5,0,0,1,1.2-.7c1.2,0,1.5.7,1.5,1.7v2.5H91.5V51.4c0-.6-.2-1-.7-1s-.9.4-.9,1.2v2.1H88.8Z" transform="translate(-7.1 -0.3)"/><path d="M94.3,49H93.2v-.9h1.1Zm-1.1.6h1.1v4.1H93.2Z" transform="translate(-7.1 -0.3)"/><path d="M94.8,52.9l2.1-2.4H95v-.9h3.4v.9l-2.1,2.4h2.3v.8H94.8Z" transform="translate(-7.1 -0.3)"/><path d="M99.9,52c.1.7.4,1,1,1s.9-.3.9-.5h1a1.8,1.8,0,0,1-1.9,1.4A2,2,0,0,1,98.8,52v-.3a2.1,2.1,0,0,1,2-2.2h.1a2,2,0,0,1,2,2.2V52Zm1.9-.7q-.1-.9-.9-.9a1.1,1.1,0,0,0-1,.9Z" transform="translate(-7.1 -0.3)"/><path d="M106.3,53.2h0a1.2,1.2,0,0,1-1.2.7,2.2,2.2,0,1,1,0-4.4h0a1.4,1.4,0,0,1,1.2.6h0v-2h1.1v5.6h-1.1Zm-.9-2.8c-.8,0-1,.6-1,1.3s.3,1.3,1,1.3.9-.6.9-1.3S106.1,50.4,105.4,50.4Z" transform="translate(-7.1 -0.3)"/><path d="M111.5,49.1h-1.7v-1h4.7v1h-1.7v4.6h-1.3Z" transform="translate(-7.1 -0.3)"/><path d="M115,48.1h4.2v1h-3v1.2H119v1h-2.8v1.4h3.1v1H115Z" transform="translate(-7.1 -0.3)"/><path d="M119.8,48.1h2.4a2.4,2.4,0,0,1,2.6,2.4v.4c0,1.6-.8,2.8-2.6,2.8h-2.4Zm1.2,4.6h1.1c.8,0,1.5-.4,1.5-1.7s-.4-1.9-1.7-1.9H121Z" transform="translate(-7.1 -0.3)"/><path d="M128.4,52c0,.7.3,1,1,1a1.1,1.1,0,0,0,.9-.5h1a2.1,2.1,0,0,1-2.6,1.4,2.3,2.3,0,0,1,.5-4.4h.1a2,2,0,0,1,2,2.2V52Zm1.8-.7c-.1-.6-.3-.9-.9-.9a.8.8,0,0,0-.9.7v.2Z" transform="translate(-7.1 -0.3)"/><path d="M133.9,53.7h-1.2l-1.4-4.1h1.2l.8,2.8h.1l.8-2.8h1.1Z" transform="translate(-7.1 -0.3)"/><path d="M136.4,52a.9.9,0,0,0,.8,1h.2a1.1,1.1,0,0,0,.9-.5h1a1.8,1.8,0,0,1-1.9,1.4,2,2,0,0,1-2.1-1.9v-.3a2.1,2.1,0,1,1,4.2-.6,2.8,2.8,0,0,1-.1.9Zm1.8-.7c-.1-.6-.3-.9-.8-.9a1.1,1.1,0,0,0-1,.9Z" transform="translate(-7.1 -0.3)"/><path d="M139.9,49.6H141v.6h0a1.9,1.9,0,0,1,1.2-.7c1.2,0,1.5.7,1.5,1.7v2.5h-1.1V51.4c0-.6-.2-1-.7-1s-.9.4-.9,1.2v2.1h-1.1Z" transform="translate(-7.1 -0.3)"/><path d="M145.9,49.6h.8v.8h-.8v2c0,.4.1.5.4.5h.4v.9H146c-.7,0-1.3-.2-1.3-1V50.4h-.6v-.8h.6V48.4h1.2Z" transform="translate(-7.1 -0.3)"/><path d="M21.8,24.6a6.4,6.4,0,0,1,3.4,5.1H22.7a4.6,4.6,0,0,0-1.9-3,6.4,6.4,0,0,0-3.6-.9,5.4,5.4,0,0,0-4.4,2C11.6,29.1,11,31,11,33.6A8.7,8.7,0,0,0,12.5,39q1.4,2.1,4.8,2.1a6,6,0,0,0,4.2-1.4,6.5,6.5,0,0,0,1.7-4.8H17.3V32.8h8.3v10H23.9l-.6-2.4a8.7,8.7,0,0,1-2.3,2,8.6,8.6,0,0,1-4.2.9A8.3,8.3,0,0,1,11,41.2a10.9,10.9,0,0,1-2.6-7.5,10.8,10.8,0,0,1,2.5-7.5,8.2,8.2,0,0,1,6.3-2.6A9.1,9.1,0,0,1,21.8,24.6Z" transform="translate(-7.1 -0.3)"/><path d="M31.5,29.1v9.1a4.7,4.7,0,0,0,.3,1.7,2.2,2.2,0,0,0,2.3,1.3A3.2,3.2,0,0,0,37.4,39a8.1,8.1,0,0,0,.5-3.1V29.1h2.3V42.8H38v-2a6.9,6.9,0,0,1-1.1,1.3,5.2,5.2,0,0,1-3.2,1.1c-2,0-3.3-.6-4-2a5.5,5.5,0,0,1-.6-2.8V29.1Z" transform="translate(-7.1 -0.3)"/><path d="M43.8,24h2.3V42.8H43.8Z" transform="translate(-7.1 -0.3)"/><path d="M50.9,38.5a3.9,3.9,0,0,0,.6,1.8,3.8,3.8,0,0,0,3,1.1,5.9,5.9,0,0,0,2.3-.5,2.2,2.2,0,0,0,1-1.8,1.3,1.3,0,0,0-.8-1.3l-2-.7-1.8-.4a8.2,8.2,0,0,1-2.6-1,3,3,0,0,1-1.5-2.6A4.1,4.1,0,0,1,50.5,30a5.8,5.8,0,0,1,3.8-1.2,5.2,5.2,0,0,1,4.4,1.8,3.8,3.8,0,0,1,.9,2.5H57.4a2.4,2.4,0,0,0-.5-1.4,3.6,3.6,0,0,0-2.8-1,3.5,3.5,0,0,0-2,.5,2,2,0,0,0-.6,1.4,1.6,1.6,0,0,0,.8,1.4l1.6.6,1.5.3a9.3,9.3,0,0,1,3.3,1.2A3.1,3.1,0,0,1,60,38.9,4.4,4.4,0,0,1,58.7,42a6,6,0,0,1-4.3,1.4c-2,0-3.5-.5-4.3-1.4a5.2,5.2,0,0,1-1.4-3.5Z" transform="translate(-7.1 -0.3)"/><path d="M62.7,24H65v7a5.4,5.4,0,0,1,1.5-1.5,4.2,4.2,0,0,1,2.7-.7c2,0,3.4.7,4.1,2.1a6.5,6.5,0,0,1,.5,3.1v8.8H71.5V34.2a4.1,4.1,0,0,0-.4-2.2c-.4-.8-1.2-1.1-2.4-1.1a4.1,4.1,0,0,0-2.6.9c-.7.7-1.1,1.9-1.1,3.8v7.2H62.7Z" transform="translate(-7.1 -0.3)"/><path d="M84.6,34.5a1.4,1.4,0,0,0,1.1-.6,2.8,2.8,0,0,0,.1-.9,1.9,1.9,0,0,0-.8-1.7,5,5,0,0,0-2.4-.6,3.2,3.2,0,0,0-2.6,1,3,3,0,0,0-.5,1.6H77.3A4,4,0,0,1,79,29.8a5.8,5.8,0,0,1,3.6-1,7.5,7.5,0,0,1,3.9.9A3.1,3.1,0,0,1,88,32.6v7.9a1.4,1.4,0,0,0,.2.6l.6.2h.8V43l-.9.2H88a1.9,1.9,0,0,1-1.7-.8,2,2,0,0,1-.4-1.3,6.5,6.5,0,0,1-2.1,1.6,5.9,5.9,0,0,1-2.9.7,4.3,4.3,0,0,1-3.1-1.2,4.1,4.1,0,0,1,0-5.8h0A6.2,6.2,0,0,1,80.9,35Zm-4.9,6.3a3.7,3.7,0,0,0,1.8.5,5.9,5.9,0,0,0,2.3-.5,3.2,3.2,0,0,0,1.9-3.1V35.9l-1,.4-1.3.3H82a6,6,0,0,0-1.9.6,2.1,2.1,0,0,0-1.1,2A2.4,2.4,0,0,0,79.7,40.8Z" transform="translate(-7.1 -0.3)"/><path d="M91.8,29.1H94v2a9.1,9.1,0,0,1,2.1-1.8,6.9,6.9,0,0,1,2.4-.5,4.2,4.2,0,0,1,3.9,2.1A6.6,6.6,0,0,1,103,34v8.8h-2.4V34.2a6.4,6.4,0,0,0-.3-2A2.2,2.2,0,0,0,98,30.9l-1.3.2A3.4,3.4,0,0,0,95,32.2a3.7,3.7,0,0,0-.7,1.4,14.9,14.9,0,0,0-.2,2.1v7.1H91.8Z" transform="translate(-7.1 -0.3)"/><path d="M108.4,36.8a4.8,4.8,0,0,0,.7,2.6c.9,1.2,2.3,1.8,4.5,1.8a7.5,7.5,0,0,0,2.6-.4,2.9,2.9,0,0,0,2.3-2.8,2.6,2.6,0,0,0-1-2.2,9.8,9.8,0,0,0-3-1.1l-2.6-.6a20.6,20.6,0,0,1-3.5-1.2,4,4,0,0,1-1.8-3.6,5.8,5.8,0,0,1,1.7-4.1,7.5,7.5,0,0,1,5-1.6,8.1,8.1,0,0,1,5,1.4,5,5,0,0,1,2.1,4.6H118a4.1,4.1,0,0,0-.8-2.4,5.3,5.3,0,0,0-4-1.4,4.6,4.6,0,0,0-3.2.9,3,3,0,0,0-1,2.2,2.2,2.2,0,0,0,1.2,2,19.3,19.3,0,0,0,3.4,1.1l2.6.6a7.9,7.9,0,0,1,3,1.2,4.3,4.3,0,0,1,1.7,3.8,4.6,4.6,0,0,1-2.2,4.4,10.8,10.8,0,0,1-5.3,1.4,7.8,7.8,0,0,1-5.5-1.8,6.1,6.1,0,0,1-1.9-4.8Z" transform="translate(-7.1 -0.3)"/><path d="M124.3,25.3h2.4v3.8h2.1V31h-2.1v9c0,.4.1.8.4.9l.9.2h.8v1.8l-.8.2h-.9a2.4,2.4,0,0,1-2.2-.9,3.9,3.9,0,0,1-.6-2.1V31h-1.8V29.1h1.8Z" transform="translate(-7.1 -0.3)"/><path d="M133.4,29.1v9.1a3.3,3.3,0,0,0,.4,1.7,2.2,2.2,0,0,0,2.3,1.3,3.1,3.1,0,0,0,3.2-2.2,6.5,6.5,0,0,0,.5-3.1V29.1h2.3V42.8h-2.2v-2a6.9,6.9,0,0,1-1.1,1.3,5.2,5.2,0,0,1-3.2,1.1c-2,0-3.3-.6-4-2a5.5,5.5,0,0,1-.6-2.8V29.1Z" transform="translate(-7.1 -0.3)"/><path d="M153.3,29.6a5.7,5.7,0,0,1,1.4,1.3V24h2.2V42.8h-2.1V40.9a4.4,4.4,0,0,1-1.9,1.9,7,7,0,0,1-2.5.5,5.1,5.1,0,0,1-4-1.9,7.3,7.3,0,0,1-1.7-5.1,8.7,8.7,0,0,1,1.6-5.2,4.7,4.7,0,0,1,4.3-2.2A4.2,4.2,0,0,1,153.3,29.6Zm-5.2,10.2a3.2,3.2,0,0,0,3,1.5,2.9,2.9,0,0,0,2.6-1.4,6,6,0,0,0,1.1-3.9,6,6,0,0,0-1.1-3.9,3.2,3.2,0,0,0-2.6-1.2,3.2,3.2,0,0,0-2.8,1.3,6,6,0,0,0-1.1,3.9A7.8,7.8,0,0,0,148.1,39.8Z" transform="translate(-7.1 -0.3)"/><path d="M160.3,24h2.3v2.7h-2.3Zm0,5.2h2.3V42.8h-2.3Z" transform="translate(-7.1 -0.3)"/><path d="M176.1,30.5a7.1,7.1,0,0,1,1.8,5.2,8.9,8.9,0,0,1-1.6,5.5c-1,1.4-2.7,2.1-5,2.1a5.5,5.5,0,0,1-4.5-1.9,7.9,7.9,0,0,1-1.6-5.1,8.4,8.4,0,0,1,1.7-5.5,5.8,5.8,0,0,1,4.7-2.1A6.3,6.3,0,0,1,176.1,30.5Zm-1.4,9.1a7.3,7.3,0,0,0,.8-3.8,8.7,8.7,0,0,0-.6-3.2,3.5,3.5,0,0,0-3.3-1.9,3.3,3.3,0,0,0-3.1,1.7,7.5,7.5,0,0,0-1,3.8,6.9,6.9,0,0,0,1,3.7,3.3,3.3,0,0,0,3,1.4,3.1,3.1,0,0,0,3.2-1.7Z" transform="translate(-7.1 -0.3)"/><path d="M12.4,5.2H7.1V.3H23.5V5.2H18.2v14H12.4Z" transform="translate(-7.1 -0.3)" fill="#e62b1e"/><path d="M24.4.3H40.3V5.2H30.2V7.5H40.3V12H30.2v2.4H40.3v4.8H24.4Z" transform="translate(-7.1 -0.3)" fill="#e62b1e"/><path d="M41.3.3h9.5c6.3,0,8.5,4.7,8.5,9.4s-3,9.5-9.6,9.5H41.3Zm5.8,14.1h2.3c3.6,0,4.1-3,4.1-4.7S53.2,5.2,49,5.2H47.1Z" transform="translate(-7.1 -0.3)" fill="#e62b1e"/><path d="M67.7,11.9,65.9,9l-1.7,2.9H59.9L64,6,60.1.3h4.2l1.6,2.8L67.6.3h4.2L67.9,6,72,11.9Z" transform="translate(-7.1 -0.3)" fill="#e62b1e"/></svg>