<svg id="Layer_1" data-name="Layer 1" xmlns="http://www.w3.org/2000/svg" width="65.9" height="40.1" viewBox="0 0 65.9 40.1"><g id="CNI_Logo" data-name="CNI Logo"><rect x="56.7" y="0.1" width="8.8" height="31.72" fill="#ea2127"/><rect x="43.5" y="0.1" width="8.3" height="31.72" fill="#ea2127"/><rect x="25" y="0.1" width="8.1" height="31.72" fill="#ea2127"/><rect x="35.4" y="0.2" width="7.3" height="32.57" transform="translate(-3.6 22) rotate(-31.1)" fill="#ea2127"/><path d="M21.7,32.1h-.1c-3.9.1-7.8.5-11.5-1.2C4.1,28.1.8,23.3.7,16.7a15.7,15.7,0,0,1,14-16A46.8,46.8,0,0,1,21.2.6h.5V9.8c-.3.2-.5.1-.8.1s-3.3-.1-5,.1a6.4,6.4,0,0,0-5.8,6.9,6.3,6.3,0,0,0,6.2,6h4.5a1.5,1.5,0,0,1,.9.2Z" transform="translate(-0.7 -0.5)" fill="#ea2127"/><path d="M4.7,40.4l-1.3.2A2.2,2.2,0,0,1,1,38.2a2.4,2.4,0,0,1,2.5-2.5l1.2.2-.2.5-.9-.2a2,2,0,0,0-.1,3.9l1-.2Z" transform="translate(-0.7 -0.5)" fill="#ea2127"/><path d="M6.9,40.5v-.4h0a1.3,1.3,0,0,1-1.1.5,1,1,0,0,1-1.1-1c0-.8.8-1.3,2.1-1.3h0a.7.7,0,0,0-.8-.8l-.9.2v-.4A2,2,0,0,1,6.1,37c1.1,0,1.3.7,1.3,1.4v1.3c0,.3.1.6.1.8Zm-.1-1.7c-.6,0-1.4.1-1.4.8a.5.5,0,0,0,.6.6.9.9,0,0,0,.8-.6v-.8Z" transform="translate(-0.7 -0.5)" fill="#ea2127"/><path d="M8.1,40.5v-5h.6v2.1h0A1.7,1.7,0,0,1,9.9,37c.9,0,1.5.7,1.5,1.8a1.6,1.6,0,0,1-1.6,1.8A1.1,1.1,0,0,1,8.7,40H8.6v.5Zm.6-1.3v.2a.9.9,0,0,0,.9.7c.7,0,1-.5,1-1.3s-.3-1.3-1-1.3a.9.9,0,0,0-.9.8c-.1.1-.1.1-.1.2Z" transform="translate(-0.7 -0.5)" fill="#ea2127"/><path d="M11.8,35.5h.6v5h-.6Z" transform="translate(-0.7 -0.5)" fill="#ea2127"/><path d="M13.5,38.9a1.1,1.1,0,0,0,1.2,1.2c.4,0,.7,0,.9-.2v.5l-1.1.2a1.6,1.6,0,0,1-1.7-1.7c0-1.1.6-1.9,1.6-1.9a1.5,1.5,0,0,1,1.4,1.6v.3Zm1.8-.4c0-.4-.1-1-.8-1a.9.9,0,0,0-1,1Z" transform="translate(-0.7 -0.5)" fill="#ea2127"/><path d="M17.5,40.5V35.7h.7l1.6,2.5a10.9,10.9,0,0,1,.8,1.5h0v-4h.5v4.8h-.6L19,38.1a12.9,12.9,0,0,1-.9-1.6h0v4Z" transform="translate(-0.7 -0.5)" fill="#ea2127"/><path d="M22.2,38.9a1.1,1.1,0,0,0,1.2,1.2c.4,0,.7,0,.9-.2l.2.5a3.3,3.3,0,0,1-1.2.2,1.6,1.6,0,0,1-1.7-1.7c0-1.1.6-1.9,1.6-1.9a1.5,1.5,0,0,1,1.5,1.6.4.4,0,0,1-.1.3Zm1.8-.4a.8.8,0,0,0-.8-1c-.7,0-.9.5-1,1Z" transform="translate(-0.7 -0.5)" fill="#ea2127"/><path d="M25.3,37.1l.5,1.7a5.2,5.2,0,0,1,.2,1.1h.1a3.8,3.8,0,0,1,.3-1l.5-1.8h.6l.5,1.7.3,1.1h0l.3-1.1.5-1.7h.6l-1.1,3.4H28l-.5-1.6-.3-1.1h0l-.3,1.1-.6,1.6h-.6l-1-3.4Z" transform="translate(-0.7 -0.5)" fill="#ea2127"/><path d="M29.8,39.9l.9.2c.4,0,.6-.2.6-.5s-.1-.4-.6-.6a1.1,1.1,0,0,1-.9-1A1.1,1.1,0,0,1,31,37l.8.2v.5l-.7-.2c-.4,0-.6.2-.6.5s.2.4.6.5,1,.6,1,1.1-.5,1-1.3,1l-1-.2Z" transform="translate(-0.7 -0.5)" fill="#ea2127"/><path d="M34.2,35.7v4.8h-.6V35.7Z" transform="translate(-0.7 -0.5)" fill="#ea2127"/><path d="M35,38v-.9h.5v.6h.1a1,1,0,0,1,1.1-.7c.5,0,1.2.3,1.2,1.5v2h-.6V38.6c0-.6-.2-1.1-.8-1.1a.8.8,0,0,0-.8.7.4.4,0,0,0-.1.3v2H35Z" transform="translate(-0.7 -0.5)" fill="#ea2127"/><path d="M39.3,36.1v1h.9v.5h-.9v1.8c0,.5.1.7.5.7h.4v.4h-.6a.9.9,0,0,1-.7-.3,1.3,1.3,0,0,1-.2-.8V37.6h-.5v-.5h.5v-.8Z" transform="translate(-0.7 -0.5)" fill="#ea2127"/><path d="M40.9,38.9a1.1,1.1,0,0,0,1.2,1.2c.4,0,.7,0,.9-.2v.5l-1.1.2a1.6,1.6,0,0,1-1.7-1.7c0-1.1.6-1.9,1.6-1.9a1.5,1.5,0,0,1,1.4,1.6v.3Zm1.8-.4c0-.4-.1-1-.9-1a.9.9,0,0,0-.9,1Z" transform="translate(-0.7 -0.5)" fill="#ea2127"/><path d="M43.7,38.2V37.1h.6v.7h0a1.1,1.1,0,0,1,1-.8h.2v.6h-.3c-.4,0-.7.3-.8.8v2.1h-.7Z" transform="translate(-0.7 -0.5)" fill="#ea2127"/><path d="M45.8,38c0-.3-.1-.6-.1-.9h.6v.6h0a1.3,1.3,0,0,1,1.2-.7c.5,0,1.2.3,1.2,1.5v2h-.6V38.6c0-.6-.2-1.1-.8-1.1a1,1,0,0,0-.9.7v2.3h-.6Z" transform="translate(-0.7 -0.5)" fill="#ea2127"/><path d="M51.3,40.5v-.4h0a1.3,1.3,0,0,1-1.1.5.9.9,0,0,1-1-1c0-.8.7-1.3,2.1-1.3h0a.7.7,0,0,0-.8-.8l-.9.2-.2-.4a2.1,2.1,0,0,1,1.2-.3,1.2,1.2,0,0,1,1.3,1.4v2.1Zm-.1-1.7c-.7,0-1.5.1-1.5.8a.6.6,0,0,0,.6.6.8.8,0,0,0,.8-.6.3.3,0,0,0,.1-.2Z" transform="translate(-0.7 -0.5)" fill="#ea2127"/><path d="M53.2,36.1v1h.9v.5h-.9v1.8c0,.5.1.7.4.7H54v.4h-.5a.9.9,0,0,1-.7-.3c-.2-.1-.2-.4-.2-.8V37.6H52v-.5h.6v-.8Z" transform="translate(-0.7 -0.5)" fill="#ea2127"/><path d="M55.1,36.1a.4.4,0,0,1-.4.4.4.4,0,0,1,0-.8A.4.4,0,0,1,55.1,36.1Zm-.7,4.4V37.1h.7v3.4Z" transform="translate(-0.7 -0.5)" fill="#ea2127"/><path d="M58.9,38.8a1.7,1.7,0,0,1-1.8,1.8,1.6,1.6,0,0,1-1.6-1.8,1.7,1.7,0,1,1,3.4,0Zm-2.8,0a1.2,1.2,0,0,0,1.1,1.3c.6,0,1-.5,1-1.3s-.3-1.3-1-1.3A1.2,1.2,0,0,0,56.1,38.8Z" transform="translate(-0.7 -0.5)" fill="#ea2127"/><path d="M59.3,38v-.9h.5v.6h0A1.2,1.2,0,0,1,61,37c.5,0,1.2.3,1.2,1.5v2h-.6V38.6c0-.6-.2-1.1-.8-1.1a.8.8,0,0,0-.8.7.4.4,0,0,0-.1.3v2h-.6Z" transform="translate(-0.7 -0.5)" fill="#ea2127"/><path d="M64.8,40.5v-.4h0a1.3,1.3,0,0,1-1.1.5,1,1,0,0,1-1.1-1c0-.8.8-1.3,2.1-1.3h0a.7.7,0,0,0-.8-.8l-.9.2v-.4A2,2,0,0,1,64,37c1.1,0,1.3.7,1.3,1.4v1.3c0,.3.1.6.1.8Zm-.1-1.7c-.7,0-1.4.1-1.4.8a.5.5,0,0,0,.6.6.9.9,0,0,0,.8-.6v-.8Z" transform="translate(-0.7 -0.5)" fill="#ea2127"/><path d="M66,35.5h.6v5H66Z" transform="translate(-0.7 -0.5)" fill="#ea2127"/></g></svg>