<svg id="Layer_1" data-name="Layer 1" xmlns="http://www.w3.org/2000/svg" width="95.5" height="25.4" viewBox="0 0 95.5 25.4"><g id="layer1"><path id="path5526" d="M22.3,18.8,24,23.6A18.9,18.9,0,0,1,15,26C6.2,26,1.5,19.9,1.5,13.4S6.3.6,15.2.6a17.4,17.4,0,0,1,8.6,2.3L21.5,7.3a13.6,13.6,0,0,0-5.9-1.5c-5.1,0-8.2,3.2-8.2,7.6s2.9,7.4,8,7.4A14.7,14.7,0,0,0,22.3,18.8Z" transform="translate(-1.5 -0.6)" fill="#bfae62"/><path id="path5548" d="M24.7,13.4C24.7,6.3,30.1.6,38.4.6a20.8,20.8,0,0,1,9.1,2.2L45.2,7.2a17.2,17.2,0,0,0-6.5-1.4c-5.4,0-8.1,3.4-8.1,7.7s2.8,7.3,8,7.3a11.2,11.2,0,0,0,4.1-.8V13.1h5.1c.1,0,.2.2.2.3v9.7S44.7,26,38.2,26,24.7,20.8,24.7,13.4Z" transform="translate(-1.5 -0.6)" fill="#bfae62"/><path id="path5550" d="M57.4,25.7V5.7H49.3V.9H71.1V5.7h-8v20Z" transform="translate(-1.5 -0.6)" fill="#bfae62"/><path id="path5552" d="M73.5,25.7V.9h4.4a1,1,0,0,1,.9.6L91.4,16.3V.9H97V25.7H92.7c-.5,0-.7-.3-1-.7L79.1,10.1V25.7Z" transform="translate(-1.5 -0.6)" fill="#bfae62"/></g></svg>