<svg id="Layer_1" data-name="Layer 1" xmlns="http://www.w3.org/2000/svg" width="52.9" height="52.8" viewBox="0 0 52.9 52.8"><path d="M34.3,56.9c1.1-1.6.8-3,1.4-4.5s2-1.6,3.3.4c-2.1,1.6-1.1,4.3-2.5,6.4s-4.8.4-7.2.3c-1.2-1.8-.9-3.8-1.7-5.5l-5.4-2.4c-2,.2-3.1,2.3-5.2,2.5s-3.3-3.4-5.1-4.6c.2-2.4,2.2-3.5,2.6-5.5l-2.1-5.3C10.9,37.2,8.7,38,7,36.8s-.6-4.6-.3-7,3.7-.9,5.5-1.8l2.5-5.6c-.4-1.9-2.2-3-2.7-5.1a20.6,20.6,0,0,1,5.1-5.1c2,.5,3.2,2.2,5,2.9l5.4-2.3c1.4-1.5.7-3.7,1.8-5.5s4.8-.3,6.9-.2c1.7,1.7.9,3.9,2.1,5.7l5.6,2.4,4.5-2.9c2.4,1,3.7,3.2,5.5,4.8-.3,2.2-2.1,3.5-2.9,5.4l2.5,5.7,5.2,1.3c.8,2.5.5,4.9.2,7.5-2.5.7-4.9,1.8-7.8.8,1.1-2.7,3.9-1.3,5.6-3a4.4,4.4,0,0,0-.1-3.2c-1.5-1.1-3.5-.4-5.1-1.7s-1.7-5-3.1-7.1c.3-2.1,2-3.1,2.5-4.8s-1.4-1.9-2.2-2.8-2.9,2.1-4.9,2.5-4.6-2.4-7-2.7-1.1-3.6-1.9-5.2-2.3-.4-3.5-.4c-1.1,1.5-.7,3.5-1.8,5.1l-7.4,3.1c-1.8-.1-2.8-1.8-4.5-2.4s-2.1,1.4-2.9,2.6L17.5,22l-3.3,7.8c-1.3,1.2-3.2.6-4.6,1.5s-.4,2.3-.5,3.4c1.5,1.1,3.3.8,4.9,1.7s1.7,5.3,3.4,7.4c-.4,2.1-2.1,3.1-2.6,4.8a4.8,4.8,0,0,0,2.7,2.5l4.1-2.5c2.7,1,5.1,2.6,7.7,3.1s.9,3.6,1.9,5.1A4.2,4.2,0,0,0,34.3,56.9Z" transform="translate(-6.3 -6.9)" fill="#023d80"/><path d="M57.7,48.3a9.2,9.2,0,1,1-8.9-9.1A9.2,9.2,0,0,1,57.7,48.3Zm-6.5,1.6c.8-1.5,2.4-1.5,2.7-2.9s-2.7.1-3.8-1-.3-2.4-1.8-2.8-.6,2.4-1.6,3.2l-3.6.5c.7,1.5,2.2,1.7,2.8,3.6s-1.2,1.6-.6,2.9,2-1.8,3.1-1.7,2.2,1.8,3.8,1.7Z" transform="translate(-6.3 -6.9)" fill="#023d80"/><path d="M28.4,35.3c4.4,2,4.4,2,8.8.1l6.4,3.4a21,21,0,0,0-4.5,4.4H21.6a5.1,5.1,0,0,1,.3-4.2C24,37.6,26.5,37,28.4,35.3Z" transform="translate(-6.3 -6.9)" fill="#023d80"/><path d="M27.1,27.6a8,8,0,0,1,1-4.1,5,5,0,0,1,5.5-2.9c3,.3,5,3.1,5,6.7s-2.4,7.8-5.3,8-3.9-1.3-5-3.2A9.5,9.5,0,0,1,27.1,27.6Z" transform="translate(-6.3 -6.9)" fill="#023d80"/></svg>