<svg id="Layer_1" data-name="Layer 1" xmlns="http://www.w3.org/2000/svg" xmlns:xlink="http://www.w3.org/1999/xlink" width="161.5" height="21.3" viewBox="0 0 161.5 21.3"><defs><linearGradient id="linear-gradient" x1="-99.65" y1="61.58" x2="-99.43" y2="61.58" gradientTransform="matrix(50.34, 0, 0, -50.4, 5109.36, 3114.6)" gradientUnits="userSpaceOnUse"><stop offset="0" stop-color="#43c4dc"/><stop offset="0.07" stop-color="#3ebcd8"/><stop offset="0.27" stop-color="#29add0"/><stop offset="0.41" stop-color="#20a8ce"/><stop offset="0.53" stop-color="#24a4cd"/><stop offset="0.71" stop-color="#2c9aca"/><stop offset="0.93" stop-color="#3789c5"/><stop offset="1" stop-color="#3983c4"/></linearGradient><radialGradient id="radial-gradient" cx="-99.49" cy="61.62" r="0.18" gradientTransform="matrix(50.34, 0, 0, -50.4, 5109.36, 3114.6)" gradientUnits="userSpaceOnUse"><stop offset="0" stop-color="#0d91ae" stop-opacity="0"/><stop offset="0.81" stop-color="#0d91ae" stop-opacity="0.87"/><stop offset="0.94" stop-color="#0d91ae"/></radialGradient><radialGradient id="radial-gradient-2" cx="-99.6" cy="61.64" r="0.2" gradientTransform="matrix(50.34, 0, 0, -50.4, 5109.36, 3114.6)" gradientUnits="userSpaceOnUse"><stop offset="0.02" stop-color="#0d91ae" stop-opacity="0"/><stop offset="0.33" stop-color="#0d90ae" stop-opacity="0.31"/><stop offset="0.57" stop-color="#0d8aaf" stop-opacity="0.56"/><stop offset="0.8" stop-color="#0e81b0" stop-opacity="0.8"/><stop offset="1" stop-color="#0f76b1"/></radialGradient><radialGradient id="radial-gradient-3" cx="-99.98" cy="74.58" r="0.14" gradientTransform="matrix(81, 0, 0, -93.56, 8198.2, 6989.84)" gradientUnits="userSpaceOnUse"><stop offset="0" stop-color="#c2c1bf"/><stop offset="1" stop-color="#23181b"/></radialGradient><radialGradient id="radial-gradient-4" cx="-99.87" cy="74.63" r="0.22" gradientTransform="matrix(80.99, 0, 0, -93.56, 8181.31, 6987.74)" xlink:href="#radial-gradient-3"/><linearGradient id="linear-gradient-2" x1="-96.73" y1="76.54" x2="-97.37" y2="76.45" gradientTransform="matrix(86.01, 0, 0, -92.17, 8377.19, 7061.93)" xlink:href="#linear-gradient"/><linearGradient id="linear-gradient-3" x1="-95.54" y1="76.57" x2="-96.2" y2="76.48" gradientTransform="matrix(83.21, 0, 0, -92.16, 8006.09, 7060.74)" xlink:href="#linear-gradient"/><linearGradient id="linear-gradient-4" x1="-97.64" y1="76.52" x2="-98.3" y2="76.43" gradientTransform="matrix(83.21, 0, 0, -92.17, 8182.29, 7061.93)" xlink:href="#linear-gradient"/><linearGradient id="linear-gradient-5" x1="-97.14" y1="76.32" x2="-97.04" y2="76.52" gradientTransform="matrix(86.01, 0, 0, -92.17, 8377.19, 7061.93)" gradientUnits="userSpaceOnUse"><stop offset="0" stop-color="#0f76b1"/><stop offset="0.26" stop-color="#0f7ab1" stop-opacity="0.74"/><stop offset="0.66" stop-color="#0e85b0" stop-opacity="0.34"/><stop offset="1" stop-color="#0d91ae" stop-opacity="0"/></linearGradient><linearGradient id="linear-gradient-6" x1="-96.18" y1="76.41" x2="-96.07" y2="76.62" gradientTransform="matrix(83.21, 0, 0, -92.16, 8006.09, 7060.74)" xlink:href="#linear-gradient-5"/><linearGradient id="linear-gradient-7" x1="-97.92" y1="76.26" x2="-97.81" y2="76.46" gradientTransform="matrix(83.21, 0, 0, -92.17, 8182.29, 7061.93)" xlink:href="#linear-gradient-5"/><linearGradient id="linear-gradient-8" x1="-97" y1="76.34" x2="-97.06" y2="76.47" gradientTransform="matrix(86.01, 0, 0, -92.17, 8377.19, 7061.93)" gradientUnits="userSpaceOnUse"><stop offset="0.06" stop-color="#0d91ae"/><stop offset="1" stop-color="#0d91ae" stop-opacity="0"/></linearGradient><linearGradient id="linear-gradient-9" x1="-95.96" y1="76.28" x2="-96.02" y2="76.41" gradientTransform="matrix(83.21, 0, 0, -92.16, 8006.09, 7060.74)" xlink:href="#linear-gradient-8"/><linearGradient id="linear-gradient-10" x1="-97.68" y1="76.43" x2="-97.74" y2="76.55" gradientTransform="matrix(83.21, 0, 0, -92.17, 8182.29, 7061.93)" xlink:href="#linear-gradient-8"/></defs><path d="M86,1.2a2,2,0,0,0-1.9,1.4L80.4,15.1,75.5,1.2H73.4a1.3,1.3,0,0,0-1.3,1L67.4,15.3,63.6,2.2a1.5,1.5,0,0,0-1.4-1H59.3l6.2,20h1.8a2.1,2.1,0,0,0,1.9-1.3L73.9,7.4l5.3,13.8h2.2a1.3,1.3,0,0,0,1.2-.9l6-19.1Zm47.7,0H131a1.2,1.2,0,0,0-1.2,1.2h0V21.2H141a1.9,1.9,0,0,0,1.9-2V17.6h-9.2ZM123.2,14.8a6.9,6.9,0,0,0,4.2-6.7,6.9,6.9,0,0,0-7.3-6.9h-8.4a1.2,1.2,0,0,0-1.2,1.2V21.2h1.8a2,2,0,0,0,2-2V15.3h4.3l4.9,5.9H128l-5.2-6.4Zm-3-3.2h-6V4.8h6a3.6,3.6,0,0,1,2.5,1.1,3.9,3.9,0,0,1,.7,2.3A3.2,3.2,0,0,1,120.2,11.6ZM151.5,1.2h-5.8a1.2,1.2,0,0,0-1.2,1.2V21.2h7c7.6,0,11-5,11-10S159.1,1.2,151.5,1.2Zm.4,16.4h-3.6V4.8h3.6a6.3,6.3,0,0,1,5,2.1,6.3,6.3,0,0,1,1.7,4.3A6.6,6.6,0,0,1,151.9,17.6Z" transform="translate(-1 -0.6)" fill="#423739" fill-rule="evenodd"/><path d="M103.9,11.2a5.5,5.5,0,1,1-5.4-5.5,5.5,5.5,0,0,1,5.4,5.5Z" transform="translate(-1 -0.6)" fill-rule="evenodd" fill="url(#linear-gradient)"/><path d="M103.9,11.2a5.5,5.5,0,1,1-5.4-5.5,5.5,5.5,0,0,1,5.4,5.5Z" transform="translate(-1 -0.6)" fill-rule="evenodd" fill="url(#radial-gradient)"/><path d="M103.9,11.2a5.5,5.5,0,1,1-5.4-5.5,5.5,5.5,0,0,1,5.4,5.5Z" transform="translate(-1 -0.6)" fill-rule="evenodd" fill="url(#radial-gradient-2)"/><path d="M102.1,1.1l-.9-.2c-4.5-1.2-9.3,3.8-9.8,9.5a7.5,7.5,0,0,1,2-4.2,7,7,0,0,1,5-2,7.1,7.1,0,0,1,5,2.1,7,7,0,0,1,2,4.9,2.2,2.2,0,0,1-.1.8c-.4,5.8-5.2,10.7-9.7,9.5l-.9-.2a11.3,11.3,0,0,0,3.6.6A10.5,10.5,0,0,0,109,11.2,10.2,10.2,0,0,0,102.1,1.1Z" transform="translate(-1 -0.6)" fill-rule="evenodd" fill="url(#radial-gradient-3)"/><path d="M98.5,18.2a7.2,7.2,0,0,1-6.1-3.4,7.5,7.5,0,0,1-1-3.6,2.2,2.2,0,0,1,.1-.8c.4-5.7,5.3-10.7,9.8-9.5l.8.2A10.9,10.9,0,0,0,87.9,11.2a10.3,10.3,0,0,0,7,10.1l.9.2c4.5,1.2,9.3-3.7,9.8-9.5A7.3,7.3,0,0,1,98.5,18.2Z" transform="translate(-1 -0.6)" fill-rule="evenodd" fill="url(#radial-gradient-4)"/><path d="M30.5,1.2H21.7a1.4,1.4,0,0,0-1.4,1.4V21.3h3.4a1.8,1.8,0,0,0,1.9-1.9V16.3h4.2l3.5,4.9h5.8L35,15.3l.5-.3a7.6,7.6,0,0,0,3.2-6.3C38.6,3.5,34.5,1.2,30.5,1.2Zm.1,10.2h-5V5.9h5a2.6,2.6,0,0,1,2.7,2.7,2.5,2.5,0,0,1-2.7,2.8Z" transform="translate(-1 -0.6)" fill-rule="evenodd" fill="url(#linear-gradient-2)"/><path d="M7.4,21.2h3.4a1.9,1.9,0,0,0,1.9-1.8V6h4.8a1.6,1.6,0,0,0,1.6-1.5V1.2H2a1,1,0,0,0-1,.9H1V6H7.4Z" transform="translate(-1 -0.6)" fill-rule="evenodd" fill="url(#linear-gradient-3)"/><path d="M45.7,21.2h3.4a1.8,1.8,0,0,0,1.8-1.8V6h4.8a1.6,1.6,0,0,0,1.6-1.5V1.2h-17a.9.9,0,0,0-1,.9h0V6h6.4Z" transform="translate(-1 -0.6)" fill-rule="evenodd" fill="url(#linear-gradient-4)"/><path d="M30.5,1.2H21.7a1.4,1.4,0,0,0-1.4,1.4V21.3h3.4a1.8,1.8,0,0,0,1.9-1.9V16.3h4.2l3.5,4.9h5.8L35,15.3l.5-.3a7.6,7.6,0,0,0,3.2-6.3C38.6,3.5,34.5,1.2,30.5,1.2Zm.1,10.2h-5V5.9h5a2.6,2.6,0,0,1,2.7,2.7,2.5,2.5,0,0,1-2.7,2.8Z" transform="translate(-1 -0.6)" fill-rule="evenodd" fill="url(#linear-gradient-5)"/><path d="M7.4,21.2h3.4a1.9,1.9,0,0,0,1.9-1.8V6h4.8a1.6,1.6,0,0,0,1.6-1.5V1.2H2a1,1,0,0,0-1,.9H1V6H7.4Z" transform="translate(-1 -0.6)" fill-rule="evenodd" fill="url(#linear-gradient-6)"/><path d="M45.7,21.2h3.4a1.8,1.8,0,0,0,1.8-1.8V6h4.8a1.6,1.6,0,0,0,1.6-1.5V1.2h-17a.9.9,0,0,0-1,.9h0V6h6.4Z" transform="translate(-1 -0.6)" fill-rule="evenodd" fill="url(#linear-gradient-7)"/><path d="M30.5,1.2H21.7a1.4,1.4,0,0,0-1.4,1.4V21.3h3.4a1.8,1.8,0,0,0,1.9-1.9V16.3h4.2l3.5,4.9h5.8L35,15.3l.5-.3a7.6,7.6,0,0,0,3.2-6.3C38.6,3.5,34.5,1.2,30.5,1.2Zm.1,10.2h-5V5.9h5a2.6,2.6,0,0,1,2.7,2.7,2.5,2.5,0,0,1-2.7,2.8Z" transform="translate(-1 -0.6)" fill-rule="evenodd" fill="url(#linear-gradient-8)"/><path d="M7.4,21.2h3.4a1.9,1.9,0,0,0,1.9-1.8V6h4.8a1.6,1.6,0,0,0,1.6-1.5V1.2H2a1,1,0,0,0-1,.9H1V6H7.4Z" transform="translate(-1 -0.6)" fill-rule="evenodd" fill="url(#linear-gradient-9)"/><path d="M45.7,21.2h3.4a1.8,1.8,0,0,0,1.8-1.8V6h4.8a1.6,1.6,0,0,0,1.6-1.5V1.2h-17a.9.9,0,0,0-1,.9h0V6h6.4Z" transform="translate(-1 -0.6)" fill-rule="evenodd" fill="url(#linear-gradient-10)"/></svg>