<svg id="Layer_1" data-name="Layer 1" xmlns="http://www.w3.org/2000/svg" width="253.8" height="20.7" viewBox="0 0 253.8 20.7"><path d="M37.2,10.9V1.6c0-.7.1-.7.7-.7h9.9a8,8,0,0,1,6.5,2.8,9.8,9.8,0,0,1,2.1,4.9,13.3,13.3,0,0,1-.9,7.6,8.4,8.4,0,0,1-6.1,4.5,15.8,15.8,0,0,1-3.8.3H38c-.8,0-.8,0-.8-.7Zm6.4.1v4.2c0,.4.1.6.5.6h2.3a3.5,3.5,0,0,0,3.5-2.6,8.2,8.2,0,0,0,.2-3.8,4.2,4.2,0,0,0-3.3-3.1H44.1c-.4,0-.5.2-.5.6Z" transform="translate(-1 -0.9)" fill="#e62b1e"/><path d="M19.3,10.9V1.7c0-.8,0-.8.8-.8H35.6c.7,0,.7,0,.7.7V5.5c.1.5-.1.6-.6.6H26.4c-.7,0-.7,0-.7.8s-.1,1.6,1.5,1.6h8.4c.7,0,.7,0,.7.7v3.6c.1.5-.1.6-.6.6H26.3c-.6,0-.6,0-.6.7s0,.7-.1,1.1.2.6.7.6c3-.1,6.1,0,9.2,0h.4c.3,0,.4.1.4.3v4.5c0,.3-.1.4-.4.4H20c-.7,0-.7,0-.7-.7Z" transform="translate(-1 -0.9)" fill="#e62b1e"/><path d="M9.8.9h8c.7,0,.7,0,.7.7V5.5c0,.6,0,.6-.6.6s-2.9.1-4.4,0-.6.2-.6.7V20.2c0,.8,0,.8-.8.8H7.4c-.8,0-.8,0-.8-.7V6.9c0-.8,0-.8-.7-.8H1.6C1.1,6.1,1,6,1,5.6V1.4c0-.4.1-.5.6-.5Z" transform="translate(-1 -0.9)" fill="#e62b1e"/><path d="M179.2,15h1.5c.4,0,.5.2.6.5a3,3,0,0,0,2.6,2.5,7.7,7.7,0,0,0,3.7-.2,2,2,0,0,0,1.5-2.3,1.5,1.5,0,0,0-.7-1.2,17,17,0,0,0-3.2-1l-4-1c-1.6-.6-2.9-1.4-3.4-3.1a5.7,5.7,0,0,1,3.5-7.3,10,10,0,0,1,7.4.1,5.7,5.7,0,0,1,3.8,5.1c0,.4-.1.5-.4.5H189c-.2,0-.4,0-.4-.3s-1.5-2.3-3.1-2.5a5.1,5.1,0,0,0-3.2.5,1.9,1.9,0,0,0-.9,1.9,1.8,1.8,0,0,0,1.2,1.5l4.2,1a21.9,21.9,0,0,1,3.4,1,4.8,4.8,0,0,1,2.9,5.6,5.8,5.8,0,0,1-4.3,4.8,11.4,11.4,0,0,1-8.3-.6,5.9,5.9,0,0,1-3.3-5c0-.3.1-.5.5-.5Z" transform="translate(-1 -0.9)"/><path d="M227.9,8.3V2.5c0-.7,0-.7.7-.7h2.6c.4,0,.6.1.6.6V20.3c0,.7,0,.7-.7.7h-2.6c-.4,0-.5-.1-.5-.5v-1h-.2c-1.6,2.3-6.1,2.6-8.3-.3a7.4,7.4,0,0,1-1.5-3.4,9.5,9.5,0,0,1,.6-6,5.7,5.7,0,0,1,5.5-3.5,4.4,4.4,0,0,1,3.1,1.3ZM221.8,14a5.2,5.2,0,0,0,.4,2.1,2.5,2.5,0,0,0,2.2,2,2.9,2.9,0,0,0,3.2-1.6,6.5,6.5,0,0,0,.4-3.4,6.3,6.3,0,0,0-.7-2.2,3,3,0,0,0-4.9.3A6.7,6.7,0,0,0,221.8,14Z" transform="translate(-1 -0.9)"/><path d="M246.8,6.4c4.2,0,6.9,2,7.7,5.4a7.9,7.9,0,0,1-1.4,7.1,6.9,6.9,0,0,1-6.6,2.4,6.4,6.4,0,0,1-4.7-2.2,8.1,8.1,0,0,1-1.8-4.5,7.7,7.7,0,0,1,2.3-6.4A6.9,6.9,0,0,1,246.8,6.4Zm3.9,7.5a5.5,5.5,0,0,0-.2-1.8,3,3,0,0,0-3-2.4,3,3,0,0,0-3.2,2.1,7.7,7.7,0,0,0-.3,3c.3,2.1,1.2,3.1,3.1,3.3a2.8,2.8,0,0,0,3.1-1.7A5.3,5.3,0,0,0,250.7,13.9Z" transform="translate(-1 -0.9)"/><path d="M212.2,19.4a4.7,4.7,0,0,1-1.9,1.5,5.3,5.3,0,0,1-6.1-1.1,5.4,5.4,0,0,1-1.1-3.5v-9a.5.5,0,0,1,.6-.6h2.7c.5,0,.7.2.7.7-.1,2.7,0,5.5-.1,8.2a2.2,2.2,0,0,0,1.8,2.5,2.7,2.7,0,0,0,3.1-1.7,2.7,2.7,0,0,0,.3-1.2V7.5c0-.7,0-.8.7-.8h2.6a.5.5,0,0,1,.6.6V20.4c0,.5-.1.7-.6.6h-2.6c-.4,0-.6-.1-.6-.5a4.1,4.1,0,0,0,0-1.1Z" transform="translate(-1 -0.9)"/><path d="M90.9,18.2c-.2,0-.2.1-.3.2a6.8,6.8,0,0,1-5,3,9.3,9.3,0,0,1-5.7-.7A7.7,7.7,0,0,1,76,15.9a13.8,13.8,0,0,1,.4-10,7.8,7.8,0,0,1,7.1-4.7A8.9,8.9,0,0,1,89,2.3a7.2,7.2,0,0,1,3.3,4.5c.1.4,0,.6-.5.6s-1.2,0-1.8-1.2a5.4,5.4,0,0,0-4.4-3.3,6.8,6.8,0,0,0-5.8,1.5,6.9,6.9,0,0,0-2.1,3.7,14.2,14.2,0,0,0-.3,5.8,7,7,0,0,0,5.2,5.8c2.7.5,5.3-.1,6.9-2.5a9,9,0,0,0,1.3-4c0-.4-.2-.4-.6-.4H85c-.7,0-.8-.1-.8-.8v-.5a.5.5,0,0,1,.5-.5h7.5c.3,0,.4.2.4.5v9.1c0,.3-.1.4-.4.4s-1.2.1-1.3-1.1Z" transform="translate(-1 -0.9)"/><path d="M59.6.9h1.8a.5.5,0,0,1,.6.4c.4.7.9,1.4,1.3,2.2s.2.2.4-.1l1.2-2a.7.7,0,0,1,.8-.5h3.5c.2,0,.4-.1.4.1s0,.3-.1.4L65.9,6.5a.7.7,0,0,0,0,.9l3.7,5.4c.1.2.3.3.2.5h-4a1,1,0,0,1-.7-.4,17.6,17.6,0,0,0-1.4-2.3c-.2-.4-.3-.3-.5,0a25.3,25.3,0,0,1-1.3,2.2.8.8,0,0,1-.7.5h-4c-.1-.2.1-.4.2-.5l3.5-5.2A.9.9,0,0,0,61,6.4c-1.2-1.6-2.3-3.3-3.5-5,0-.1-.2-.2-.1-.4s.3-.1.4-.1Z" transform="translate(-1 -0.9)" fill="#e62b1e"/><path d="M197.4,3h1.4c.4,0,.5.1.5.4V6.2c0,.4.1.6.5.5H201c.4,0,.7.2.6.7V9q.2.6-.6.6h-1.2c-.4,0-.5.2-.5.5v7.4c0,.5.2.7.7.8a2.4,2.4,0,0,0,1.2,0c.3,0,.4.1.4.4v2.2a.4.4,0,0,1-.4.4,20.5,20.5,0,0,1-3.5-.1,2.6,2.6,0,0,1-2.3-2.8V10.2c0-.5-.1-.7-.6-.7s-1.4.3-1.4-1.4-.1-1.4,1.4-1.4.7-.1.6-.6V3.7c0-.7,0-.7.7-.7Z" transform="translate(-1 -0.9)"/><path d="M152.5,14.6v4.3c.1.8.4,1,1.1.8s.5-.2.6.2.2.9-.2,1.1a2.6,2.6,0,0,1-2.4-.1,1.6,1.6,0,0,1-.7-1.1c-.1-.4-.1-.5-.5-.2a7.1,7.1,0,0,1-5.2,1.8,4.4,4.4,0,0,1-3.7-2.1,3.7,3.7,0,0,1,1.9-5.4,13.1,13.1,0,0,1,3.4-.9l3-.4c.6-.2.9-.5.9-1.1a2.6,2.6,0,0,0-.9-2.6l-1-.4a5.6,5.6,0,0,0-3.6.2,2.9,2.9,0,0,0-1.7,2c0,.3,0,.7-.3.7a2.2,2.2,0,0,1-1.4,0c-.2-.1-.1-.3-.1-.5A4.5,4.5,0,0,1,145.5,7a7.4,7.4,0,0,1,4.4.1,3.8,3.8,0,0,1,2.6,3.6Zm-1.7,1V14.3c0-.3-.1-.4-.4-.3a20.3,20.3,0,0,1-4.2.6,4.9,4.9,0,0,0-2.3.8,2.2,2.2,0,0,0-1,2.2,2.1,2.1,0,0,0,1.3,1.9,5.4,5.4,0,0,0,5.2-.8A3.4,3.4,0,0,0,150.8,15.6Z" transform="translate(-1 -0.9)"/><path d="M129.5,8.7l1.1-.9a5.4,5.4,0,0,1,7,.4,3.6,3.6,0,0,1,1.1,2.6v9.7c0,.4-.1.5-.5.5s-1.2.2-1.2-1.1V11.8a4.9,4.9,0,0,0-.1-1.2,2.8,2.8,0,0,0-2.8-2.3,4.6,4.6,0,0,0-3.5,1.2,3.7,3.7,0,0,0-1.1,2.7c-.1,2.6-.1,5.2-.1,7.8,0,1,0,1-1,1s-.8,0-.8-.8V2.4c0-.2-.1-.6.2-.7a2,2,0,0,1,1.5,0c.2.1.1.4.1.6V8.2A1.1,1.1,0,0,0,129.5,8.7Z" transform="translate(-1 -0.9)"/><path d="M119.5,8.3a4.1,4.1,0,0,0-2.1.5,2,2,0,0,0,.1,3.4,8.8,8.8,0,0,0,3,1,13.5,13.5,0,0,1,3.5,1.4,3.5,3.5,0,0,1,0,5.6,7.2,7.2,0,0,1-5.7,1,4.6,4.6,0,0,1-3.9-3.9c-.1-.6,0-.6.5-.7h.3c.8,0,.8,0,1.1.8a3.3,3.3,0,0,0,3.3,2.4,5,5,0,0,0,2.7-.5,2,2,0,0,0,1.2-1.6,1.7,1.7,0,0,0-1-2,14.2,14.2,0,0,0-3.5-1.1,10.5,10.5,0,0,1-2.9-1.2,3.4,3.4,0,0,1-.3-5.3,5.6,5.6,0,0,1,4.3-1.3A5,5,0,0,1,123.6,8a4.7,4.7,0,0,1,1.4,2.7c0,.3-.1.5-.4.5h-.9c-.3,0-.4-.2-.5-.4C122.5,8.8,121.7,8.3,119.5,8.3Z" transform="translate(-1 -0.9)"/><path d="M105.2,19.3a6.7,6.7,0,0,1-1.4,1.1c-1.9,1.5-5.3,1.3-6.8-.5a3.9,3.9,0,0,1-1.1-2.7V7.5c0-.3.1-.4.4-.4s1.3-.2,1.3,1.3v8.2c0,2.1,1.1,3.1,3.2,3.2a4.1,4.1,0,0,0,4.3-4.2c.1-2.5.1-5,.1-7.6,0-.9,0-.9.9-.9s.9,0,.9.9V20.2c0,.8,0,.8-.8.8h-.4q-.7.2-.6-.6Z" transform="translate(-1 -0.9)"/><path d="M155.8,14.1V7.7c0-.4.1-.6.6-.6s1.1-.1,1.2,1.1-.1.4,0,.5.3-.2.4-.3a5.6,5.6,0,0,1,7.3-.6,3.8,3.8,0,0,1,1.6,3v9.7c0,.4-.1.5-.5.5s-1.2.2-1.2-1.2v-8a7.7,7.7,0,0,0-.2-1.5,2.5,2.5,0,0,0-2-1.8c-3.2-.7-5.4,1.2-5.4,4.4s-.1,4.9-.1,7.3c0,.8,0,.8-.7.8s-1,0-1-.9Z" transform="translate(-1 -0.9)"/><path d="M238.2,13.9v6.5c0,.5-.1.7-.6.6h-2.7c-.4,0-.6-.1-.6-.5V7.3c0-.4.2-.6.5-.6h2.8a.5.5,0,0,1,.6.6Z" transform="translate(-1 -0.9)"/><path d="M110.2,11.3v-9c0-.6,0-.7.7-.7h.5c.4,0,.5.2.5.5V19.9c0,1.2-.2,1.3-1.4,1.1s-.3-.2-.3-.5V11.3Z" transform="translate(-1 -0.9)"/><path d="M236.3,5.2h-1.5c-.3,0-.5-.1-.5-.5V2.1c0-.3.1-.5.5-.5h2.9c.4,0,.5.2.5.5V4.7c0,.4-.2.5-.5.5Z" transform="translate(-1 -0.9)"/></svg>