<svg id="Layer_1" data-name="Layer 1" xmlns="http://www.w3.org/2000/svg" width="172.2" height="34.2" viewBox="0 0 172.2 34.2"><path d="M167,20.2v6.1c0,.3.1.8,1.4,1.1s-2.2,2.4-2.7,2.2-1.2-1.9-2.2-1.7a.4.4,0,0,1-.2-.5c.1-.2.9-.6.9-1.1V18.6a.9.9,0,0,0-1.1-.8c-.6,0-.7-.2-.2-.6l1.8-1.5c1.1-.8,2.3,1.4,2.3,1.9v.3c.2.6,2.8-3.1,3.3-2.2a6.7,6.7,0,0,0,2.5,1.9c.4.2.2.4-.1.6a4.2,4.2,0,0,1-2.2,1.1c-.8,0-1.9-.7-2.7-.1S167,19.8,167,20.2Zm-13.2,9.4c-1.2,0-3.4-1.1-3.4-3.1s2.1-3.5,3.7-4.9.3-.3,0-.6-2.2-1.9-2.6-3.3.4-2.3,1.8-1.9,1.1,1.5,1.1,2.1,3.6-1.2,4.4-2.1.7-.2.9,0a5,5,0,0,0,1,1.1c.4.3,1,.6.8.9s-.9.9-.9,1.3v6.5c.2,1.7,2.2,1.8,1.1,2.9a5.8,5.8,0,0,1-1.5,1.1c-.8.3-2-1.4-2.2-2S154.6,29.6,153.8,29.6Zm1.2-2.3a1.7,1.7,0,0,1-1.8-1.5,3.6,3.6,0,0,1,1.9-3.5c.1-.2.6.4.8.5s.8.2.4-.4-1-1.5-1.6-2.2-.3-.8-.1-.9,3.3-1.7,3.2-.1v6C157.9,26.1,155.7,27.4,155,27.3ZM75.1,29.6c-1.1,0-3.4-1.1-3.3-3.1s2-3.5,3.6-4.9.3-.3,0-.6-2.1-1.9-2.6-3.3.4-2.3,1.9-1.9,1.1,1.5,1.1,2.1,3.6-1.2,4.3-2.1.7-.2.9,0a5,5,0,0,0,1,1.1c.5.3,1,.6.9.9s-.9.9-.9,1.3v6.5c.2,1.7,2.1,1.8,1,2.9l-1.4,1.1c-.8.3-2.1-1.4-2.2-2s-3.5,2-4.3,2Zm1.2-2.3a1.8,1.8,0,0,1-1.8-1.5,3.8,3.8,0,0,1,1.9-3.5c.2-.2.7.4.8.5s.8.2.4-.4l-1.5-2.2c-.2-.2-.4-.8-.2-.9s3.3-1.7,3.3-.1v6c0,.9-2.1,2.2-2.9,2.1ZM50.3,33c-1.4-1.6-1-4.9,1.3-6.6a9.3,9.3,0,0,1,8-1.4V8c-2.3.3-4.9.6-7.1-.4a3.8,3.8,0,0,1-2.2-2.8c-.2-1.4.2-.5.4-.2,1.8,1.9,4.2,1.2,6.5.8s6-1.4,8.7-1A4.6,4.6,0,0,1,70.1,9V24.5c.2.7.8,1.1.3,1.8s-2.1-.7-4.9.7a20.6,20.6,0,0,0-3.7,2.9c-.4.4-2.4-1.9-4.5-2.3s-4.8,0-6,1.8c-2.6,4,4.4,6.6,7.9,2.6.5-.5,1.1.1.5.6-2.8,2.3-6.9,3.2-9.4.4Zm13.3-6.3c-.5,0-1.8-1-2.8-1.4V21.2c0-.6-.1-1.3,3-1.3s3.1.7,3.1,1.2v3.5c0,1-2.7,2.1-3.3,2.1ZM54,24.5a3.7,3.7,0,0,0,1-2.4V18.5c0-.7-1.2-.6-1.6-.3a2.3,2.3,0,0,0-.7,1c-.3.4-.3.3-.5,0a4.1,4.1,0,0,1-.2-1.6A3,3,0,0,1,54.6,15c.8-.2.4-.4.4-.8V12.6c0-2.9,3.3-3.8,3.6-3.5s-.4.5-.4,1.7V20.9a3.8,3.8,0,0,1-1.5,2.9C56,24.3,53.9,24.8,54,24.5Zm6.8-5.7V14.7c0-.8,1.4.1,3,.1s3.1-1,3.1,0v4.1c0,1-1.5,0-3.1,0S60.8,20,60.8,18.8Zm3-5c-1.6,0-3-.3-3-1.1V7.8l3.3-.2c2.9,0,2.8,1.9,2.8,5C66.9,13.5,65.5,13.8,63.8,13.8ZM118.4,35c-2.2-.3-2.7-2.2-1.9-4.3s4-5.1,7.4-6.2a11.8,11.8,0,0,1,5.3-.3c.4-.8,1.6-2.6,2-3.5-3.1-.8-6.6-1.9-8.3-3.8s-1-3.8-.1-5.5.5-.5.4.1a3.7,3.7,0,0,0,1.6,3.4c1.3,1,6.1,2.5,8.1,3l.8-1.5a23.7,23.7,0,0,1-7.6-3,4.9,4.9,0,0,1-1.5-5.7c1.3-3.1,5.4-3.5,8.4-3.1a10.7,10.7,0,0,1,4.1,1.5c.6.2,1.1-.1,1.9-.3s-4.2,4.3-4.6,3.6c-1.3-2.4-4.8-4.6-7.4-2.8a2.3,2.3,0,0,0-.1,4c2.1,1.6,5.8,2.2,8.7,3l3.2-3.9c.5-.6,2-2.3,1.9-1.5s-1.9,2.7-2.7,3.8l-1.5,2a10.8,10.8,0,0,1,4.3,2.9c2,2.6.6,5.9-.9,7.7s-5.7,6-6.5,5.4-2.7-2.2-4.8-3c-1.9,2.9-6.3,8.6-10.2,8Zm.4-.6c-3-.2-2-3.4-.6-4.9s5.5-4.3,9.4-2.9C127,27.9,121.6,34.7,118.8,34.4Zm16.7-7.2a18.3,18.3,0,0,0-5.3-2.8l2-3.4a17.6,17.6,0,0,1,4.4,1.5,1.2,1.2,0,0,1,.4,1.8c-.4.3,0,.4.3.2a2.4,2.4,0,0,0,1.1-3c-.7-1.8-2.3-2.6-4.5-3.3a10,10,0,0,1,.8-1.4,9.9,9.9,0,0,1,4,1.6c1.5.9,1.8,3.6.8,5s-3.5,4.3-4,3.8Zm-35.4,7.9c-.2,0-.3-.2-.3-.4a.5.5,0,0,1,.4-.2c2.2.3,5.4.4,7-.7s-.5-1.7-2.5-1-4.5,1.7-5.7.6.7-3,1.7-3.6.4-.3.1-.4a3.6,3.6,0,0,1-2.4-2.9V19.1c0-.7-.5-.9-1.3-.8s-.8-.1-.3-.4a27.5,27.5,0,0,0,2.6-2.2.5.5,0,0,1,.8,0,5.3,5.3,0,0,0,1,1.2c.4.3,1.1.6.9.9s-.9.9-.9,1.3h0v7.3c0,1.5,1.7,2.2,2.7,2.2s2.5-.7,2.5-2.1V19.1c0-.7-.5-.9-1.3-.8s-.9-.1-.3-.4a27.5,27.5,0,0,0,2.6-2.2.5.5,0,0,1,.8,0,5.3,5.3,0,0,0,1,1.2c.5.3,1.1.6.8.9s-.8.9-.8,1.3h0v7.3c.1,1.8-2,2.7-3.4,3.1s-5.3.6-5.3,1.7,1.6.3,3.9-.5,4.1-.4,4.5,1.3a2.5,2.5,0,0,1-1.7,2.6c-2.2.9-4.8.5-7.1.5ZM34.6,26.4V19.1c0-.4-.7-.7-.9-1.1s0-.4.2-.4a4.3,4.3,0,0,0,1.6-.1,6,6,0,0,0,3.3-1.6c1-.7,2.4.3,2.9,1s2.1,2.9,1.5,3.4-4.1,2.8-5.8,4V26c0,.3,2.5,1.6,2.9,1.4l.8-.4c1-.6,1.1-.1.2.6s-2.9,2.1-3.4,2-2.7-2.1-4-1.7-.3-.3-.3-.5.9-.6,1-1Zm2.8-7.2v3.6a22,22,0,0,0,3.2-2.1c.3-.2-1-1.7-1.5-2.4s-.7-1.2-1.6-.4-.1.9-.1,1.3ZM3.7,24.1a12.1,12.1,0,0,1-.2-8.8,11.2,11.2,0,0,1,3.9-5A12,12,0,0,1,9.5,9c.3-.2,1-.4.3.3s-3.4,3.6-4,6.8A10.5,10.5,0,0,0,8,24.4a8.2,8.2,0,0,0,5.1,3,5.5,5.5,0,0,0,4-.6V9.5l-2.4-.3-1,1V21.6a3.8,3.8,0,0,1-2.6,3.8c-.3,0-.9.1-.9-.1a15.4,15.4,0,0,0,.4-3V14.8c0-2.5-.6-1.3-1.5-1s-.3-.2-.5-.5a44.4,44.4,0,0,0,3.7-3c.5-.6.9-.9,1-1.4L9.5,7.8C7.3,7.6,4.6,7.3,2.7,9a3.2,3.2,0,0,0-.1,4.9c.3.3.6.9-.2.2A4.2,4.2,0,0,1,.9,9.8C1.2,8,4,5,8,5s8.1,1.2,12.3,1.1c.1,0,.4-.2.4.1s-1.5,3-2.6,3.3,0,.6,0,.7V25.3c0,.2.1.8.4.9s.6-.3.8-.5,1.3-1.7,1.1-.9c-.7,3.4-3.7,4.8-6.8,5S5.4,28.3,3.7,24.1ZM23,29.6c-.8-.4-1.1-1.9-2.1-1.7s-.3-.3-.3-.5,1-.6,1-1.1V8.1c0-.1-.1-.5,0-.6s1,1,1.5.7S25.5,5.4,26,5.9s-1.6,1.9-1.6,4.6v8c.5-.3,4.1-3.1,4.7-3A6.6,6.6,0,0,1,32,18.1c0,.2-.7.5-.7.8v7.4c0,.3.2.8,1.4,1.1s-2.2,2.4-2.7,2.2-1.2-1.9-2.2-1.7a.4.4,0,0,1-.2-.5c.1-.2.9-.6.9-1.1V19.2a1.2,1.2,0,0,0-1.7-1l-2.4,1.7v6.4c0,.3.1.8,1.3,1.1s-2.1,2.4-2.7,2.2Zm123.3,0c-.8-.4-1.1-1.9-2.1-1.7s-.3-.3-.3-.5,1-.6,1-1.1V18.6c0-.9-2.4-.2-2.5-.6a4.2,4.2,0,0,1,.4-1.6c.2-.8,2.1-.2,2.1-.6V11.3c0-.5,1.6-1.7,2.4-2s.4.1.4.5v6c0,.5,3.1-.7,2.3,1.5a2.9,2.9,0,0,1-.7.8c-.7.2-1.6-.2-1.6.6v.5h0v7.1c0,.3.1.8,1.3,1.1S146.9,29.8,146.3,29.6ZM95,10.5V26.3c0,.3.1.8,1.3,1.1s-2.2,2.4-2.7,2.2-1.1-1.9-2.2-1.7a.4.4,0,0,1-.2-.5c.1-.2.9-.6.9-1.1V12.8L89.6,12l-.8-1.4h1.6l1.7,1.5V10.1l-1.6.2-1.4-.8,1.4-.7,1.6.2V8.1c0-.1,0-.5.1-.6s1,1,1.5.7,2.4-2.8,2.9-2.3-1.1,1.4-1.5,3.4h0l1.6.2L95,9.7Zm-6.6,6.4c.7.5,1.1.6.9.9s-.9.9-.9,1.3h0v7.2c0,.3.1.8,1.3,1.1s-2.1,2.4-2.6,2.2-1.2-1.9-2.2-1.7-.3-.3-.2-.5.9-.6.9-1.1V19.1a.9.9,0,0,0-.8-1.1c-.9-.1-.6-.2-.3-.6a15.6,15.6,0,0,1,2-1.6l-.3-2.7.7-1.4.8,1.4-.3,2.6a4,4,0,0,0,1,1.2ZM88,11.4V13l2.5,2.8-1.3-3.5L88,11.4Zm-2.2,0-1.3.9-1.2,3.5L85.8,13Zm-.7-.8H83.5l-2.9,2.5L84.2,12Zm-.3-1.1-1.5-.7-6.2.7,6.2.8Zm.3-1-.9-1.4L80.6,5.9l2.9,2.5Zm.7-.9V6.1L83.3,3.2l1.2,3.6Zm1.1-.2.8-1.5L86.9,1l-.7,4.9.7,1.5Zm1.1.2,1.3-.8,1.3-3.6L88.1,6.1Zm.8.9h1.6l2.8-2.5L89.6,7.1l-.8,1.4Zm-1.9,3.3-.6,1.3.6,6.7Zm0-4.6.7-1.3-.7-4.4Zm1.2.3,1.2-.8,1.1-3.2Zm.8.9h1.5l2.5-2.2Zm.3,1.1,1.3.7,5.6-.7Zm-.3,1.2.8,1.2L92.9,13Zm-.8.8v1.4l2.2,2.6Zm-2.3,0-1.3.8-1,3.2Zm-.9-.8H83.5L80.9,13Zm-.3-1.2-1.3-.6-5.6.6Zm.3-1.1-.8-1.3-3.2-1Zm.9-.9V6.1L83.5,3.5Z" transform="translate(-0.8 -1)" fill="#231f20" fill-rule="evenodd"/></svg>