<svg id="notes_1_" data-name="notes (1)" xmlns="http://www.w3.org/2000/svg" width="28.725" height="28.719" viewBox="0 0 28.725 28.719">
  <path id="Path_531" data-name="Path 531" d="M19.941,28.793a1.443,1.443,0,0,0,1.388-1.062l1.324-4.941,5.012-1.34a1.438,1.438,0,0,0,1.012-1.758l-2.6-9.686.206-.766a1.436,1.436,0,0,0-.866-1.7l-1.17-4.368a1.446,1.446,0,0,0-1.759-1.017L13.941,4.445,6.773,2.523a1.408,1.408,0,0,0-.889.048L4.094.783A2.393,2.393,0,1,0,.709,4.167L3.973,7.431l-3.91,14.6a1.439,1.439,0,0,0,1.013,1.76l18.493,4.955A1.408,1.408,0,0,0,19.941,28.793Zm7.81-8.854a.479.479,0,0,1-.335.585l-4.477,1.2,2.642-9.865ZM22.734,3.077a.479.479,0,0,1,.589.34l1.021,3.814L15.79,4.939ZM14.5,14.578l-2.416-.805L13.7,12.16l.805,2.416Zm-1.948-2.626L8.493,7.89a.479.479,0,1,0-.677.677l4.061,4.06-.677.677L4.432,6.536l.677-.677L6.462,7.213a.479.479,0,0,0,.677-.677L5.786,5.183l.677-.677,6.768,6.769ZM3.078,5.183,5.109,3.152l.677.677L3.755,5.859ZM.965,2.475A1.436,1.436,0,0,1,3.417,1.46L4.432,2.475,2.4,4.506,1.386,3.49A1.426,1.426,0,0,1,.965,2.475Zm.022,19.8L4.755,8.213l6.107,6.107a.471.471,0,0,0,.176.109s.007.005.011.007L14.2,15.488a.962.962,0,0,0,.305.048.948.948,0,0,0,.508-.15l5.5,1.478a.459.459,0,0,0,.124.017.479.479,0,0,0,.124-.941l-5.312-1.426a.99.99,0,0,0-.044-.239l-1.053-3.153s-.005-.007-.007-.012a.475.475,0,0,0-.108-.175l-7.4-7.4L25.018,8.4a.479.479,0,0,1,.339.587L20.4,27.48a.479.479,0,0,1-.587.339L1.326,22.866a.478.478,0,0,1-.339-.587Zm0,0" transform="translate(-0.001 -0.075)" fill="#3e3e3e"/>
  <path id="Path_532" data-name="Path 532" d="M271.743,153.918a.479.479,0,0,0,.124-.941l-6.807-1.824a.479.479,0,1,0-.248.924l6.808,1.824A.475.475,0,0,0,271.743,153.918Zm0,0" transform="translate(-249.612 -142.661)" fill="#3e3e3e"/>
  <path id="Path_533" data-name="Path 533" d="M295.243,213.253a.479.479,0,0,0,.124-.941l-4.628-1.238a.479.479,0,1,0-.247.925l4.628,1.238A.478.478,0,0,0,295.243,213.253Zm0,0" transform="translate(-273.855 -199.223)" fill="#3e3e3e"/>
  <path id="Path_534" data-name="Path 534" d="M84.332,261.743l-1.388-.372a.479.479,0,1,0-.248.924l1.388.372a.487.487,0,0,0,.124.016.479.479,0,0,0,.124-.941Zm0,0" transform="translate(-77.713 -246.699)" fill="#3e3e3e"/>
  <path id="Path_535" data-name="Path 535" d="M168.82,284.862a.479.479,0,0,0-.338-.586l-10.633-2.849a.479.479,0,0,0-.247.922l10.633,2.849a.464.464,0,0,0,.124.017A.478.478,0,0,0,168.82,284.862Zm0,0" transform="translate(-148.456 -265.639)" fill="#3e3e3e"/>
  <path id="Path_536" data-name="Path 536" d="M71.282,311.251l-1.388-.372a.479.479,0,0,0-.247.925l1.388.371a.454.454,0,0,0,.124.017.478.478,0,0,0,.124-.941Zm0,0" transform="translate(-65.407 -293.433)" fill="#3e3e3e"/>
  <path id="Path_537" data-name="Path 537" d="M154.485,333.543l-10.633-2.849a.479.479,0,1,0-.248.924l10.633,2.849a.468.468,0,0,0,.124.017.479.479,0,0,0,.123-.941Zm0,0" transform="translate(-135.203 -312.132)" fill="#3e3e3e"/>
</svg>
