<svg id="Component_1_1" data-name="Component 1 – 1" xmlns="http://www.w3.org/2000/svg" width="26.433" height="26.433" viewBox="0 0 26.433 26.433">
  <g id="Group_2" data-name="Group 2">
    <g id="Group_1" data-name="Group 1">
      <path id="Path_1" data-name="Path 1" d="M9.127,0H3.057A3.06,3.06,0,0,0,0,3.057V9.127a3.06,3.06,0,0,0,3.057,3.057H9.127a3.06,3.06,0,0,0,3.057-3.057V3.057A3.06,3.06,0,0,0,9.127,0Zm.992,9.127a.993.993,0,0,1-.992.992H3.057a.993.993,0,0,1-.992-.992V3.057a.993.993,0,0,1,.992-.992H9.127a.993.993,0,0,1,.992.992Z" fill="#fff"/>
    </g>
  </g>
  <g id="Group_4" data-name="Group 4" transform="translate(14.249)">
    <g id="Group_3" data-name="Group 3">
      <path id="Path_2" data-name="Path 2" d="M285.087,0H279.1A3.1,3.1,0,0,0,276,3.1V9.087a3.1,3.1,0,0,0,3.1,3.1h5.989a3.1,3.1,0,0,0,3.1-3.1V3.1A3.1,3.1,0,0,0,285.087,0Zm1.033,9.087a1.034,1.034,0,0,1-1.033,1.033H279.1a1.034,1.034,0,0,1-1.033-1.033V3.1A1.034,1.034,0,0,1,279.1,2.065h5.989A1.034,1.034,0,0,1,286.119,3.1Z" transform="translate(-276)" fill="#fff"/>
    </g>
  </g>
  <g id="Group_6" data-name="Group 6" transform="translate(0 14.249)">
    <g id="Group_5" data-name="Group 5">
      <path id="Path_3" data-name="Path 3" d="M9.127,276H3.057A3.06,3.06,0,0,0,0,279.057v6.071a3.06,3.06,0,0,0,3.057,3.057H9.127a3.06,3.06,0,0,0,3.057-3.057v-6.071A3.06,3.06,0,0,0,9.127,276Zm.992,9.127a.993.993,0,0,1-.992.992H3.057a.993.993,0,0,1-.992-.992v-6.071a.993.993,0,0,1,.992-.992H9.127a.993.993,0,0,1,.992.992Z" transform="translate(0 -276)" fill="#fff"/>
    </g>
  </g>
  <g id="Group_8" data-name="Group 8" transform="translate(14.249 14.249)">
    <g id="Group_7" data-name="Group 7">
      <path id="Path_4" data-name="Path 4" d="M285.087,276H279.1a3.1,3.1,0,0,0-3.1,3.1v5.989a3.1,3.1,0,0,0,3.1,3.1h5.989a3.1,3.1,0,0,0,3.1-3.1V279.1A3.1,3.1,0,0,0,285.087,276Zm1.033,9.087a1.034,1.034,0,0,1-1.033,1.033H279.1a1.034,1.034,0,0,1-1.033-1.033V279.1a1.034,1.034,0,0,1,1.033-1.033h5.989a1.034,1.034,0,0,1,1.033,1.033Z" transform="translate(-276 -276)" fill="#fff"/>
    </g>
  </g>
</svg>
