<svg id="Layer_1" data-name="Layer 1" xmlns="http://www.w3.org/2000/svg" width="413.7" height="413.7" viewBox="0 0 413.7 413.7"><path d="M349.4,221.4l-24.9,25.1c0-1.1-.1-2-.1-3V46a7.9,7.9,0,0,0-.2-3.1,2,2,0,0,0-1.3-.5H59.8a3.2,3.2,0,0,0-.9.3l-.2.3a.3.3,0,0,1-.1.2c0,.5-.1.9-.1,1.3V306.4a1.9,1.9,0,0,0,.1.8c0,.2.1.3.1.5l.5.5c6.5.1,13.4,0,20.2,0H182.1c-1.3,9-1,17.4,4.4,24.9a6.3,6.3,0,0,1-2.7.2H58.4a23.8,23.8,0,0,1-12.5-3,23.5,23.5,0,0,1-12-17.4,55.6,55.6,0,0,1-.4-8.2V43.2a25.6,25.6,0,0,1,2.8-12.7A23.6,23.6,0,0,1,53.9,17.7a25.9,25.9,0,0,1,4.8-.4H324.4a25.1,25.1,0,0,1,15.4,4.8A23.9,23.9,0,0,1,348.9,36a28.8,28.8,0,0,1,.5,5.9V221.4Z" transform="translate(-33.5 -17.3)"/><path d="M281.8,323.1a41.2,41.2,0,0,0,4.9-5.5l16.1-18.4c3.6-4.1,7.3-8.2,11-12.2,5.4-5.9,10.9-11.7,16.3-17.5,3.9-4.2,7.9-8.1,11.8-12.2,7.8-8.3,16-16.1,24.1-23.9,5.7-5.5,11.6-10.7,17.6-15.8s9.6-8.1,14.6-11.8a111.4,111.4,0,0,1,20.6-12.6,32.7,32.7,0,0,1,12.6-3.3,17.3,17.3,0,0,1,11.7,3.8,11.4,11.4,0,0,1,3.6,12.1,21.7,21.7,0,0,1-4,7.1c-2.2,2.4-4.4,4.8-6.7,7.1l-10.6,10.2-5,4.7c-6.2,6-12.1,12.2-17.9,18.5-7.8,8.4-15.3,17.1-22.4,26.1a489.5,489.5,0,0,0-28.7,40.2C346,328,341,336.4,336.1,345c-6.9,12-13.3,24.2-19.3,36.6-4.5,9.4-8.9,18.9-12.8,28.6l-5.7,14c-1.2,2.9-3,5.2-6.1,6.3a9.2,9.2,0,0,1-11-3.9c-1.9-3.1-3.8-6.3-5.6-9.5-4.2-7.5-8.6-14.8-13.1-22.1s-7.8-12.3-11.9-18.3c-5.8-8.3-11.8-16.4-18.3-24.2a320.4,320.4,0,0,0-22.7-23.9c-1.8-1.8-3.7-3.5-5.6-5.2a8.6,8.6,0,0,1-2.8-6.4c-.1-5.1,1.5-9.5,5.4-12.9a15.5,15.5,0,0,1,7-3.5,30.8,30.8,0,0,1,10.5-.3c9.1,1.2,17.6,4.4,26,7.8,10.1,4.1,19.7,9.1,29.5,14A15.6,15.6,0,0,0,281.8,323.1Z" transform="translate(-33.5 -17.3)"/><path d="M207.9,190.5c0,2.1,0,4.1-.1,6.2-.3,7.8-3.9,13.5-10.9,16.9a21.2,21.2,0,0,1-11.9,1.6,18.2,18.2,0,0,1-13.7-8.5,17,17,0,0,1-2.9-9.2q-.2-12.7,0-25.5a12.8,12.8,0,0,1,8.8-11.8c3.3-1,6.8-1.7,10.2-2.4,5-1,9.8-2.3,14-5.4a16.9,16.9,0,0,0,6.6-11.8c.2-2.5.4-5.1-.6-7.6-2.8-7.1-7.9-11.3-15.4-12.4a28.9,28.9,0,0,0-9.7.6c-4.8,1-8.3,4-11.4,7.5s-5.4,6.8-8.5,9.9-7.6,4.9-12.5,5.2c-9.8.6-17.5-7.2-19-15.8a30.2,30.2,0,0,1,.1-9c1.5-10.7,7.5-18.7,15.6-25.4S165.8,82.3,177,80.1a66.9,66.9,0,0,1,18.4-.9,67.4,67.4,0,0,1,28.7,8.2c13.6,7.7,22.6,18.9,26.5,34.1a53,53,0,0,1,1.9,16.8c-.3,7.3-1.2,14.6-3.9,21.6a42.3,42.3,0,0,1-11.7,16.6,58,58,0,0,1-25.5,12.7l-2.5.7Z" transform="translate(-33.5 -17.3)"/><path d="M188.3,226.9c12.4.1,22.1,11,22,22.7a22.2,22.2,0,1,1-44.4-.2A22.5,22.5,0,0,1,188.3,226.9Z" transform="translate(-33.5 -17.3)"/></svg>