<svg id="Layer_1" data-name="Layer 1" xmlns="http://www.w3.org/2000/svg" width="190.4" height="96.1" viewBox="0 0 190.4 96.1"><path d="M167.5,33.1v-14c0-1-.1-2-.2-3a2.5,2.5,0,0,0-1.5-2l-1.4-.2h-1.1a.5.5,0,0,1-.6-.4h-.1c-.4-.3-.3-.8-.3-1.3a.4.4,0,0,1,.1-.3,1.4,1.4,0,0,1,1.2-.7h15.2a33,33,0,0,1,7.7.8,21.7,21.7,0,0,1,4,1.5l2.1,1.3a19.5,19.5,0,0,1,3.1,3.3,10.7,10.7,0,0,1,1.3,2.1,18.9,18.9,0,0,1,2,4.6,33.3,33.3,0,0,1,1,5.5,48.6,48.6,0,0,1,0,5.4,30,30,0,0,1-.8,4.5l-.5,1.7a30.4,30.4,0,0,1-1.7,3.7,22,22,0,0,1-1.8,2.8,38.3,38.3,0,0,1-2.9,2.8c-.7.6-1.6,1-2.3,1.5a26.7,26.7,0,0,1-3.6,1.4,22.9,22.9,0,0,1-7.3.9H163.6a1.4,1.4,0,0,1-1.2-.7,1.5,1.5,0,0,1,0-1.3,1.2,1.2,0,0,1,1.2-.9,6.2,6.2,0,0,0,1.9-.1,2.6,2.6,0,0,0,1.8-2.3,24.6,24.6,0,0,0,.2-2.8Zm6.5,0v17c0,.2.1.4.3.4h.3a18,18,0,0,0,6.1.4,8.9,8.9,0,0,0,3.8-1.2,18.2,18.2,0,0,0,2.3-1.5A23.9,23.9,0,0,0,189,46h.1a19.5,19.5,0,0,0,1.9-3.5,24.7,24.7,0,0,0,1.1-3.6,32.1,32.1,0,0,0,.5-6.9,27,27,0,0,0-.8-5.6,15.8,15.8,0,0,0-2.8-6,14.4,14.4,0,0,0-2.7-2.8,8.4,8.4,0,0,0-2.4-1.4,12.8,12.8,0,0,0-4.7-1,23,23,0,0,0-4.5.5c-.7.2-.7.2-.7,1Z" transform="translate(-12.5 -10.1)" fill="#fff"/><path d="M77.6,11.1H91.2c.6,0,.6,0,.7.7l.3,6.9v2a1.4,1.4,0,0,1-.2.7,1.1,1.1,0,0,1-1.2.6c-.8,0-.8,0-1-.9a19.8,19.8,0,0,0-.8-3.3,3.5,3.5,0,0,0-2.6-2.5,11.4,11.4,0,0,0-2.6-.2H74.9c-.7,0-.6,0-.6.7V29.5c0,.5,0,.5.4.5,2.5,0,4.9.1,7.4,0l1.8-.2c1.2-.2,1.8-1.1,2.2-2.3a9.7,9.7,0,0,0,.4-2.9c.1-.7,0-.6.6-.6h.8c.2-.1.3,0,.5.2a1.3,1.3,0,0,1,.5,1.2V38.8c0,.4,0,.8-.4,1s-.1.2-.2.3a.3.3,0,0,1-.3.3,2.4,2.4,0,0,0-1.2,0c-.2,0-.2-.2-.2-.3a25.1,25.1,0,0,1-.4-2.7L85.9,36l-.3-.6a3.8,3.8,0,0,0-1.8-1.2l-2-.2H74.6a.3.3,0,0,0-.3.3V47.4a19.3,19.3,0,0,0,.1,2.4c.1.6.4,1,.8,1l1.2.2H84l2.3-.3a4.4,4.4,0,0,0,2.4-1.3,13,13,0,0,0,1.8-2.3l1-1.7,1.2-2.5c0-.1.1-.2.3-.2h.4c.6-.1,1,0,1.2.6a1.5,1.5,0,0,1,.2,1.1,29.9,29.9,0,0,0-1,3.2c-.5,1.8-1,3.6-1.6,5.4s-.3,1-.4,1.5-.2.5-.5.4H63.9a1.2,1.2,0,0,1-.8-.2,1.2,1.2,0,0,1-.5-1.4,1.5,1.5,0,0,1,1.1-1.2,5.5,5.5,0,0,0,1.8-.1l.9-.3a2,2,0,0,0,1.2-1.8,24.2,24.2,0,0,0,.2-3.8V19.8a20,20,0,0,0-.2-3.5c-.2-1.7-.5-2-1.9-2.3H63.8a1,1,0,0,1-.9-.5,2.4,2.4,0,0,1-.3-.9c-.1-.6.3-.9.6-1.3H77.6Z" transform="translate(-12.5 -10.1)" fill="#fff"/><path d="M140.7,54.9h-6.6a1.2,1.2,0,0,1-1.2-1.3,4.1,4.1,0,0,0,0-1.1.4.4,0,0,1,.4-.4,3.8,3.8,0,0,0,1.5-.1l.8-.2a1.5,1.5,0,0,0,1-1.6,10.5,10.5,0,0,0-.6-2.4c-.6-2-1.3-3.9-2-5.9s-.7-1.1-1.5-1.1H121.1c-.6,0-.6,0-.8.7a13.4,13.4,0,0,1-.7,1.8c-.5,1.6-1.1,3.2-1.7,4.8a7.5,7.5,0,0,0-.4,1.6,1.7,1.7,0,0,0,1.1,2.1,12,12,0,0,0,2,.3c.3.1.7-.1.9.2s.1.7.1,1.1v.3a1.1,1.1,0,0,1-1.1,1.2H110c-.6,0-.8-.5-1.1-.8s-.1-.1-.1-.2V52.5c0-.2.1-.2.2-.3l1.6-.3a3.2,3.2,0,0,0,2.1-1.7l.9-1.8c.8-1.9,1.5-3.8,2.2-5.8s.9-2.3,1.3-3.5,1.1-3.2,1.7-4.7l1.3-3.6,1.8-4.8,1.2-3.3c.4-1.2.9-2.4,1.3-3.7s.9-2.3,1.3-3.5.9-2.3,1.3-3.5l.6-1.6c0-.2.2-.3.4-.3h1.3c.2,0,.3.1.4.3s1.1,3.2,1.6,4.7.9,2.2,1.3,3.4l1.2,3.6c.4,1,.8,2,1.1,3s1,2.7,1.4,4,.8,2,1.1,3l1.5,4c.3,1.1.7,2.1,1.1,3.2s.9,2.5,1.3,3.8.9,2.3,1.3,3.5l.9,2.1a7.2,7.2,0,0,0,2,2.8l.9.4,1.7.2c.5.1.5.1.5.7v.6a1.4,1.4,0,0,1-.6,1.4c-.2.2-.4.1-.6.1h-6.7Zm-8.5-18.1-.5-1.4c-.4-1.2-.9-2.4-1.3-3.5l-1.7-4.8c-.4-1.3-.9-2.6-1.3-3.8s-.1-.3-.2-.3-.2.1-.2.2l-1.2,3.2-1.5,4.1-1.8,4.9a5.7,5.7,0,0,0-.4,1.4Z" transform="translate(-12.5 -10.1)" fill="#fff"/><path d="M46.2,41.4a2.1,2.1,0,0,0,1,.4,1.3,1.3,0,0,1,.8,1.6c-.6,2.1-1.2,4.2-1.7,6.3l-1.2,4.6c-.2.6-.2.6-.8.6H16.8a1.3,1.3,0,0,1-1.1-.9,1.9,1.9,0,0,1,.7-1.8h.5a6.1,6.1,0,0,0,1.9-.1,2.4,2.4,0,0,0,1.6-1.2,2.4,2.4,0,0,0,.3-1.4,13.7,13.7,0,0,0,.2-1.9V18.6a10.9,10.9,0,0,0-.3-2.6c-.2-1.2-.5-1.7-1.9-2a5.5,5.5,0,0,0-1.8-.1c-.7,0-1.1-.6-1.2-1.4s.2-.9.6-1.3H32.1a1.2,1.2,0,0,1,1.1.5c.2.3.4,1.2.2,1.4a3.5,3.5,0,0,0-.5.8h-.6l-2.4.2-.8.3a2.4,2.4,0,0,0-1.5,2.2c-.1,1-.2,2-.2,3V46.7a9.7,9.7,0,0,0,.2,2.4c.2,1,.6,1.3,1.3,1.4h8.3l2.5-.3a7.7,7.7,0,0,0,2.9-1.9l.3-.4a7,7,0,0,0,1.5-2.3C45.1,44.3,45.6,42.9,46.2,41.4Z" transform="translate(-12.5 -10.1)" fill="#fff"/><path d="M157.9,77.7a.5.5,0,0,0,.3-.4c.6-1.4,1.2-2.7,1.9-4s1-2.1,1.4-3.1,1-1.9,1.4-2.9.9-1.9,1.3-2.9l1.5-3.1.7-1.5a3.6,3.6,0,0,0,.4-.9l.3-.5a.7.7,0,0,1,1.2.3,3.2,3.2,0,0,1,.2,1.4c.2,1.2.3,2.4.4,3.6s.3,2.3.4,3.4.3,2.4.4,3.7.3,2.9.5,4.3.3,2.8.4,4.1a7.5,7.5,0,0,0,.5,1.6,1.1,1.1,0,0,0,.8.7h.6a5.8,5.8,0,0,0,1.4.3c.4,0,.6.2.6.5s-.3.7-.6.7h-2.1l-.9-.2h-3.2c-.6-.1-1.1-.5-.5-1.2s.2-.3.2-.5-.4-3.4-.5-5-.3-2.8-.4-4.1-.3-2.9-.4-4.3a4.7,4.7,0,0,0-.2-1.6,6.7,6.7,0,0,0-.6,1.2,11.9,11.9,0,0,1-.8,1.6,29.2,29.2,0,0,1-1.4,3.1c-.8,1.6-1.6,3.2-2.3,4.8s-1.5,3.2-2.2,4.7a9.3,9.3,0,0,1-.5,1c-.4.6-.9.6-1.4.1l-.4-.7-.7-1.5c-.7-1.5-1.5-2.9-2.3-4.4l-1.7-3.6c-.8-1.6-1.5-3.1-2.2-4.7a3.6,3.6,0,0,0-.4-.9h-.2c-.1,0-.1.1-.1.2a12.3,12.3,0,0,1-.2,1.9c-.1,1.1-.1,2.3-.2,3.4s-.3,2.8-.4,4.2-.2,2.7-.4,4.1v.3c0,.7.1.8.8.9l1.1.3a.5.5,0,0,1,.3.8,1,1,0,0,1-.8.3h-1.4l-1-.2a8.8,8.8,0,0,0-1.7.2,9.6,9.6,0,0,1-1.7,0,.6.6,0,0,1-.6-.5.4.4,0,0,1,.3-.6l1-.3a.9.9,0,0,0,.9-.8,7.8,7.8,0,0,0,.2-1.4l.6-4.7c.1-1.8.3-3.6.5-5.3l.6-5.5c.2-1.1.3-2.3.4-3.4s.1-1.1.2-1.7.2-.6.6-.7a.8.8,0,0,1,.9.5l.7,1.4c.2.6.5,1,.7,1.6l2.1,4.3,2.4,4.8,1.8,3.6c.4,1,.9,2,1.4,3.1A.3.3,0,0,1,157.9,77.7Z" transform="translate(-12.5 -10.1)" fill="#fff"/><path d="M94.8,69.9V64.6c0-1.1,0-2.2-.1-3.3s-.3-1.4-1.5-1.5h-.6c-.3-.1-.6-.3-.6-.5a.7.7,0,0,1,.5-.7,3.8,3.8,0,0,1,1.5,0,26.7,26.7,0,0,0,4,0,41.7,41.7,0,0,1,5,0,17.9,17.9,0,0,1,7.6,1.5,7.6,7.6,0,0,1,1.9,1.2A12.7,12.7,0,0,1,115,64a13.7,13.7,0,0,1,1.5,3.8,16.4,16.4,0,0,1,.2,3.8,12.9,12.9,0,0,1-1.4,5.1,11,11,0,0,1-1.7,2.5l-1.1,1.1a23.1,23.1,0,0,1-1.9,1.4,18.5,18.5,0,0,1-3.3,1.2,15.7,15.7,0,0,1-5.3.4l-4.5-.2L96,82.9a10,10,0,0,0-1.6.2,4.8,4.8,0,0,1-1.2,0,.6.6,0,0,1-.6-.5.4.4,0,0,1,.3-.6,2.9,2.9,0,0,1,1-.3.7.7,0,0,0,.5-.4,2.9,2.9,0,0,0,.2-.9,10.9,10.9,0,0,0,.1-1.8C94.8,75.7,94.8,72.8,94.8,69.9Zm6-9.4H99c-.9.1-.8.2-.8,1V77.4a11,11,0,0,0,.2,2.5,1,1,0,0,0,.6.9l.7.3a9.9,9.9,0,0,0,2.4.3,10.6,10.6,0,0,0,6.3-1.1,9.4,9.4,0,0,0,2.5-1.8c.1-.1.2-.1.2-.2a10.5,10.5,0,0,0,1.4-2.8,12.8,12.8,0,0,0,.6-3.3,11.9,11.9,0,0,0-.6-4.6,9.4,9.4,0,0,0-1.5-2.8,8.4,8.4,0,0,0-2.3-2.3,9.9,9.9,0,0,0-2.7-1.4A18.5,18.5,0,0,0,100.8,60.5Z" transform="translate(-12.5 -10.1)" fill="#fff"/><path d="M25.7,73.8H22.9c-.5,0-.5,0-.7.6a22.5,22.5,0,0,0-.8,2.4c-.4,1-.7,2-1,3a6.1,6.1,0,0,0-.3,1.3c-.1.4.1.5.4.6a1.2,1.2,0,0,0,.8.2.5.5,0,0,1,.6.4c.1.2-.1.4-.3.6a1.1,1.1,0,0,1-.7.2H19.4a4.5,4.5,0,0,0-2.3.1H15a.9.9,0,0,1-.7-.3.4.4,0,0,1-.2-.5c.1-.2.2-.3.4-.3a4.5,4.5,0,0,0,1.1-.3,2.1,2.1,0,0,0,1.7-1.2c.6-1.1.9-2.3,1.4-3.4l1-3c.5-1.4,1.1-2.9,1.6-4.4l1.2-3c.6-1.8,1.2-3.6,1.9-5.4l.9-2.5.2-.3a.8.8,0,0,1,1.2-.1l.2.5,1.5,3.9,1.2,3.1c.7,1.7,1.4,3.5,2,5.3s.8,1.9,1.1,2.8,1.1,2.9,1.7,4.3a14.6,14.6,0,0,0,1.3,2.5,2.4,2.4,0,0,0,1.6.9l1.1.3c.4,0,.5.5.2.8a1.3,1.3,0,0,1-.8.3H35a28.3,28.3,0,0,1-2.9-.2.7.7,0,0,1-.6-.3.6.6,0,0,1,.2-.7c.3-.1.3-.3.2-.6l-1.5-3.9c-.4-.9-.7-1.9-1.1-2.8h0c-.3-.7-.3-.7-.9-.7Zm-.1-9.5c-.2.2-.2.4-.3.6s-.9,3-1.4,4.5a17.2,17.2,0,0,0-.7,2.1c-.1.3-.1.4.2.4H28c.2,0,.3-.1.2-.3l-.8-2.3c-.4-1-.7-2.1-1.1-3.1S25.9,65,25.6,64.3Z" transform="translate(-12.5 -10.1)" fill="#fff"/><path d="M75.9,73.8H73c-.4,0-.4,0-.6.4S71.5,77,71,78.4s-.3,1-.4,1.4a5.3,5.3,0,0,0-.3,1.2c-.1.5,0,.6.4.7l.8.2h.3a.4.4,0,0,1,.2.7,1,1,0,0,1-.7.4H69.6a3.3,3.3,0,0,0-2.2.1H65.1a1,1,0,0,1-.7-.4.4.4,0,0,1,.3-.7l1.1-.3a2.2,2.2,0,0,0,1.7-1.1c.6-1.2.9-2.4,1.4-3.5S69.6,75,70,74l1.5-4.3c.4-.9.7-1.9,1.1-2.9s1-2.9,1.6-4.3a7.8,7.8,0,0,1,.5-1.4c.2-.7.5-1.4.8-2.2a.9.9,0,0,1,.8-.7.8.8,0,0,1,.8.7l2,5.1,1.2,3.1,1.5,4.1c.4.9.7,1.8,1.1,2.6l1.7,4.5a19.6,19.6,0,0,0,1.3,2.5,2.2,2.2,0,0,0,1.7.9l1,.3c.4,0,.5.5.2.8a1.1,1.1,0,0,1-.8.3c-1.3,0-2.7.1-4,0l-1.8-.2a.7.7,0,0,1-.5-.4c-.1-.2.1-.4.2-.5s.3-.4.2-.7-1.4-3.4-2-5.2a14.6,14.6,0,0,1-.7-1.9.5.5,0,0,0-.5-.4Zm0-9.5c-.3.2-.3.4-.4.6l-2.1,6.5c-.1.4-.1.5.3.5h4.4a.4.4,0,0,0,.4-.2Z" transform="translate(-12.5 -10.1)" fill="#fff"/><path d="M52.8,58.2a27.5,27.5,0,0,1,5.7.5l1.9.2a.8.8,0,0,1,.7,1,35.4,35.4,0,0,0-.2,4.6,1.5,1.5,0,0,1-.1.7c-.1.4-.2.5-.6.5a.5.5,0,0,1-.6-.4c0-.2-.1-.4,0-.5a6,6,0,0,0-.6-2.3.8.8,0,0,0-.4-.4A4.2,4.2,0,0,0,57,61l-2.1-.6a8.7,8.7,0,0,0-3.2-.3,2.9,2.9,0,0,0-1.3.1c-1.1.3-2.4.3-3.4,1a5.3,5.3,0,0,0-2,1.6L44,64a12.4,12.4,0,0,0-1.1,3.6,15.1,15.1,0,0,0-.2,3,12.3,12.3,0,0,0,.8,3.8A12.6,12.6,0,0,0,45.9,78a11.5,11.5,0,0,0,3.7,2.5,11.9,11.9,0,0,0,5.6.7,6.3,6.3,0,0,0,1.9-.3,4.4,4.4,0,0,0,1.8-1.2,3.9,3.9,0,0,0,.8-1.4l.3-1.2c.1-.4.3-.5.6-.5a.5.5,0,0,1,.5.5,2.1,2.1,0,0,1,0,1.1c-.2,1.2-.3,2.4-.6,3.5a1.8,1.8,0,0,1-.9,1,8.9,8.9,0,0,1-3.6.7H53.9a17.1,17.1,0,0,1-4.5-.4A9.7,9.7,0,0,1,46,82a11.3,11.3,0,0,1-2.1-1.2,13.6,13.6,0,0,1-2.4-2.4,11.1,11.1,0,0,1-1.8-3.6,14.5,14.5,0,0,1-.5-5.5,11.2,11.2,0,0,1,1-3.9,12.2,12.2,0,0,1,1.7-2.9h0c.7-.6,1.3-1.3,2.1-1.9l2.4-1.3a11.8,11.8,0,0,1,3.7-.9Z" transform="translate(-12.5 -10.1)" fill="#fff"/><path d="M128.6,64.8v3.9c0,.4,0,.4.4.4h4.8a.9.9,0,0,0,.9-.5.5.5,0,0,1,.5-.3c.4-.1.6.1.7.5a4.4,4.4,0,0,1-.2,1,24.6,24.6,0,0,0-.2,2.8,1.1,1.1,0,0,1-.3.9.4.4,0,0,1-.7,0,1,1,0,0,1-.2-.7c0-1.1-.3-1.4-1.4-1.5h-.1c-1.2,0-2.4-.3-3.7-.3s-.5,0-.5.6v6.3a10.9,10.9,0,0,0,.1,1.8,1.5,1.5,0,0,0,.1.7,1.3,1.3,0,0,0,.9.7,14.1,14.1,0,0,0,2.9.1h1.6a2,2,0,0,0,1.5-1.4c.1-.4.1-.7.2-1s.4-.6.7-.6a.5.5,0,0,1,.4.3.7.7,0,0,1,.1.6c-.1,1-.2,2.1-.4,3.1a1.3,1.3,0,0,1-1.4,1.2h-6.2c-.3,0-.5.1-.7-.1h-3.2a3.3,3.3,0,0,1-1.7.1.7.7,0,0,1-.5-.4.4.4,0,0,1,.2-.7l.9-.2a1,1,0,0,0,.8-.8,5.9,5.9,0,0,0,.2-1.3V78.4c.1-3.5.1-6.9.1-10.4V63.8c0-.8-.1-1.7-.1-2.5v-.2c-.2-1.1-.4-1.2-1.4-1.3h-.9a.5.5,0,0,1-.3-.5.6.6,0,0,1,.3-.6h2.8c2.7.1,5.3,0,8,0h1.1l.9-.2c.5-.2.8.1.8.6a.4.4,0,0,1-.1.3,11,11,0,0,0-.2,1.8c0,.5-.1,1.1-.1,1.6a.6.6,0,0,1-1,.4.5.5,0,0,1-.3-.5,3.1,3.1,0,0,0-.1-1,.8.8,0,0,0-.7-.7l-1.2-.2h-3.6c-.5,0-.5,0-.5.5Z" transform="translate(-12.5 -10.1)" fill="#fff"/><path d="M189.1,83.1a5.7,5.7,0,0,1-1.3,0,4.4,4.4,0,0,0-1.6-.2h-.9a7.4,7.4,0,0,1-2.1.1.9.9,0,0,1-.7-.3c-.3-.3-.2-.8.2-.8l.9-.3c.4,0,.6-.2.8-.6s.1-.5.1-.8.1-2.3.1-3.4V74.1a5.9,5.9,0,0,0-.7-2.6L182.5,69l-1.8-2.9-.8-1.3a27.1,27.1,0,0,0-2.4-3.5,6,6,0,0,0-.8-.8,2.4,2.4,0,0,0-1.6-.7c-.4-.1-.5-.3-.5-.6s.1-.5.5-.6h.6a19.3,19.3,0,0,0,4.8,0h.9a.6.6,0,0,1,.5.5.5.5,0,0,1-.3.5l-.4.2c-.2.1-.2.2-.2.4s.1.4.2.5l.5,1,1.8,3.1,2.3,4a3.7,3.7,0,0,1,.7,1.2c.1.1.1.2.3.2l.2-.3.9-1.6,1.9-3.4,1.1-1.8a11.4,11.4,0,0,0,1-1.9,2.5,2.5,0,0,0,.2-.7c0-.5,0-.5-.5-.8h-.2a.6.6,0,0,1,.1-1,2.4,2.4,0,0,1,1.2,0c1.2.1,2.5,0,3.8,0a1.7,1.7,0,0,1,1,0c.4.1.5.3.5.6s-.1.4-.5.5h-.4a2.4,2.4,0,0,0-1.4.5,8.9,8.9,0,0,0-2.1,2.6l-2,3.1c-.7,1.2-1.5,2.4-2.1,3.6l-.9,1.6a7.1,7.1,0,0,0-.6,2.5c0,1.2-.1,2.3,0,3.5s0,2.3.1,3.5a1,1,0,0,0,1,1l1.4.2c.2.1.5.1.5.4s-.1.4-.3.6a.7.7,0,0,1-.6.2Z" transform="translate(-12.5 -10.1)" fill="#fff"/><path d="M12.5,106.2V105H202.8c.2.7,0,1-.7,1H12.5Z" transform="translate(-12.5 -10.1)" fill="#fff"/><path d="M12.5,92.1c0-.4-.1-.9.1-1.1s.7-.1,1.1-.1H202.8v.3c0,.9,0,.9-1,.9H12.5Z" transform="translate(-12.5 -10.1)" fill="#fff"/><path d="M26.3,100.4h.2l-.6,2H20.3v-.2h.2a.8.8,0,0,0,.7-.3c.1-.1.1-.4.1-.8V96.4a1.4,1.4,0,0,0-.2-.9.8.8,0,0,0-.6-.2h-.2v-.2h3.2v.2h-.8l-.3.3a5.4,5.4,0,0,0-.1.8v4.6a3.5,3.5,0,0,0,.1.6l.2.2h2.6a1.3,1.3,0,0,0,.6-.5A1.9,1.9,0,0,0,26.3,100.4Z" transform="translate(-12.5 -10.1)" fill="#fff"/><path d="M33.8,97.3v4c0,.3,0,.5.1.6l.2.2c0,.1.2.1.4.1v.2H32.1v-.2h.5l.2-.2c.1-.1.1-.3.1-.6V99.4a2.8,2.8,0,0,0-.1-1.1c0-.1,0-.2-.1-.2h-.6v-.2l1.4-.6Zm-.5-2.6a.7.7,0,0,1,.6.6.8.8,0,0,1-.2.4H33a.4.4,0,0,1-.2-.4c0-.2,0-.3.2-.4Z" transform="translate(-12.5 -10.1)" fill="#fff"/><path d="M44.3,100.5a2.8,2.8,0,0,1-.8,1.5,1.8,1.8,0,0,1-1.2.5,1.8,1.8,0,0,1-1.5-.7,2.9,2.9,0,0,1-.6-1.9,2.5,2.5,0,0,1,.7-1.9,2,2,0,0,1,1.6-.7,1.6,1.6,0,0,1,1.2.4,1,1,0,0,1,.5.8l-.2.3c0,.1-.2.1-.3.1s-.4,0-.5-.2-.1-.2-.1-.4a.8.8,0,0,0-.2-.5h-.6a.9.9,0,0,0-.8.4,2,2,0,0,0-.5,1.4,2.7,2.7,0,0,0,.5,1.5,1.3,1.3,0,0,0,1.1.7,1.3,1.3,0,0,0,1-.4,1.7,1.7,0,0,0,.6-.9Z" transform="translate(-12.5 -10.1)" fill="#fff"/><path d="M50.8,99.3a2.4,2.4,0,0,0,.6,1.7,1.6,1.6,0,0,0,1.2.6,1.3,1.3,0,0,0,.9-.2,3.5,3.5,0,0,0,.6-.9h.1a2.2,2.2,0,0,1-.6,1.3,1.9,1.9,0,0,1-2.9-.1,2.4,2.4,0,0,1-.6-1.8,3,3,0,0,1,.6-2,2.2,2.2,0,0,1,1.7-.7,1.9,1.9,0,0,1,1.3.5,2,2,0,0,1,.5,1.5Zm0-.3h2.3a1.5,1.5,0,0,0-.1-.7.8.8,0,0,0-.4-.4.6.6,0,0,0-.5-.2,1.1,1.1,0,0,0-.8.3A1.9,1.9,0,0,0,50.8,99Z" transform="translate(-12.5 -10.1)" fill="#fff"/><path d="M61.3,98.3a2.8,2.8,0,0,1,1.7-1l.7.2c.2.1.3.4.4.7a2.5,2.5,0,0,1,.1,1v2.1a3.5,3.5,0,0,0,.1.6l.2.2H65v.2H62.6v-.2h.5c.1-.1.2-.2.2-.3a.7.7,0,0,0,.1-.5V99.2a2,2,0,0,0-.2-.9.6.6,0,0,0-.6-.3,1.7,1.7,0,0,0-1.3.7v2.6c0,.3,0,.5.1.6l.2.2h.5v.2H59.7v-.2h.1a.6.6,0,0,0,.5-.2c.1-.1.1-.4.1-.7V98.4a.4.4,0,0,0-.1-.3h-.6v-.2l1.5-.6h.2Z" transform="translate(-12.5 -10.1)" fill="#fff"/><path d="M73.6,97.3V99h-.2a2.3,2.3,0,0,0-.5-1.1,1.1,1.1,0,0,0-.8-.3l-.7.2c-.1.2-.2.3-.2.5s.1.3.2.5a1.4,1.4,0,0,0,.7.4l.7.4c.8.4,1.1.8,1.1,1.4a1.2,1.2,0,0,1-.5,1.1,1.5,1.5,0,0,1-1.1.4H70.6v-1.7h.2a1.7,1.7,0,0,0,.6,1.1,1.1,1.1,0,0,0,.9.4l.6-.2a.6.6,0,0,0,.2-.5.8.8,0,0,0-.2-.7l-1.1-.6-1-.7a1.9,1.9,0,0,1-.2-.8,1.3,1.3,0,0,1,.4-1,1.4,1.4,0,0,1,1.1-.4h1.2v-.2Z" transform="translate(-12.5 -10.1)" fill="#fff"/><path d="M80.5,99.3A2.9,2.9,0,0,0,81,101a1.8,1.8,0,0,0,1.3.6,1.1,1.1,0,0,0,.8-.2,1.5,1.5,0,0,0,.6-.9h.2a2.4,2.4,0,0,1-.7,1.3,1.6,1.6,0,0,1-1.3.6,1.8,1.8,0,0,1-1.5-.7,2.1,2.1,0,0,1-.7-1.8,2.6,2.6,0,0,1,.7-2,1.9,1.9,0,0,1,1.6-.7,2.4,2.4,0,0,1,1.4.5,2.5,2.5,0,0,1,.5,1.5Zm0-.3h2.3a2,2,0,0,1-.1-.7l-.4-.4a.7.7,0,0,0-.6-.2,1.1,1.1,0,0,0-.8.3A1.8,1.8,0,0,0,80.5,99Z" transform="translate(-12.5 -10.1)" fill="#fff"/><path d="M96.8,95.1h2l4.4,5.4V96.3c0-.4,0-.7-.1-.8l-.7-.2h-.2v-.2h2.5v.2h-.2a.8.8,0,0,0-.7.3c-.1.1-.1.3-.1.7v6.2h-.2l-4.8-5.9v4.5c0,.5,0,.7.1.8a.9.9,0,0,0,.7.3h.2v.2H97.2v-.2h.2c.4,0,.6-.1.7-.3s.1-.4.1-.8V96c-.2-.2-.3-.4-.5-.4l-.4-.3h-.5Z" transform="translate(-12.5 -10.1)" fill="#fff"/><path d="M112.6,97.3a2,2,0,0,1,1.8.9,2.3,2.3,0,0,1,.6,1.6,3.5,3.5,0,0,1-.3,1.4,2.8,2.8,0,0,1-.9,1,2.7,2.7,0,0,1-1.2.3,2,2,0,0,1-1.8-.9,2.5,2.5,0,0,1-.6-1.6,3.7,3.7,0,0,1,.4-1.4,2.2,2.2,0,0,1,.9-1A2,2,0,0,1,112.6,97.3Zm-.1.4h-.6a1,1,0,0,0-.5.6,3.6,3.6,0,0,0-.2,1.1,4.1,4.1,0,0,0,.5,1.9,1.2,1.2,0,0,0,1.1.7,1.2,1.2,0,0,0,.9-.4,2.8,2.8,0,0,0,.3-1.5,3.2,3.2,0,0,0-.6-2A.9.9,0,0,0,112.5,97.7Z" transform="translate(-12.5 -10.1)" fill="#fff"/><path d="M121.7,101.3l.5.2a.6.6,0,0,1,.1.4c0,.2,0,.3-.1.4a.6.6,0,0,1-.5.2.4.4,0,0,1-.4-.2.5.5,0,0,1-.2-.4.8.8,0,0,1,.2-.4Z" transform="translate(-12.5 -10.1)" fill="#fff"/><path d="M140.9,101l-.5,1.4h-4.3v-.2a21.4,21.4,0,0,0,2.7-2.9,3.5,3.5,0,0,0,.7-2,1.5,1.5,0,0,0-.4-1.1,1.3,1.3,0,0,0-1-.4,1.7,1.7,0,0,0-1,.3,1.5,1.5,0,0,0-.6.9h-.2a2.1,2.1,0,0,1,.7-1.5,1.8,1.8,0,0,1,1.4-.6,2,2,0,0,1,1.5.6,1.8,1.8,0,0,1,.6,1.3,2.7,2.7,0,0,1-.3,1.2,12.9,12.9,0,0,1-1.3,1.8,16.5,16.5,0,0,1-1.7,1.8H140l.4-.2.3-.3Z" transform="translate(-12.5 -10.1)" fill="#fff"/><path d="M148.5,98.7l-1.2-1.1a2.9,2.9,0,0,1-.2-.9,2.1,2.1,0,0,1,.5-1.3,2.5,2.5,0,0,1,1.5-.5,2,2,0,0,1,1.4.5,1.4,1.4,0,0,1,.6,1.1,1.1,1.1,0,0,1-.3.8,3.2,3.2,0,0,1-1.2,1l1.2,1.2a1.7,1.7,0,0,1,.4,1.1,1.8,1.8,0,0,1-.6,1.4,2.5,2.5,0,0,1-1.5.5,1.9,1.9,0,0,1-1.6-.7,1.5,1.5,0,0,1-.2-2A4.4,4.4,0,0,1,148.5,98.7Zm.2.2a2.1,2.1,0,0,0-.6.8,1.7,1.7,0,0,0-.3,1,2.1,2.1,0,0,0,.4,1.1,1.3,1.3,0,0,0,1,.4,1.2,1.2,0,0,0,1.3-1.1,1.4,1.4,0,0,0-.2-.7A8,8,0,0,0,148.7,98.9Zm.6-.8.8-.9a1.9,1.9,0,0,0,.2-.7,1.2,1.2,0,0,0-.3-.9,1.2,1.2,0,0,0-1.8,0,.9.9,0,0,0-.3.7,1.3,1.3,0,0,0,.1.6l.4.5Z" transform="translate(-12.5 -10.1)" fill="#fff"/><path d="M157.4,96.5a3.6,3.6,0,0,1,.8-1.2,2.1,2.1,0,0,1,1.2-.4,1.5,1.5,0,0,1,1.3.6,1.2,1.2,0,0,1,.4.9,2.8,2.8,0,0,1-1,1.7,1.8,1.8,0,0,1,1,.7,2.1,2.1,0,0,1,.3,1.2,2.5,2.5,0,0,1-.6,1.6,2.8,2.8,0,0,1-2.2.9l-1-.2c-.2-.1-.3-.2-.3-.4a.4.4,0,0,1,.1-.3h.6l.4.2.5.2h.4a1.1,1.1,0,0,0,.9-.4,1.3,1.3,0,0,0,.4-1,1.1,1.1,0,0,0-.2-.8.5.5,0,0,0-.3-.5,1.5,1.5,0,0,0-.6-.4h-1v-.2a1.6,1.6,0,0,0,.9-.3,1.7,1.7,0,0,0,.6-.6,2.4,2.4,0,0,0,.2-.8,1,1,0,0,0-.4-.9,1.1,1.1,0,0,0-.8-.3,1.6,1.6,0,0,0-1.4.9Z" transform="translate(-12.5 -10.1)" fill="#fff"/><path d="M169.4,98.7l-1.1-1.1a2.9,2.9,0,0,1-.2-.9,2.1,2.1,0,0,1,.5-1.3,2.5,2.5,0,0,1,1.5-.5,2.2,2.2,0,0,1,1.4.5,1.3,1.3,0,0,1,.5,1.1,1.9,1.9,0,0,1-.2.8,2.9,2.9,0,0,1-1.3,1,5.2,5.2,0,0,1,1.3,1.2,1.7,1.7,0,0,1,.4,1.1,1.8,1.8,0,0,1-.6,1.4,2.5,2.5,0,0,1-1.5.5,1.9,1.9,0,0,1-1.6-.7,1.5,1.5,0,0,1-.2-2A3.8,3.8,0,0,1,169.4,98.7Zm.3.2-.7.8a3,3,0,0,0-.2,1,2.1,2.1,0,0,0,.4,1.1,1.3,1.3,0,0,0,1,.4,1.2,1.2,0,0,0,.9-.3,1.1,1.1,0,0,0,.3-.8.8.8,0,0,0-.2-.7A5.1,5.1,0,0,0,169.7,98.9Zm.6-.8.8-.9a1.9,1.9,0,0,0,.2-.7,1.2,1.2,0,0,0-.3-.9,1.2,1.2,0,0,0-1.8,0,.9.9,0,0,0-.3.7,1.3,1.3,0,0,0,.1.6l.4.5Z" transform="translate(-12.5 -10.1)" fill="#fff"/><path d="M178.9,95.1h3.9v.2l-2.4,7.2h-.6L182,96h-2.9a1.9,1.9,0,0,0-.7.8h-.2Z" transform="translate(-12.5 -10.1)" fill="#fff"/><path d="M188.7,98.8a4.8,4.8,0,0,1,.4-2.2,3.4,3.4,0,0,1,1-1.3,2.1,2.1,0,0,1,1-.4,1.8,1.8,0,0,1,1.5.9,4.3,4.3,0,0,1,.8,2.9,6.6,6.6,0,0,1-.3,2.1,3.4,3.4,0,0,1-1,1.3,1.5,1.5,0,0,1-1.1.4c-.7,0-1.2-.4-1.7-1.2A5.1,5.1,0,0,1,188.7,98.8Zm1.1.1a9,9,0,0,0,.3,2.5c.3.5.6.8,1,.8a.9.9,0,0,0,.6-.3,1.9,1.9,0,0,0,.4-.9,8.8,8.8,0,0,0,.3-2.6,6.6,6.6,0,0,0-.3-2.1,1.2,1.2,0,0,0-.5-.8c-.1-.2-.3-.2-.5-.2a.9.9,0,0,0-.7.3,3.8,3.8,0,0,0-.5,1.4A12.8,12.8,0,0,0,189.8,98.9Z" transform="translate(-12.5 -10.1)" fill="#fff"/></svg>