<svg xmlns="http://www.w3.org/2000/svg" xmlns:xlink="http://www.w3.org/1999/xlink" width="4.5in" height="2.4in" viewBox="0 0 324.6 175.5"><defs><linearGradient id="a" x1="185.53" y1="170.46" x2="313.31" y2="170.46" gradientUnits="userSpaceOnUse"><stop offset="0" stop-color="#001e57"/><stop offset="0.5" stop-color="#0046ce"/></linearGradient><linearGradient id="b" x1="76.71" y1="176.58" x2="151.31" y2="174.76" gradientUnits="userSpaceOnUse"><stop offset="0.13" stop-color="#ff7200"/><stop offset="0.38" stop-color="#ff8700"/><stop offset="0.72" stop-color="#ff9e00"/><stop offset="0.93" stop-color="#ffa700"/></linearGradient><linearGradient id="c" x1="13.52" y1="186.06" x2="76.3" y2="179.69" gradientUnits="userSpaceOnUse"><stop offset="0" stop-color="#de183d"/><stop offset="0.84" stop-color="#ff3056"/></linearGradient><linearGradient id="d" x1="200.91" y1="98.26" x2="266.08" y2="94.17" xlink:href="#a"/><linearGradient id="e" x1="209.59" y1="236.39" x2="274.76" y2="232.29" xlink:href="#a"/><linearGradient id="f" x1="201.06" y1="100.59" x2="266.22" y2="96.5" xlink:href="#a"/><linearGradient id="g" x1="203.07" y1="132.64" x2="268.24" y2="128.54" xlink:href="#a"/><linearGradient id="h" x1="202.22" y1="119.15" x2="267.39" y2="115.06" xlink:href="#a"/><linearGradient id="i" x1="81.62" y1="130.77" x2="153.27" y2="113.37" xlink:href="#b"/><linearGradient id="j" x1="80.12" y1="124.62" x2="151.77" y2="107.22" xlink:href="#b"/><linearGradient id="k" x1="110.91" y1="251.4" x2="182.56" y2="234" xlink:href="#b"/><linearGradient id="l" x1="107.73" y1="238.29" x2="179.38" y2="220.89" xlink:href="#b"/><linearGradient id="m" x1="107.38" y1="236.87" x2="179.03" y2="219.47" xlink:href="#b"/><linearGradient id="n" x1="112.54" y1="258.09" x2="184.19" y2="240.69" xlink:href="#b"/><linearGradient id="o" x1="108.23" y1="240.35" x2="179.88" y2="222.94" xlink:href="#b"/><linearGradient id="p" x1="82.12" y1="132.86" x2="153.77" y2="115.46" xlink:href="#b"/><linearGradient id="q" x1="76.55" y1="109.91" x2="148.2" y2="92.51" xlink:href="#b"/><linearGradient id="r" x1="-23.95" y1="157.73" x2="49.06" y2="138.96" xlink:href="#c"/><linearGradient id="s" x1="-11.31" y1="206.94" x2="61.71" y2="188.17" xlink:href="#c"/><linearGradient id="t" x1="-1.32" y1="245.79" x2="71.69" y2="227.03" xlink:href="#c"/><linearGradient id="u" x1="-2.62" y1="240.73" x2="70.39" y2="221.96" xlink:href="#c"/><linearGradient id="v" x1="-2.21" y1="242.33" x2="70.8" y2="223.57" xlink:href="#c"/><linearGradient id="w" x1="-20.93" y1="169.51" x2="52.09" y2="150.74" xlink:href="#c"/><linearGradient id="x" x1="-23.29" y1="160.31" x2="49.72" y2="141.55" xlink:href="#c"/><linearGradient id="y" x1="200.84" y1="97.14" x2="266.01" y2="93.05" xlink:href="#a"/><linearGradient id="z" x1="210.05" y1="243.76" x2="275.22" y2="239.67" xlink:href="#a"/><linearGradient id="aa" x1="209.46" y1="234.27" x2="274.62" y2="230.18" xlink:href="#a"/><linearGradient id="ab" x1="208.29" y1="215.72" x2="273.46" y2="211.63" xlink:href="#a"/><linearGradient id="ac" x1="206.29" y1="183.9" x2="271.46" y2="179.81" xlink:href="#a"/></defs><path d="M275.6,112.6c-31.7-10.9-69.3,4.5-84.1,34.4-10.7,21.6-6.5,44.9,8.6,60.2l-10.5,24.6,35-10.1c29.1,7.8,66.4-4,81.8-32.6C323.5,157.2,307.3,123.5,275.6,112.6Z" transform="translate(-5.1 -80.9)" fill="url(#a)"/><path d="M186.5,234.6l11.4-27c-15.3-16.3-18.5-40.3-8-61.4,15.1-30.6,53.8-46.5,86.3-35.3,16.5,5.7,29.4,17.7,35.4,32.8s4.4,31.2-3.6,46.2c-16.4,30.5-55.2,41-83.4,33.7Zm67.9-123.7c-25.1,0-50.1,14.2-61.3,36.9-9.9,20.1-6.7,42.9,8.3,58.2l.8.8L192.8,229l31.7-9.2h.5c27,7.3,64.1-2.6,79.8-31.7,7.6-14.1,8.8-29.4,3.4-43.1s-17.7-25.4-33.2-30.8h0A63.6,63.6,0,0,0,254.4,110.9Z" transform="translate(-5.1 -80.9)" fill="#fff"/><path d="M241.8,171.4a53.1,53.1,0,0,1,9.3-8.6,47.5,47.5,0,0,0,7.4-6.8,9.2,9.2,0,0,0,2.1-6.9,7.3,7.3,0,0,0-3.4-5.9,15.3,15.3,0,0,0-8.8-2.3,23.1,23.1,0,0,0-10.5,2.4,22.3,22.3,0,0,0-7.9,6.8l-13.2-9.3a33.7,33.7,0,0,1,13.9-11.5,48.3,48.3,0,0,1,20.6-4.2c8.5,0,15.4,1.9,20.7,5.5s8.2,8.6,8.6,14.8a21.6,21.6,0,0,1-1.5,9.8,25,25,0,0,1-4.8,6.9,82.5,82.5,0,0,1-7.5,6.2,58.2,58.2,0,0,0-7.7,6.7,12.5,12.5,0,0,0-3.3,6.7H237.6A18.8,18.8,0,0,1,241.8,171.4ZM236,209.1a10.5,10.5,0,0,1-3.6-7.2,10.1,10.1,0,0,1,3-8.3,11.5,11.5,0,0,1,8.5-3.3,11.8,11.8,0,0,1,8,2.8,10.1,10.1,0,0,1,3.6,7.1,10.7,10.7,0,0,1-3,8.4,11,11,0,0,1-8.3,3.4A12.1,12.1,0,0,1,236,209.1Z" transform="translate(-5.1 -80.9)" fill="#fff"/><path d="M167.4,121.4c-29.7-10.3-65,4.2-78.9,32.2-10,20.3-6,42.1,8.1,56.5l-9.8,23,32.8-9.5c27.3,7.4,62.3-3.7,76.7-30.6C212.4,163.1,197.1,131.6,167.4,121.4Z" transform="translate(-5.1 -80.9)" fill="url(#b)"/><path d="M83.7,235.9l10.8-25.4c-14.4-15.4-17.4-37.9-7.6-57.7,14.3-28.8,50.6-43.6,81.1-33.1h0c15.6,5.3,27.7,16.5,33.2,30.8s4.3,29.3-3.3,43.4c-15.4,28.6-51.8,38.5-78.3,31.6Zm63.8-116c-23.5,0-46.8,13.2-57.3,34.5-9.3,18.8-6.3,40.2,7.7,54.4l.8.9L90,230.3l29.6-8.5h.4a66.1,66.1,0,0,0,16.8,2.1c22.1,0,46.3-10.3,57.9-31.8,7.1-13.2,8.2-27.5,3.2-40.4s-16.5-23.7-31.1-28.7h0A57.9,57.9,0,0,0,147.5,119.9Z" transform="translate(-5.1 -80.9)" fill="#fff"/><path d="M136.4,176.6a46.6,46.6,0,0,1,8.1-7.5,43.5,43.5,0,0,0,6.4-5.8,8.7,8.7,0,0,0,1.8-5.9,6.7,6.7,0,0,0-3-5.1,12.8,12.8,0,0,0-7.5-2,19.4,19.4,0,0,0-9.1,2.1,19.7,19.7,0,0,0-6.8,5.8l-11.4-8a29.4,29.4,0,0,1,12-9.9,41.8,41.8,0,0,1,17.7-3.6c7.4,0,13.3,1.6,17.9,4.8a15.8,15.8,0,0,1,7.3,12.7,17.3,17.3,0,0,1-1.3,8.4,16.9,16.9,0,0,1-4.1,5.9,68.4,68.4,0,0,1-6.4,5.4,55.8,55.8,0,0,0-6.7,5.8,10.3,10.3,0,0,0-2.8,5.7H132.8A17.1,17.1,0,0,1,136.4,176.6ZM131.5,209a8.7,8.7,0,0,1-3.1-6.2,8.9,8.9,0,0,1,2.6-7.2,10.8,10.8,0,0,1,14.2-.3,8,8,0,0,1,3,6,9.1,9.1,0,0,1-2.5,7.3,9.8,9.8,0,0,1-7.2,2.9A10,10,0,0,1,131.5,209Z" transform="translate(-5.1 -80.9)" fill="#fff"/><path d="M77.8,148.5c-18.8-6.5-41.2,2.7-50,20.4-6.3,12.9-3.9,26.7,5.1,35.8l-6.2,14.7,20.8-6.1C64.8,218,87,211,96.1,193.9,106.3,175,96.7,155,77.8,148.5Z" transform="translate(-5.1 -80.9)" fill="url(#c)"/><path d="M23.6,222.2l7.2-17.1c-9.1-9.9-10.9-24.3-4.6-37,9.2-18.5,32.6-28.1,52.2-21.3a34.6,34.6,0,0,1,21.5,19.9c3.5,9,2.7,19-2.2,28.1-9.9,18.4-33.1,24.8-50.2,20.4Zm41.6-74c-14.7,0-29.2,8.3-35.8,21.5s-3.9,24.9,4.8,33.8l.8.8-5.2,12.3,17.7-5.1H48c15.7,4.2,37.4-1.5,46.5-18.5,4.4-8.2,5.1-17.1,2-25.1s-10.2-14.7-19.3-17.8h0A35.2,35.2,0,0,0,65.2,148.2Z" transform="translate(-5.1 -80.9)" fill="#fff"/><path d="M57.3,183.6a35.8,35.8,0,0,1,4.8-4.4,27.7,27.7,0,0,0,3.8-3.5,4.8,4.8,0,0,0,1.1-3.5,3.7,3.7,0,0,0-1.8-3,7.5,7.5,0,0,0-4.5-1.2,11.8,11.8,0,0,0-5.3,1.2,11.5,11.5,0,0,0-4.1,3.5L44.5,168a16.2,16.2,0,0,1,7.2-5.9,23.5,23.5,0,0,1,10.5-2.2,18.7,18.7,0,0,1,10.6,2.8,9.7,9.7,0,0,1,4.4,7.6,11.2,11.2,0,0,1-.8,5,9.9,9.9,0,0,1-2.4,3.5,37.3,37.3,0,0,1-3.9,3.2,38.1,38.1,0,0,0-3.9,3.5,6.1,6.1,0,0,0-1.7,3.4H55.2A10.6,10.6,0,0,1,57.3,183.6Zm-2.9,19.3a5.2,5.2,0,0,1-1.9-3.7,5.3,5.3,0,0,1,1.6-4.3,5.7,5.7,0,0,1,4.3-1.6,6.4,6.4,0,0,1,4.1,1.4,5,5,0,0,1,1.9,3.6,5.5,5.5,0,0,1-1.6,4.3,5.4,5.4,0,0,1-4.2,1.8A6,6,0,0,1,54.4,202.9Z" transform="translate(-5.1 -80.9)" fill="#fff"/><path d="M238.9,99.3a3.4,3.4,0,0,1-3.5-3.4,3.5,3.5,0,1,1,6.9,0A3.4,3.4,0,0,1,238.9,99.3Zm0-5.7a2.3,2.3,0,1,0,0,4.5,2.2,2.2,0,0,0,2.2-2.2A2.2,2.2,0,0,0,238.9,93.6Z" transform="translate(-5.1 -80.9)" fill="url(#d)"/><path d="M293.4,234.8a3.6,3.6,0,0,1-3.7-3.7,3.7,3.7,0,1,1,7.3,0A3.6,3.6,0,0,1,293.4,234.8Zm0-6.2a2.5,2.5,0,0,0-2.5,2.5,2.5,2.5,0,1,0,4.9,0A2.5,2.5,0,0,0,293.4,228.6Z" transform="translate(-5.1 -80.9)" fill="url(#e)"/><path d="M304.2,101.1a7,7,0,0,1,0-14,7,7,0,0,1,0,14Zm0-12.8a5.8,5.8,0,1,0,5.8,5.8A5.8,5.8,0,0,0,304.2,88.3Z" transform="translate(-5.1 -80.9)" fill="url(#f)"/><path d="M314.1,129.8a4.2,4.2,0,1,1,4.1-4.1A4.1,4.1,0,0,1,314.1,129.8Zm0-7.1a3,3,0,1,0,2.9,3A2.9,2.9,0,0,0,314.1,122.7Z" transform="translate(-5.1 -80.9)" fill="url(#g)"/><path d="M200.5,123.2a3.9,3.9,0,0,1-3.9-3.9,3.8,3.8,0,0,1,3.9-3.9,3.9,3.9,0,0,1,3.9,3.9A4,4,0,0,1,200.5,123.2Zm0-6.6a2.7,2.7,0,1,0,2.7,2.7A2.7,2.7,0,0,0,200.5,116.6Z" transform="translate(-5.1 -80.9)" fill="url(#h)"/><path d="M174.4,115.7a7.5,7.5,0,0,1-7.4-7.5,7.4,7.4,0,0,1,7.4-7.4,7.5,7.5,0,0,1,7.5,7.4A7.6,7.6,0,0,1,174.4,115.7Zm0-13.7a6.3,6.3,0,1,0,6.3,6.2A6.2,6.2,0,0,0,174.4,102Z" transform="translate(-5.1 -80.9)" fill="url(#i)"/><path d="M113.1,120.5a3.8,3.8,0,0,1-3.9-3.9,3.9,3.9,0,0,1,7.8,0A3.8,3.8,0,0,1,113.1,120.5Zm0-6.6a2.7,2.7,0,1,0,2.7,2.7A2.7,2.7,0,0,0,113.1,113.9Z" transform="translate(-5.1 -80.9)" fill="url(#j)"/><path d="M167.2,244.5a6.8,6.8,0,1,1,6.7-6.8A6.7,6.7,0,0,1,167.2,244.5Zm0-12.3a5.6,5.6,0,1,0,5.5,5.5A5.6,5.6,0,0,0,167.2,232.2Z" transform="translate(-5.1 -80.9)" fill="url(#k)"/><path d="M180.8,222.5a2,2,0,0,1-1.9-2,2,2,0,0,1,1.9-1.9,2,2,0,1,1,0,3.9Zm0-2.7a.7.7,0,0,0-.7.7.8.8,0,0,0,.7.8.9.9,0,0,0,.8-.8A.8.8,0,0,0,180.8,219.8Z" transform="translate(-5.1 -80.9)" fill="url(#l)"/><path d="M121,237a3.5,3.5,0,0,1,0-6.9,3.5,3.5,0,1,1,0,6.9Zm0-5.7a2.2,2.2,0,0,0-2.2,2.3,2.2,2.2,0,0,0,2.2,2.2,2.3,2.3,0,1,0,0-4.5Z" transform="translate(-5.1 -80.9)" fill="url(#m)"/><path d="M140.9,256.4a5.2,5.2,0,1,1,5.2-5.2A5.2,5.2,0,0,1,140.9,256.4Zm0-9.2a4,4,0,1,0,4,4A4,4,0,0,0,140.9,247.2Z" transform="translate(-5.1 -80.9)" fill="url(#n)"/><path d="M99.9,244.5a2.1,2.1,0,0,1-2.2-2.1,2.2,2.2,0,1,1,4.3,0A2.1,2.1,0,0,1,99.9,244.5Zm0-3.1a1,1,0,0,0-1,1,.9.9,0,0,0,1,.9.9.9,0,0,0,.9-.9A1,1,0,0,0,99.9,241.4Z" transform="translate(-5.1 -80.9)" fill="url(#o)"/><path d="M89.1,135.5a4.4,4.4,0,0,1-4.4-4.3,4.4,4.4,0,0,1,4.4-4.4,4.4,4.4,0,0,1,4.3,4.4A4.3,4.3,0,0,1,89.1,135.5Zm0-7.5a3.2,3.2,0,1,0,0,6.3,3.2,3.2,0,0,0,0-6.3Z" transform="translate(-5.1 -80.9)" fill="url(#p)"/><path d="M140.7,100.7a6.4,6.4,0,0,1-6.4-6.4,6.4,6.4,0,0,1,6.4-6.3,6.3,6.3,0,0,1,6.3,6.3A6.4,6.4,0,0,1,140.7,100.7Zm0-11.5a5.2,5.2,0,1,0,5.1,5.1A5.1,5.1,0,0,0,140.7,89.2Z" transform="translate(-5.1 -80.9)" fill="url(#q)"/><path d="M39.9,145.7a4.4,4.4,0,0,1-4.4-4.4,4.4,4.4,0,0,1,4.4-4.3,4.3,4.3,0,0,1,4.3,4.3A4.4,4.4,0,0,1,39.9,145.7Zm0-7.5a3.2,3.2,0,1,0,3.1,3.1A3.1,3.1,0,0,0,39.9,138.2Z" transform="translate(-5.1 -80.9)" fill="url(#r)"/><path d="M9.6,206.1a4.6,4.6,0,0,1,0-9.1,4.6,4.6,0,1,1,0,9.1Zm0-7.9a3.4,3.4,0,1,0,3.4,3.4A3.4,3.4,0,0,0,9.6,198.2Z" transform="translate(-5.1 -80.9)" fill="url(#s)"/><path d="M56.6,237.9a7,7,0,1,1,7-7A7,7,0,0,1,56.6,237.9Zm0-12.8a5.8,5.8,0,1,0,5.8,5.8A5.8,5.8,0,0,0,56.6,225.1Z" transform="translate(-5.1 -80.9)" fill="url(#t)"/><path d="M73.4,224.2a3,3,0,1,1,3-3A2.9,2.9,0,0,1,73.4,224.2Zm0-4.8a1.8,1.8,0,1,0,1.8,1.8A1.8,1.8,0,0,0,73.4,219.4Z" transform="translate(-5.1 -80.9)" fill="url(#u)"/><path d="M33.7,235.7a2.6,2.6,0,0,1,0-5.2,2.6,2.6,0,1,1,0,5.2Zm0-4a1.4,1.4,0,0,0,0,2.8,1.4,1.4,0,0,0,0-2.8Z" transform="translate(-5.1 -80.9)" fill="url(#v)"/><path d="M14,167.3a6.8,6.8,0,0,1,0-13.6,6.8,6.8,0,0,1,0,13.6Zm0-12.4a5.6,5.6,0,1,0,5.6,5.6A5.6,5.6,0,0,0,14,154.9Z" transform="translate(-5.1 -80.9)" fill="url(#w)"/><path d="M63.5,140.8a2.7,2.7,0,0,1-2.8-2.8,2.8,2.8,0,0,1,2.8-2.8,2.9,2.9,0,0,1,2.8,2.8A2.8,2.8,0,0,1,63.5,140.8Zm0-4.4a1.6,1.6,0,0,0,0,3.2,1.6,1.6,0,0,0,0-3.2Z" transform="translate(-5.1 -80.9)" fill="url(#x)"/><path d="M270.2,104.6A11.9,11.9,0,1,1,282,92.8,11.9,11.9,0,0,1,270.2,104.6Zm0-22.5a10.7,10.7,0,1,0,0,21.3,10.7,10.7,0,0,0,0-21.3Z" transform="translate(-5.1 -80.9)" fill="url(#y)"/><path d="M256.7,248.5a7.7,7.7,0,1,1,7.7-7.7A7.6,7.6,0,0,1,256.7,248.5Zm0-14.1a6.5,6.5,0,1,0,6.5,6.4A6.4,6.4,0,0,0,256.7,234.4Z" transform="translate(-5.1 -80.9)" fill="url(#z)"/><path d="M217.5,236.6a2.8,2.8,0,0,1-2.8-2.8,2.7,2.7,0,0,1,2.8-2.8,2.8,2.8,0,0,1,2.8,2.8A2.9,2.9,0,0,1,217.5,236.6Zm0-4.4a1.6,1.6,0,0,0,0,3.2,1.6,1.6,0,0,0,0-3.2Z" transform="translate(-5.1 -80.9)" fill="url(#aa)"/><path d="M308.9,212a2.6,2.6,0,1,1,2.6-2.6A2.6,2.6,0,0,1,308.9,212Zm0-4a1.4,1.4,0,1,0,0,2.8,1.4,1.4,0,1,0,0-2.8Z" transform="translate(-5.1 -80.9)" fill="url(#ab)"/><path d="M325.6,180.5a4.1,4.1,0,1,1,4.1-4.1A4.1,4.1,0,0,1,325.6,180.5Zm0-7a2.9,2.9,0,1,0,0,5.8,2.9,2.9,0,0,0,0-5.8Z" transform="translate(-5.1 -80.9)" fill="url(#ac)"/></svg>