<svg width="406" height="370" viewBox="0 0 406 370" fill="none" xmlns="http://www.w3.org/2000/svg">
<g filter="url(#filter0_d_111_7)">
<path d="M103.536 271.413C129.935 271.413 155.253 261.892 173.919 244.945C192.586 227.998 203.073 205.013 203.073 181.046H4C4 205.013 14.4868 227.998 33.1535 244.945C51.8203 261.892 77.1377 271.413 103.536 271.413Z" fill="url(#paint0_linear_111_7)"/>
<path d="M202.927 361.779C257.9 361.779 302.464 321.32 302.464 271.412C302.464 221.504 257.9 181.046 202.927 181.046C147.955 181.046 103.391 221.504 103.391 271.412C103.391 321.32 147.955 361.779 202.927 361.779Z" fill="url(#paint1_linear_111_7)"/>
<path d="M302.464 271.413C357.436 271.413 402 230.954 402 181.046C402 131.138 357.436 90.6796 302.464 90.6796C247.491 90.6796 202.927 131.138 202.927 181.046C202.927 230.954 247.491 271.413 302.464 271.413Z" fill="url(#paint2_linear_111_7)"/>
<path d="M202.927 181.178C257.9 181.178 302.464 140.72 302.464 90.812C302.464 40.904 257.9 0.445557 202.927 0.445557C147.955 0.445557 103.391 40.904 103.391 90.812C103.391 140.72 147.955 181.178 202.927 181.178Z" fill="url(#paint3_linear_111_7)"/>
<path d="M103.536 90.8121C90.472 90.7947 77.532 93.1158 65.4565 97.6427C53.3811 102.17 42.4071 108.813 33.1624 117.194C23.9176 125.575 16.5835 135.528 11.5796 146.484C6.57562 157.441 3.99999 169.185 4 181.046H203.073C203.073 169.185 200.497 157.441 195.493 146.484C190.489 135.528 183.155 125.575 173.911 117.194C164.666 108.813 153.692 102.17 141.616 97.6427C129.541 93.1158 116.601 90.7947 103.536 90.8121Z" fill="#0CD4EE"/>
<g filter="url(#filter1_d_111_7)">
<path d="M132.583 160.59C131.389 161.316 129.967 161.368 128.374 161.887C124.507 153.637 118.08 147.929 108.524 145.542C102.114 143.863 95.2579 144.323 89.186 146.839C77.5831 151.561 69.791 162.561 72.1798 176.364C71.7248 177.038 70.8716 176.831 70.1891 177.142C69.4985 177.444 68.7143 177.517 67.9709 177.35C63.9895 164.378 72.5779 146.58 91.4042 141.495C108.922 136.825 127.237 145.853 132.583 160.59Z" fill="white"/>
<path d="M130.081 168.165C131.332 167.024 132.924 167.439 134.119 166.557C137.077 180.878 127.407 196.185 111.084 200.595C93.2244 205.473 76.4457 197.378 70.0186 183.576L74.455 182.331C78.0951 189.128 83.7828 193.902 91.6887 196.393C96.9808 198.084 102.708 198.283 108.126 196.963C114.975 195.324 120.95 191.494 124.962 186.171C129.114 180.722 130.479 174.599 130.081 168.165Z" fill="white"/>
<path d="M58.8136 184.925C58.5292 183.68 57.6761 182.85 58.1311 181.501L140.83 159.863C141.797 161.161 141.797 161.161 142.138 163.132L58.8136 184.925Z" fill="white"/>
<path d="M92.5418 171.279C87.0247 166.142 89.2998 160.175 97.4332 157.165C98.3432 156.075 97.2625 154.571 98.4001 153.429C99.5376 152.288 101.642 153.325 103.235 153.222C104.315 154.415 103.405 155.764 104.202 157.061C106.988 157.788 109.946 158.722 111.709 161.264C112.335 162.146 113.074 162.977 112.733 164.222C110.856 164.637 108.979 164.274 106.988 164.429C105.851 163.028 104.486 161.887 102.552 161.472C101.248 161.212 99.8866 161.358 98.6845 161.887C98.1831 162.044 97.7461 162.337 97.4312 162.726C97.1163 163.115 96.9385 163.583 96.9213 164.066C96.8538 164.583 96.9656 165.107 97.2411 165.563C97.5166 166.019 97.9418 166.385 98.457 166.609C99.7215 167.197 101.087 167.583 102.495 167.75C102.836 167.854 103.235 167.802 103.519 168.425L92.5418 171.279Z" fill="white"/>
<path d="M112.62 172.368C114.269 175.378 114.326 178.18 112.278 180.826C110.231 183.472 107.387 184.458 104.429 185.029C103.406 186.222 104.088 187.468 103.519 188.661C101.809 189.103 99.9973 189.103 98.2866 188.661C97.4334 187.52 98.1729 186.326 97.4903 185.029C93.7933 184.251 90.3807 182.746 88.7881 178.854C90.6082 177.868 92.7695 177.713 94.874 177.038C96.694 179.892 99.481 180.67 102.837 180.255C104.372 180.1 105.681 179.736 106.193 178.283C106.704 176.831 106.079 176.104 104.259 174.911L103.974 174.651L112.62 172.368Z" fill="white"/>
</g>
<g filter="url(#filter2_d_111_7)">
<path d="M334.622 204.386H331.831V165.406C331.831 164.53 331.481 163.69 330.858 163.07C330.234 162.451 329.389 162.103 328.508 162.103H322.527C321.646 162.103 320.8 162.451 320.177 163.07C319.554 163.69 319.204 164.53 319.204 165.406V204.386H312.293V182.98C312.258 182.127 311.893 181.32 311.274 180.729C310.654 180.138 309.828 179.808 308.97 179.809H302.989C302.13 179.808 301.304 180.138 300.685 180.729C300.065 181.32 299.7 182.127 299.666 182.98V204.386H292.754V193.287C292.754 192.853 292.668 192.423 292.501 192.022C292.334 191.622 292.09 191.257 291.781 190.951C291.473 190.644 291.106 190.401 290.703 190.235C290.3 190.069 289.868 189.983 289.432 189.983H283.451C282.569 189.983 281.724 190.331 281.101 190.951C280.478 191.57 280.128 192.41 280.128 193.287V204.386H277.204C277.035 204.385 276.867 204.419 276.713 204.487C276.558 204.555 276.42 204.655 276.307 204.78C276.194 204.904 276.109 205.052 276.057 205.212C276.006 205.371 275.989 205.54 276.007 205.707C276.007 206.023 276.133 206.325 276.358 206.548C276.582 206.771 276.886 206.896 277.204 206.896H334.622C334.939 206.896 335.243 206.771 335.468 206.548C335.692 206.325 335.818 206.023 335.818 205.707C335.837 205.54 335.82 205.371 335.768 205.212C335.717 205.052 335.632 204.904 335.518 204.78C335.405 204.655 335.267 204.555 335.113 204.487C334.958 204.419 334.791 204.385 334.622 204.386ZM290.362 204.386H282.52V193.287C282.552 193.065 282.664 192.862 282.836 192.716C283.007 192.571 283.225 192.491 283.451 192.494H289.432C289.657 192.491 289.876 192.571 290.047 192.716C290.218 192.862 290.33 193.065 290.362 193.287V204.386ZM309.9 204.386H302.058V182.98C302.09 182.758 302.203 182.556 302.374 182.41C302.545 182.264 302.763 182.185 302.989 182.187H308.97C309.195 182.185 309.414 182.264 309.585 182.41C309.756 182.556 309.868 182.758 309.9 182.98V204.386ZM329.438 204.386H321.729V165.406C321.729 164.877 321.995 164.481 322.527 164.481H328.508C328.755 164.481 328.991 164.578 329.166 164.752C329.34 164.925 329.438 165.161 329.438 165.406V204.386Z" fill="white"/>
<path d="M331.831 145.321C331.876 145.158 331.876 144.985 331.829 144.822C331.782 144.659 331.691 144.512 331.565 144.396C331.313 144.158 330.983 144.018 330.635 144H323.059C322.73 144.033 322.425 144.186 322.204 144.431C321.983 144.675 321.861 144.993 321.863 145.321C321.863 145.637 321.989 145.939 322.213 146.162C322.437 146.385 322.742 146.511 323.059 146.511H327.711L315.483 158.667L310.831 154.042C310.742 153.915 310.622 153.812 310.483 153.743C310.344 153.674 310.189 153.64 310.033 153.646C309.859 153.64 309.685 153.673 309.524 153.741C309.363 153.81 309.22 153.913 309.103 154.042L286.907 176.109C286.701 176.348 286.588 176.653 286.588 176.968C286.588 177.283 286.701 177.587 286.907 177.827C287.023 177.956 287.167 178.059 287.328 178.128C287.488 178.196 287.662 178.229 287.837 178.223C287.993 178.229 288.147 178.195 288.287 178.126C288.426 178.057 288.546 177.954 288.634 177.827L310.033 156.685L314.552 161.178C314.664 161.294 314.798 161.386 314.947 161.449C315.095 161.512 315.255 161.544 315.416 161.544C315.578 161.544 315.738 161.512 315.886 161.449C316.035 161.386 316.169 161.294 316.28 161.178L329.439 148.228V152.325C329.439 152.64 329.565 152.942 329.789 153.165C330.013 153.388 330.318 153.514 330.635 153.514C330.952 153.514 331.256 153.388 331.481 153.165C331.705 152.942 331.831 152.64 331.831 152.325V145.453V145.321Z" fill="white"/>
</g>
<g filter="url(#filter3_d_111_7)">
<path d="M225.84 48.6082C223.895 46.6862 221.59 45.1674 219.057 44.1391C216.524 43.1107 213.812 42.593 211.078 42.6157C205.723 42.7998 200.64 45.0191 196.865 48.8212C193.09 52.6233 190.908 57.722 190.762 63.0779C190.705 66.2546 191.389 69.4009 192.758 72.2676C194.128 75.1343 196.147 77.6426 198.655 79.5938C199.833 80.5228 200.797 81.6964 201.478 83.0338C202.159 84.3712 202.542 85.8404 202.601 87.3402V93.4788C202.601 96.9866 204.939 98.7405 206.986 98.7405H215.755C216.932 98.7411 218.063 98.2839 218.908 97.4655C219.754 96.6472 220.248 95.5319 220.286 94.3558V87.6325C220.297 86.0253 220.67 84.4412 221.379 82.9986C222.087 81.5561 223.113 80.2922 224.378 79.3015C226.805 77.4181 228.766 75.0016 230.109 72.2391C231.452 69.4765 232.142 66.442 232.125 63.3702C232.03 57.8193 229.775 52.524 225.84 48.6082ZM215.755 95.8174H206.986C205.524 95.8174 205.524 94.0635 205.524 93.4788V89.971H217.363V94.3558C217.364 94.5607 217.322 94.7635 217.239 94.951C217.157 95.1386 217.036 95.3068 216.884 95.4446C216.733 95.5824 216.554 95.6868 216.359 95.751C216.165 95.8153 215.959 95.8379 215.755 95.8174ZM222.625 76.9629C221.092 78.1834 219.832 79.7113 218.926 81.4483C218.02 83.1852 217.487 85.0927 217.363 87.0479H205.524C205.442 85.1402 204.942 83.2739 204.058 81.5815C203.173 79.8891 201.928 78.412 200.408 77.2552C198.255 75.5842 196.525 73.4304 195.357 70.9678C194.189 68.5052 193.617 65.8025 193.685 63.0779C193.87 58.4738 195.801 54.1129 199.086 50.882C202.371 47.6511 206.764 45.7928 211.37 45.685C213.667 45.6521 215.947 46.0743 218.079 46.9272C220.211 47.7802 222.154 49.0469 223.794 50.6544C225.469 52.3197 226.797 54.3014 227.701 56.4843C228.604 58.6672 229.065 61.0078 229.056 63.3702C229.069 65.9727 228.498 68.545 227.385 70.8975C226.272 73.25 224.645 75.3227 222.625 76.9629Z" fill="white"/>
<path d="M211.37 36.7695C211.568 36.793 211.768 36.7714 211.956 36.7062C212.144 36.6411 212.315 36.5341 212.456 36.3934C212.597 36.2527 212.704 36.0819 212.769 35.8939C212.834 35.7059 212.855 35.5055 212.832 35.3079V29.4616C212.832 29.0739 212.678 28.7022 212.404 28.4281C212.13 28.154 211.758 28 211.37 28C210.983 28 210.611 28.154 210.337 28.4281C210.063 28.7022 209.909 29.0739 209.909 29.4616V35.3079C209.885 35.5055 209.907 35.7059 209.972 35.8939C210.037 36.0819 210.144 36.2527 210.285 36.3934C210.426 36.5341 210.596 36.6411 210.784 36.7062C210.972 36.7714 211.173 36.793 211.37 36.7695Z" fill="white"/>
<path d="M234.171 38.5234L229.932 42.6158C229.655 42.9134 229.501 43.3051 229.501 43.712C229.501 44.1188 229.655 44.5105 229.932 44.8082C230.329 45.0413 230.79 45.1436 231.248 45.1005L232.125 44.8082L236.217 40.5696C236.385 40.4439 236.523 40.2838 236.624 40.0999C236.724 39.916 236.783 39.7128 236.798 39.5039C236.813 39.295 236.783 39.0854 236.71 38.8892C236.636 38.693 236.522 38.5149 236.374 38.3668C236.226 38.2187 236.048 38.1042 235.851 38.031C235.655 37.9578 235.446 37.9276 235.237 37.9424C235.028 37.9572 234.825 38.0168 234.641 38.117C234.457 38.2173 234.297 38.3558 234.171 38.5234Z" fill="white"/>
<path d="M245.425 61.9087H239.433C239.045 61.9087 238.673 62.0627 238.399 62.3368C238.125 62.6109 237.971 62.9826 237.971 63.3703C237.971 63.7579 238.125 64.1297 238.399 64.4038C238.673 64.6779 239.045 64.8319 239.433 64.8319H245.425C245.813 64.8319 246.185 64.6779 246.459 64.4038C246.733 64.1297 246.887 63.7579 246.887 63.3703C246.887 62.9826 246.733 62.6109 246.459 62.3368C246.185 62.0627 245.813 61.9087 245.425 61.9087Z" fill="white"/>
<path d="M232.125 82.2247C231.827 81.9473 231.435 81.7931 231.028 81.7931C230.622 81.7931 230.23 81.9473 229.932 82.2247C229.664 82.4979 229.514 82.8653 229.514 83.2478C229.514 83.6304 229.664 83.9977 229.932 84.2709L234.171 88.5095C234.514 88.742 234.928 88.8456 235.34 88.8019C235.925 88.8019 236.217 88.8019 236.217 88.5095C236.485 88.2363 236.635 87.869 236.635 87.4864C236.635 87.1039 236.485 86.7365 236.217 86.4633L232.125 82.2247Z" fill="white"/>
<path d="M190.47 82.2247L186.231 86.4632C185.963 86.7365 185.813 87.1038 185.813 87.4863C185.813 87.8689 185.963 88.2362 186.231 88.5095C186.619 88.7643 187.087 88.8683 187.547 88.8018C187.706 88.8253 187.868 88.8111 188.02 88.7603C188.172 88.7095 188.311 88.6236 188.424 88.5095L192.516 84.2709C192.684 84.1452 192.822 83.985 192.922 83.8012C193.023 83.6173 193.082 83.4141 193.097 83.2052C193.112 82.9963 193.082 82.7867 193.008 82.5905C192.935 82.3943 192.821 82.2162 192.673 82.0681C192.525 81.92 192.346 81.8055 192.15 81.7323C191.954 81.6591 191.744 81.6288 191.535 81.6437C191.327 81.6585 191.123 81.7181 190.939 81.8183C190.756 81.9186 190.595 82.0571 190.47 82.2247Z" fill="white"/>
<path d="M183.308 61.9087H177.462C177.074 61.9087 176.702 62.0627 176.428 62.3368C176.154 62.6109 176 62.9826 176 63.3703C176 63.7579 176.154 64.1297 176.428 64.4038C176.702 64.6779 177.074 64.8319 177.462 64.8319H183.308C183.696 64.8319 184.067 64.6779 184.341 64.4038C184.616 64.1297 184.77 63.7579 184.77 63.3703C184.77 62.9826 184.616 62.6109 184.341 62.3368C184.067 62.0627 183.696 61.9087 183.308 61.9087Z" fill="white"/>
<path d="M190.47 44.8081C190.813 45.0406 191.227 45.1441 191.639 45.1004C191.931 45.1004 192.224 44.8081 192.516 44.5158C192.793 44.2182 192.948 43.8264 192.948 43.4196C192.948 43.0127 192.793 42.621 192.516 42.3234L188.424 38.231C188.126 37.9536 187.734 37.7993 187.327 37.7993C186.921 37.7993 186.529 37.9536 186.231 38.231C185.963 38.5042 185.813 38.8715 185.813 39.2541C185.813 39.6366 185.963 40.004 186.231 40.2772L190.47 44.8081Z" fill="white"/>
<path d="M211.371 50.0698C210.983 50.0698 210.611 50.2238 210.337 50.4979C210.063 50.772 209.909 51.1437 209.909 51.5314C209.909 51.919 210.063 52.2908 210.337 52.5649C210.611 52.839 210.983 52.993 211.371 52.993C214.111 53.0308 216.729 54.1362 218.667 56.0742C220.604 58.0122 221.71 60.6298 221.748 63.3702C221.748 63.7578 221.902 64.1296 222.176 64.4037C222.45 64.6778 222.822 64.8318 223.209 64.8318C223.597 64.8318 223.969 64.6778 224.243 64.4037C224.517 64.1296 224.671 63.7578 224.671 63.3702C224.69 61.6181 224.36 59.8798 223.698 58.2573C223.037 56.6348 222.058 55.1607 220.819 53.9218C219.58 52.6828 218.106 51.7038 216.483 51.0423C214.861 50.3809 213.123 50.0502 211.371 50.0698Z" fill="white"/>
</g>
<g filter="url(#filter4_d_111_7)">
<path d="M206.817 279.988C206.816 280.625 207.059 281.239 207.496 281.703C207.933 282.167 208.53 282.446 209.167 282.484C209.817 282.449 210.432 282.174 210.892 281.714C211.353 281.253 211.627 280.638 211.663 279.988C211.606 278.6 211.233 277.243 210.571 276.021C209.91 274.8 208.977 273.746 207.845 272.94C206.107 271.666 204.096 270.811 201.972 270.444V267.948C201.972 267.621 201.908 267.296 201.782 266.993C201.657 266.69 201.473 266.415 201.241 266.183C201.009 265.952 200.734 265.768 200.431 265.642C200.129 265.517 199.804 265.452 199.476 265.452C199.155 265.452 198.837 265.517 198.542 265.644C198.247 265.771 197.981 265.957 197.761 266.191C197.541 266.425 197.371 266.702 197.262 267.004C197.153 267.306 197.107 267.628 197.127 267.948V270.444C194.95 270.784 192.886 271.64 191.107 272.94C189.975 273.746 189.043 274.8 188.381 276.021C187.719 277.243 187.346 278.6 187.29 279.988C187.346 281.397 187.718 282.775 188.378 284.02C189.039 285.266 189.972 286.346 191.107 287.182C192.897 288.436 194.961 289.241 197.127 289.532V299.222C194.19 298.488 192.135 296.726 192.135 294.67C192.155 294.35 192.109 294.028 192 293.726C191.891 293.424 191.721 293.147 191.501 292.914C191.281 292.68 191.015 292.493 190.72 292.366C190.425 292.239 190.107 292.174 189.786 292.174C189.124 292.174 188.489 292.437 188.021 292.905C187.553 293.374 187.29 294.008 187.29 294.67C187.357 296.056 187.735 297.409 188.395 298.629C189.056 299.849 189.983 300.905 191.107 301.718C192.897 302.971 194.961 303.777 197.127 304.067V306.71C197.107 307.031 197.153 307.352 197.262 307.654C197.371 307.956 197.541 308.233 197.761 308.467C197.981 308.701 198.247 308.887 198.542 309.014C198.837 309.141 199.155 309.207 199.476 309.206C199.804 309.206 200.129 309.142 200.431 309.016C200.734 308.891 201.009 308.707 201.241 308.475C201.473 308.243 201.657 307.968 201.782 307.665C201.908 307.362 201.972 307.038 201.972 306.71V304.067C204.085 303.749 206.096 302.945 207.845 301.718C208.969 300.905 209.896 299.849 210.557 298.629C211.218 297.409 211.596 296.056 211.663 294.67C211.607 293.262 211.235 291.884 210.574 290.638C209.913 289.393 208.98 288.312 207.845 287.476C206.096 286.249 204.085 285.445 201.972 285.127V275.436C204.762 276.17 206.817 277.932 206.817 279.988ZM192.135 279.988C192.135 277.932 194.19 276.17 197.127 275.436V284.54C194.19 283.952 192.135 282.043 192.135 279.988ZM206.817 294.67C206.817 296.726 204.762 298.488 201.972 299.222V289.972C204.762 290.706 206.817 292.468 206.817 294.67Z" fill="white"/>
<path d="M199.329 320.658C217.736 320.658 232.658 305.736 232.658 287.329C232.658 268.922 217.736 254 199.329 254C180.922 254 166 268.922 166 287.329C166 305.736 180.922 320.658 199.329 320.658Z" stroke="white" stroke-width="1.98" stroke-miterlimit="10"/>
</g>
</g>
<defs>
<filter id="filter0_d_111_7" x="0" y="0.445557" width="406" height="369.333" filterUnits="userSpaceOnUse" color-interpolation-filters="sRGB">
<feFlood flood-opacity="0" result="BackgroundImageFix"/>
<feColorMatrix in="SourceAlpha" type="matrix" values="0 0 0 0 0 0 0 0 0 0 0 0 0 0 0 0 0 0 127 0" result="hardAlpha"/>
<feOffset dy="4"/>
<feGaussianBlur stdDeviation="2"/>
<feComposite in2="hardAlpha" operator="out"/>
<feColorMatrix type="matrix" values="0 0 0 0 0 0 0 0 0 0 0 0 0 0 0 0 0 0 0.25 0"/>
<feBlend mode="normal" in2="BackgroundImageFix" result="effect1_dropShadow_111_7"/>
<feBlend mode="normal" in="SourceGraphic" in2="effect1_dropShadow_111_7" result="shape"/>
</filter>
<filter id="filter1_d_111_7" x="54" y="140.258" width="92.1384" height="69.7655" filterUnits="userSpaceOnUse" color-interpolation-filters="sRGB">
<feFlood flood-opacity="0" result="BackgroundImageFix"/>
<feColorMatrix in="SourceAlpha" type="matrix" values="0 0 0 0 0 0 0 0 0 0 0 0 0 0 0 0 0 0 127 0" result="hardAlpha"/>
<feOffset dy="4"/>
<feGaussianBlur stdDeviation="2"/>
<feComposite in2="hardAlpha" operator="out"/>
<feColorMatrix type="matrix" values="0 0 0 0 0 0 0 0 0 0 0 0 0 0 0 0 0 0 0.25 0"/>
<feBlend mode="normal" in2="BackgroundImageFix" result="effect1_dropShadow_111_7"/>
<feBlend mode="normal" in="SourceGraphic" in2="effect1_dropShadow_111_7" result="shape"/>
</filter>
<filter id="filter2_d_111_7" x="272" y="144" width="67.8256" height="70.8965" filterUnits="userSpaceOnUse" color-interpolation-filters="sRGB">
<feFlood flood-opacity="0" result="BackgroundImageFix"/>
<feColorMatrix in="SourceAlpha" type="matrix" values="0 0 0 0 0 0 0 0 0 0 0 0 0 0 0 0 0 0 127 0" result="hardAlpha"/>
<feOffset dy="4"/>
<feGaussianBlur stdDeviation="2"/>
<feComposite in2="hardAlpha" operator="out"/>
<feColorMatrix type="matrix" values="0 0 0 0 0 0 0 0 0 0 0 0 0 0 0 0 0 0 0.25 0"/>
<feBlend mode="normal" in2="BackgroundImageFix" result="effect1_dropShadow_111_7"/>
<feBlend mode="normal" in="SourceGraphic" in2="effect1_dropShadow_111_7" result="shape"/>
</filter>
<filter id="filter3_d_111_7" x="172" y="28" width="78.8868" height="78.7405" filterUnits="userSpaceOnUse" color-interpolation-filters="sRGB">
<feFlood flood-opacity="0" result="BackgroundImageFix"/>
<feColorMatrix in="SourceAlpha" type="matrix" values="0 0 0 0 0 0 0 0 0 0 0 0 0 0 0 0 0 0 127 0" result="hardAlpha"/>
<feOffset dy="4"/>
<feGaussianBlur stdDeviation="2"/>
<feComposite in2="hardAlpha" operator="out"/>
<feColorMatrix type="matrix" values="0 0 0 0 0 0 0 0 0 0 0 0 0 0 0 0 0 0 0.25 0"/>
<feBlend mode="normal" in2="BackgroundImageFix" result="effect1_dropShadow_111_7"/>
<feBlend mode="normal" in="SourceGraphic" in2="effect1_dropShadow_111_7" result="shape"/>
</filter>
<filter id="filter4_d_111_7" x="161.01" y="253.01" width="76.6385" height="76.6384" filterUnits="userSpaceOnUse" color-interpolation-filters="sRGB">
<feFlood flood-opacity="0" result="BackgroundImageFix"/>
<feColorMatrix in="SourceAlpha" type="matrix" values="0 0 0 0 0 0 0 0 0 0 0 0 0 0 0 0 0 0 127 0" result="hardAlpha"/>
<feOffset dy="4"/>
<feGaussianBlur stdDeviation="2"/>
<feComposite in2="hardAlpha" operator="out"/>
<feColorMatrix type="matrix" values="0 0 0 0 0 0 0 0 0 0 0 0 0 0 0 0 0 0 0.25 0"/>
<feBlend mode="normal" in2="BackgroundImageFix" result="effect1_dropShadow_111_7"/>
<feBlend mode="normal" in="SourceGraphic" in2="effect1_dropShadow_111_7" result="shape"/>
</filter>
<linearGradient id="paint0_linear_111_7" x1="103.434" y1="184.777" x2="100.31" y2="272.561" gradientUnits="userSpaceOnUse">
<stop stop-color="#0CD4EE"/>
<stop offset="1" stop-color="#138EEA"/>
</linearGradient>
<linearGradient id="paint1_linear_111_7" x1="268.668" y1="210.021" x2="162.623" y2="330.27" gradientUnits="userSpaceOnUse">
<stop stop-color="#1D73EF"/>
<stop offset="1" stop-color="#138EEA"/>
</linearGradient>
<linearGradient id="paint2_linear_111_7" x1="202.971" y1="181.086" x2="401.956" y2="181.086" gradientUnits="userSpaceOnUse">
<stop stop-color="#0EA7E7"/>
<stop offset="1" stop-color="#1D73EF"/>
</linearGradient>
<linearGradient id="paint3_linear_111_7" x1="103.493" y1="90.7723" x2="302.463" y2="90.7723" gradientUnits="userSpaceOnUse">
<stop stop-color="#1A317A"/>
<stop offset="1" stop-color="#2755F4"/>
</linearGradient>
</defs>
</svg>
