<svg width="409" height="479" viewBox="0 0 409 479" fill="none" xmlns="http://www.w3.org/2000/svg">
<g clip-path="url(#clip0_0_42)">
<path d="M195.397 193.485C188.188 173.819 178.818 155.015 167.461 137.418C156.632 120.928 144.704 107.265 131.991 97.5275C119.279 87.7905 105.311 81.3514 91.3425 80.4091C88.726 80.3043 86.1055 80.3568 83.4952 80.5662H80.8272L77.8452 81.0373L70.3118 82.4508C60.4184 84.3453 51.2085 88.8448 43.6311 95.4859C32.0171 105.537 22.1295 120.614 14.7531 139.931C7.37665 159.248 2.3544 183.433 0.627995 210.289C-1.02944 239.615 0.814613 269.034 6.12109 297.922C11.14 326.876 19.5692 355.132 31.2324 382.101C42.0616 406.6 54.9311 427.331 68.7423 443.193C82.5536 459.055 96.8356 469.891 111.275 475.231C120.455 478.807 130.418 479.891 140.153 478.372L150.982 476.33H151.923C155.15 475.568 158.302 474.517 161.34 473.189C174.053 467.535 184.882 457.17 193.671 443.193C202.46 429.215 208.581 412.568 213.132 393.408C217.558 372.969 219.872 352.129 220.038 331.217C220.095 307.785 218.046 284.395 213.917 261.33C209.887 238.183 203.686 215.468 195.397 193.485Z" fill="url(#paint0_linear_0_42)"/>
<path d="M101.073 237.615C98.4286 240.8 96.4536 244.486 95.2659 248.452C93.7962 253.512 92.9529 258.734 92.7548 264C92.6233 270.208 93.0964 276.415 94.1673 282.532C95.2336 288.62 96.9706 294.572 99.3465 300.278C101.263 305.217 103.851 309.867 107.037 314.098C109.501 317.397 112.595 320.173 116.14 322.265C118.788 323.821 121.906 324.378 124.929 323.835H125.086L133.875 322.265H134.502C137.71 321.293 140.518 319.31 142.507 316.611C144.907 313.247 146.663 309.466 147.686 305.461C149.033 300.544 149.771 295.481 149.883 290.384C150.012 284.488 149.539 278.594 148.47 272.794C147.39 267.016 145.814 261.341 143.762 255.833C141.808 251.153 139.389 246.681 136.543 242.484C134.149 239.105 131.173 236.18 127.754 233.846C125.037 231.864 121.679 230.968 118.337 231.333H117.552L108.763 232.904C105.726 233.521 103.003 235.189 101.073 237.615Z" fill="#B71B06"/>
<path d="M144.547 398.591L147.843 397.649C156.004 394.979 162.91 389.011 168.56 381.001C174.563 371.715 178.917 361.461 181.429 350.691C184.602 337.843 186.235 324.663 186.295 311.429C186.536 296.42 185.274 281.426 182.528 266.67C180.053 251.9 176.055 237.426 170.6 223.481C165.942 211.076 159.83 199.267 152.394 188.302C146.362 179.096 138.766 171.017 129.951 164.431C121.79 158.777 113.315 155.636 104.84 155.95H102.643L90.5578 158.149C83.8416 159.614 77.7187 163.06 72.9799 168.043C66.0743 174.639 60.5812 184.376 56.3437 196.154C51.9158 209.88 49.3813 224.146 48.8103 238.558C47.3557 273.136 53.5175 307.611 66.859 339.54C72.3106 352.848 79.6012 365.324 88.5175 376.604C96.5217 386.341 105.154 393.408 113.786 397.334C119.994 400.265 126.91 401.354 133.718 400.475L144.547 398.591ZM104.997 195.212C110.409 195.475 115.634 197.272 120.064 200.395C126.241 204.78 131.561 210.263 135.758 216.571C141.042 224.118 145.365 232.296 148.628 240.913C152.379 250.735 155.216 260.881 157.103 271.224C158.909 281.646 159.75 292.214 159.614 302.791C159.543 311.962 158.33 321.089 156.004 329.96C154.163 337.363 151.028 344.381 146.744 350.691C143.692 355.129 139.448 358.613 134.503 360.742C130.792 360.524 127.163 359.562 123.83 357.915C117.126 354.293 111.289 349.256 106.723 343.152C100.781 335.422 95.9226 326.915 92.2842 317.868C83.3944 296.395 79.2711 273.246 80.1994 250.022C80.458 240.209 82.0958 230.481 85.0647 221.125C87.2043 213.871 90.9 207.172 95.8939 201.494C98.4504 198.78 101.553 196.639 104.997 195.212Z" fill="#1B3144"/>
<path d="M195.397 193.485C188.188 173.819 178.818 155.015 167.461 137.418C156.632 120.928 144.704 107.265 131.991 97.5276C119.279 87.7905 105.311 81.3515 91.3425 80.4092C86.8228 80.2478 82.2987 80.5636 77.8452 81.3515L70.3118 82.7649C60.4184 84.6594 51.2085 89.1589 43.6311 95.8C32.0171 105.851 22.1295 120.928 14.7531 140.245C7.37665 159.562 2.3544 183.748 0.627995 210.603C-1.02944 239.929 0.814613 269.348 6.12109 298.236C11.14 327.19 19.5692 355.446 31.2324 382.415C42.0616 406.914 54.9311 427.645 68.7423 443.507C82.5536 459.369 96.8356 469.891 111.275 475.231C120.455 478.807 130.418 479.891 140.153 478.372L150.982 476.33C154.519 475.518 157.984 474.415 161.34 473.032C174.053 467.378 184.882 457.013 193.671 443.036C202.46 429.058 208.581 412.411 213.132 393.251C217.558 372.812 219.872 351.972 220.038 331.06C220.095 307.628 218.046 284.238 213.917 261.173C209.877 238.079 203.677 215.417 195.397 193.485ZM121.319 434.241C109.862 429.53 98.405 420.578 87.7327 407.857C77.0605 395.136 66.7021 378.332 58.227 358.857C40.2281 316.032 31.9722 269.736 34.0574 223.324C35.313 202.122 38.9227 182.962 44.7297 167.1C50.5367 151.238 58.0701 139.146 67.3298 130.665C72.5423 125.695 78.8242 121.988 85.6925 119.829H89.3022C100.445 119.986 111.588 124.383 122.104 132.235C132.619 140.088 142.35 150.767 151.296 164.116C160.714 178.382 168.506 193.659 174.524 209.661C181.262 227.749 186.358 246.409 189.747 265.413C193.242 284.421 194.872 303.725 194.613 323.05C194.596 340.185 192.595 357.26 188.649 373.934C184.882 389.482 179.389 403.145 172.326 413.825C165.264 424.504 156.161 432.828 145.803 436.911L142.35 438.01C135.14 438.435 127.933 437.144 121.319 434.241Z" fill="#1B3144"/>
<path d="M154.434 435.34C143.762 439.424 132.462 438.953 121.162 434.398C109.862 429.844 98.091 420.578 87.4187 407.857C76.7464 395.136 66.5449 378.332 58.0699 358.857C48.9618 337.556 42.3776 315.26 38.4517 292.426C34.212 269.653 32.6842 246.457 33.9002 223.324C34.6827 204.16 38.2786 185.216 44.5725 167.1C50.2226 151.552 57.9129 139.146 67.0157 130.665C76.1186 122.184 86.477 118.101 97.934 118.258C109.391 118.415 120.22 122.812 130.736 130.665C141.251 138.517 150.982 149.197 159.927 162.546C169.324 176.855 177.064 192.188 182.998 208.247C189.883 226.247 195.033 244.863 198.379 263.843C201.79 282.862 203.419 302.158 203.244 321.48C203.151 338.61 201.15 355.677 197.281 372.364C193.514 387.912 188.021 401.575 180.958 412.254C173.896 422.934 164.793 431.414 154.434 435.34ZM91.1854 80.5662C76.7464 79.6239 63.7199 84.4925 52.2629 94.2295C40.8058 103.967 30.7613 119.357 23.3849 138.674C16.0085 157.991 10.8292 182.334 9.25979 209.032C7.59786 238.358 9.44195 267.778 14.7529 296.666C19.7501 325.624 28.18 353.883 39.8642 380.844C50.6934 405.344 63.406 426.074 77.3741 441.936C91.3423 457.798 105.467 468.321 119.906 473.66C134.345 479 148 478.843 161.183 473.032C174.366 467.221 184.725 457.013 193.357 443.036C201.989 429.058 208.424 412.568 212.818 393.251C217.408 372.839 219.724 351.982 219.724 331.06C219.836 307.632 217.84 284.242 213.76 261.173C209.646 238.096 203.448 215.44 195.24 193.485C187.966 173.847 178.6 155.05 167.304 137.418C156.475 120.928 144.547 107.265 131.834 97.5275C119.122 87.7905 104.997 81.3515 91.1854 80.5662Z" fill="#154679"/>
<path d="M140.937 359.957C135.079 361.468 128.868 360.74 123.516 357.915C116.891 354.242 111.116 349.212 106.566 343.152C100.57 335.43 95.6593 326.923 91.9703 317.868C87.6251 307.135 84.4163 295.976 82.3966 284.573C80.2799 273.185 79.4376 261.597 79.8855 250.022C80.2215 240.268 81.8577 230.603 84.7508 221.282C86.908 214.002 90.6612 207.296 95.737 201.651C99.7171 197.111 105.269 194.248 111.275 193.642C117.454 193.326 123.553 195.157 128.539 198.824C134.765 203.202 140.138 208.685 144.39 215C149.584 222.603 153.901 230.769 157.26 239.343C161.03 249.211 163.868 259.412 165.735 269.811C167.547 280.179 168.387 290.695 168.246 301.22C168.086 310.437 166.875 319.605 164.636 328.547C162.796 335.901 159.661 342.868 155.376 349.12C151.967 354.301 146.862 358.133 140.937 359.957ZM104.683 155.95C95.8746 156.332 87.5536 160.101 81.4549 166.472C74.7063 173.068 69.0563 182.805 64.9757 194.741C60.533 208.409 57.9979 222.625 57.4423 236.987C55.9516 271.568 62.1147 306.05 75.491 337.97C80.9426 351.277 88.2332 363.753 97.1495 375.033C105.154 384.771 113.629 391.838 122.418 395.764C131.207 399.69 139.525 400.475 147.686 397.649C155.847 394.822 162.596 389.168 168.246 381.001C173.896 372.835 178.133 362.627 181.115 350.848C184.247 337.989 185.932 324.82 186.138 311.586C186.308 296.58 185.046 281.592 182.371 266.827C179.727 252.044 175.734 237.535 170.443 223.481C165.75 211.091 159.641 199.287 152.237 188.302C146.153 179.087 138.504 171.008 129.637 164.431C121.633 158.777 113.001 155.636 104.683 155.95Z" fill="#154679"/>
<path d="M118.023 231.333C121.36 231.027 124.698 231.917 127.44 233.846C130.927 236.096 133.918 239.036 136.229 242.484C139.165 246.682 141.589 251.216 143.448 255.99C145.644 261.397 147.224 267.034 148.157 272.794C149.225 278.594 149.698 284.488 149.569 290.384C149.505 295.474 148.82 300.537 147.529 305.461C146.556 309.513 144.738 313.313 142.193 316.611C140.284 319.391 137.445 321.396 134.188 322.265C130.965 322.985 127.587 322.422 124.772 320.694C121.227 318.602 118.133 315.826 115.669 312.528C112.483 308.297 109.895 303.646 107.978 298.708C105.603 293.002 103.866 287.05 102.799 280.961C101.728 274.844 101.255 268.638 101.387 262.429C101.597 257.165 102.44 251.944 103.898 246.881C105.02 242.889 107.002 239.19 109.705 236.045C111.82 233.523 114.774 231.85 118.023 231.333Z" fill="#F13C19"/>
<path d="M197.28 372.364C193.671 387.911 188.178 401.575 181.115 412.254C174.052 422.933 164.95 431.257 154.434 435.34C152.209 436.257 149.895 436.941 147.529 437.382C150.483 436.911 153.377 436.121 156.161 435.026C166.519 431.1 175.465 422.933 182.684 411.94C189.904 400.947 195.24 387.597 199.007 372.049C202.953 355.376 204.954 338.3 204.971 321.166C205.223 301.841 203.594 282.537 200.105 263.528C196.737 244.571 191.641 225.961 184.882 207.933C178.895 191.867 171.103 176.535 161.654 162.232C152.708 148.883 142.82 138.046 132.462 130.351C122.103 122.655 110.803 118.101 99.6603 117.944C96.6591 117.894 93.6609 118.157 90.7144 118.729C93.1081 118.416 95.5197 118.258 97.9338 118.258C109.077 118.415 120.22 122.812 130.892 130.665C142.339 139.533 152.163 150.32 159.927 162.546C169.376 176.849 177.169 192.182 183.155 208.247C189.986 226.252 195.084 244.868 198.379 263.843C201.845 282.856 203.526 302.153 203.401 321.48C203.258 338.616 201.205 355.683 197.28 372.364Z" fill="#688DAF"/>
<path d="M121.633 473.346C107.194 468.006 92.7548 457.17 79.1005 441.622C65.4463 426.074 52.4198 405.03 41.5906 380.53C29.9064 353.569 21.4765 325.31 16.4793 296.352C11.1683 267.464 9.32426 238.044 10.9862 208.718C12.7126 182.02 17.5779 157.991 25.1113 138.36C32.6447 118.729 42.3753 103.967 53.9893 93.9154C61.2587 87.5102 70.0793 83.1241 79.5714 81.1944C69.4711 82.8828 60.0564 87.4027 52.4198 94.2295C40.6489 104.281 30.7613 119.357 23.3849 138.674C16.0084 157.991 10.9862 182.177 9.25979 209.032C6.25404 267.888 16.7217 326.653 39.8642 380.844C50.6934 405.344 63.5629 426.074 77.5311 441.936C91.4992 457.798 105.467 468.321 120.063 473.66C129.544 477.373 139.874 478.352 149.883 476.487C140.353 477.916 130.616 476.834 121.633 473.346Z" fill="#688DAF"/>
<path d="M124.144 395.45C115.512 391.524 106.88 384.456 98.8755 374.719C89.9592 363.439 82.6686 350.963 77.217 337.656C63.8407 305.736 57.6775 271.253 59.1683 236.673C59.6956 222.295 62.2855 208.067 66.8586 194.427C70.9392 182.491 76.4323 172.754 83.3379 166.158C88.117 161.227 94.2232 157.79 100.916 156.264C93.5542 157.509 86.7871 161.088 81.6115 166.472C74.8628 173.068 69.2128 182.805 65.1322 194.584C60.6291 208.291 58.0926 222.567 57.5988 236.987C56.702 254.234 57.8611 271.527 61.0516 288.499C63.9783 305.483 68.8223 322.08 75.4906 337.97C80.9928 351.285 88.3363 363.762 97.306 375.033C105.153 384.77 113.785 391.838 122.417 395.764C129.131 399.06 136.742 400.054 144.076 398.591C137.268 399.47 130.352 398.38 124.144 395.45Z" fill="#688DAF"/>
<path d="M164.636 328.547C162.915 335.914 159.827 342.893 155.533 349.12C151.453 354.46 146.587 358.386 141.094 359.957L139.682 360.271L142.664 359.643C148.589 357.819 153.694 353.987 157.103 348.806C161.387 342.554 164.523 335.587 166.362 328.233C168.678 319.306 169.89 310.129 169.972 300.906C170.308 279.766 166.578 258.759 158.986 239.029C155.691 230.426 151.37 222.253 146.117 214.686C141.874 208.415 136.561 202.939 130.422 198.51C125.425 194.866 119.334 193.038 113.158 193.328L110.019 193.799H111.432C117.608 193.509 123.699 195.337 128.696 198.981C134.887 203.401 140.252 208.877 144.547 215.157C149.719 222.748 153.985 230.917 157.26 239.5C161.083 249.297 163.922 259.451 165.735 269.81C167.697 280.213 168.539 290.796 168.246 301.377C168.151 310.547 166.939 319.671 164.636 328.547Z" fill="#688DAF"/>
<path d="M126.498 320.38C122.953 318.288 119.859 315.512 117.395 312.214C114.267 307.945 111.684 303.302 109.705 298.393C104.958 286.91 102.763 274.532 103.27 262.115C103.355 256.85 104.147 251.621 105.624 246.567C106.812 242.601 108.787 238.915 111.431 235.731C113.261 233.629 115.659 232.102 118.337 231.333H118.18C114.874 231.814 111.859 233.49 109.705 236.045C107.113 239.24 105.191 242.926 104.055 246.881C102.522 251.927 101.678 257.157 101.544 262.429C101.255 268.641 101.73 274.865 102.956 280.961C103.972 287.044 105.656 292.995 107.979 298.708C109.957 303.617 112.541 308.259 115.669 312.528C118.133 315.826 121.227 318.602 124.772 320.694C127.678 322.333 131.069 322.889 134.345 322.265H134.502C131.703 322.485 128.905 321.826 126.498 320.38Z" fill="#FF7866"/>
<path d="M383.732 284.887H129.794C128.42 284.887 127.103 284.341 126.132 283.369C125.16 282.397 124.615 281.079 124.615 279.705C124.615 278.33 125.16 277.012 126.132 276.04C127.103 275.068 128.42 274.522 129.794 274.522H383.732V284.887Z" fill="url(#paint1_linear_0_42)"/>
<path d="M383.732 284.887H129.794C128.825 284.9 127.874 284.623 127.063 284.092C126.252 283.56 125.618 282.798 125.243 281.903H383.732V284.887Z" fill="#ADBAC8"/>
<path d="M347.163 241.07L326.29 279.705L347.163 318.339H409L388.283 279.705L409 241.07H347.163Z" fill="#154679"/>
<path d="M326.29 279.705L347.163 318.339H409L388.283 279.705H326.29Z" fill="#0B2F55"/>
<path d="M347.163 411.155L127.283 284.259C126.088 283.54 125.222 282.381 124.87 281.031C124.518 279.681 124.708 278.246 125.399 277.035C126.116 275.88 127.245 275.043 128.558 274.692C129.87 274.342 131.266 274.506 132.462 275.15L352.343 402.203L347.163 411.155Z" fill="url(#paint2_linear_0_42)"/>
<path d="M347.164 411.155L127.283 284.259C126.439 283.738 125.757 282.991 125.313 282.103C124.87 281.216 124.682 280.222 124.772 279.233L348.576 408.642L347.164 411.155Z" fill="#ADBAC8"/>
<path d="M337.276 354.931L299.923 378.017L298.667 421.834L352.343 452.93L353.598 408.956L390.951 385.87L337.276 354.931Z" fill="#154679"/>
<path d="M299.923 378.017L298.667 421.834L352.343 452.93L353.598 408.956L299.923 378.017Z" fill="#0B2F55"/>
<path d="M352.343 157.206L132.462 284.102C131.275 284.786 129.866 284.972 128.542 284.619C127.218 284.266 126.088 283.402 125.4 282.217C124.716 281.03 124.53 279.619 124.883 278.295C125.236 276.97 126.099 275.839 127.283 275.15L347.164 148.254L352.343 157.206Z" fill="url(#paint3_linear_0_42)"/>
<path d="M352.342 157.206L132.462 284.102C131.624 284.594 130.664 284.84 129.693 284.813C128.721 284.785 127.777 284.484 126.969 283.945L350.773 154.536L352.342 157.206Z" fill="#ADBAC8"/>
<path d="M298.667 137.575L299.923 181.392L337.276 204.478L390.951 173.539L353.598 150.453L352.343 106.636L298.667 137.575Z" fill="#154679"/>
<path d="M299.923 181.392L337.276 204.478L390.951 173.539L353.598 150.453L299.923 181.392Z" fill="#0B2F55"/>
<path d="M271.987 43.8167L134.345 282.217C134.017 282.817 133.574 283.346 133.041 283.774C132.508 284.202 131.895 284.52 131.239 284.709C130.582 284.899 129.895 284.957 129.216 284.88C128.537 284.803 127.88 284.592 127.283 284.259C126.088 283.54 125.222 282.381 124.87 281.031C124.518 279.681 124.708 278.246 125.399 277.035L263.041 38.6341L271.987 43.8167Z" fill="url(#paint4_linear_0_42)"/>
<path d="M271.987 43.8167L134.345 282.217C133.903 283.106 133.2 283.837 132.33 284.314C131.461 284.792 130.466 284.991 129.48 284.887L269.475 42.4033L271.987 43.8167Z" fill="#ADBAC8"/>
<path d="M215.643 53.7108L238.714 90.9315L282.659 92.3449L313.577 38.6341L269.789 37.3777L246.718 0L215.643 53.7108Z" fill="#154679"/>
<path d="M238.714 90.9315L282.659 92.3449L313.577 38.6341L269.789 37.3777L238.714 90.9315Z" fill="#0B2F55"/>
<g filter="url(#filter0_d_0_42)">
<path d="M366.595 266.422C364.029 266.407 361.517 267.154 359.376 268.569C357.236 269.984 355.563 272.002 354.571 274.369C353.579 276.735 353.312 279.343 353.803 281.861C354.295 284.379 355.523 286.695 357.332 288.514C359.141 290.334 361.45 291.576 363.965 292.082C366.481 292.588 369.09 292.335 371.462 291.357C373.834 290.378 375.862 288.718 377.289 286.585C378.716 284.453 379.478 281.945 379.478 279.379C379.478 275.955 378.123 272.671 375.709 270.243C373.295 267.815 370.019 266.442 366.595 266.422ZM366.595 267.688C369.266 267.682 371.858 268.598 373.933 270.28C376.008 271.961 377.441 274.307 377.989 276.922H375.755C375.622 276.39 375.315 275.918 374.883 275.581C374.452 275.244 373.919 275.06 373.372 275.06C372.941 275.073 372.52 275.195 372.15 275.416C371.78 275.636 371.472 275.948 371.255 276.32C371.039 276.693 370.922 277.115 370.914 277.546C370.906 277.977 371.009 278.403 371.212 278.783L368.457 281.613C368.084 281.357 367.643 281.22 367.191 281.22C366.739 281.22 366.297 281.357 365.925 281.613L361.904 277.517C362.139 277.164 362.268 276.75 362.276 276.326C362.264 275.895 362.141 275.474 361.921 275.104C361.7 274.734 361.388 274.426 361.016 274.21C360.643 273.993 360.221 273.876 359.79 273.868C359.359 273.861 358.933 273.963 358.553 274.166L356.989 272.677C358.078 271.142 359.518 269.888 361.189 269.02C362.859 268.153 364.713 267.696 366.595 267.688ZM358.553 276.326C358.553 275.99 358.686 275.668 358.924 275.431C359.161 275.193 359.483 275.06 359.819 275.06C360.141 275.079 360.445 275.221 360.666 275.456C360.888 275.691 361.011 276.003 361.01 276.326C361.01 276.642 360.885 276.945 360.661 277.168C360.438 277.392 360.135 277.517 359.819 277.517C359.656 277.528 359.493 277.504 359.34 277.449C359.187 277.394 359.046 277.308 358.928 277.196C358.809 277.084 358.715 276.949 358.65 276.8C358.586 276.65 358.552 276.489 358.553 276.326ZM365.925 283.698C365.943 283.368 366.082 283.056 366.316 282.823C366.549 282.589 366.861 282.45 367.191 282.432C367.527 282.432 367.849 282.566 368.086 282.803C368.323 283.04 368.457 283.362 368.457 283.698C368.457 284.034 368.323 284.356 368.086 284.593C367.849 284.831 367.527 284.964 367.191 284.964C366.861 284.946 366.549 284.807 366.316 284.573C366.082 284.34 365.943 284.028 365.925 283.698ZM372.106 277.517C372.125 277.195 372.266 276.892 372.502 276.67C372.737 276.448 373.048 276.325 373.372 276.326C373.688 276.326 373.991 276.451 374.214 276.675C374.438 276.898 374.563 277.201 374.563 277.517C374.564 277.841 374.441 278.152 374.219 278.387C373.997 278.623 373.694 278.764 373.372 278.783C373.042 278.765 372.73 278.626 372.496 278.393C372.263 278.159 372.124 277.847 372.106 277.517ZM360.861 289.655C358.155 288.135 356.16 285.608 355.309 282.623C354.458 279.638 354.821 276.438 356.319 273.72L357.659 275.06C357.458 275.455 357.331 275.884 357.287 276.326C357.291 276.759 357.409 277.184 357.629 277.557C357.85 277.929 358.165 278.237 358.543 278.449C358.921 278.661 359.349 278.769 359.782 278.762C360.215 278.755 360.639 278.634 361.01 278.411L365.031 282.432C364.82 282.82 364.717 283.257 364.733 283.698C364.733 284.35 364.992 284.975 365.453 285.436C365.914 285.897 366.539 286.155 367.191 286.155C367.843 286.155 368.468 285.897 368.929 285.436C369.389 284.975 369.648 284.35 369.648 283.698C369.638 283.251 369.51 282.814 369.276 282.432L372.106 279.677C372.493 279.888 372.931 279.991 373.372 279.975C373.91 279.979 374.434 279.806 374.865 279.483C375.295 279.16 375.608 278.705 375.755 278.188H378.212C378.274 278.582 378.299 278.98 378.286 279.379C378.286 282.48 377.055 285.453 374.862 287.646C372.67 289.839 369.696 291.07 366.595 291.07C364.595 291.087 362.624 290.601 360.861 289.655Z" fill="white"/>
<path d="M351.181 270.145C351.605 270.137 352.018 270.008 352.372 269.773L353.638 271.039C352.038 273.526 351.187 276.421 351.187 279.379C351.187 282.337 352.038 285.232 353.638 287.719L351.776 289.581L345.968 295.464C345.366 296.066 345.027 296.883 345.027 297.735C345.027 298.587 345.366 299.404 345.968 300.006C346.57 300.609 347.387 300.947 348.239 300.947C349.091 300.947 349.908 300.609 350.511 300.006L356.319 294.198L358.181 292.336C360.692 293.97 363.625 294.836 366.621 294.829C369.616 294.822 372.545 293.943 375.049 292.298C377.553 290.653 379.523 288.314 380.719 285.567C381.915 282.82 382.284 279.785 381.782 276.831C381.28 273.878 379.928 271.135 377.892 268.937C375.856 266.74 373.223 265.183 370.316 264.458C367.41 263.733 364.355 263.871 361.525 264.854C358.695 265.838 356.213 267.625 354.383 269.996L353.266 268.954C353.5 268.572 353.628 268.135 353.638 267.688C353.637 267.089 353.417 266.511 353.02 266.063C352.623 265.614 352.075 265.327 351.481 265.253C350.886 265.18 350.286 265.327 349.792 265.665C349.298 266.004 348.944 266.511 348.798 267.092H345V268.283H348.798C348.931 268.815 349.237 269.287 349.669 269.624C350.101 269.962 350.633 270.145 351.181 270.145ZM351.181 266.422C351.503 266.441 351.807 266.583 352.028 266.818C352.25 267.053 352.373 267.365 352.372 267.688C352.372 267.844 352.341 267.999 352.281 268.144C352.222 268.288 352.134 268.42 352.023 268.53C351.913 268.641 351.781 268.729 351.637 268.789C351.492 268.848 351.337 268.879 351.181 268.879C350.857 268.88 350.546 268.757 350.311 268.535C350.076 268.314 349.934 268.01 349.915 267.688C349.933 267.358 350.072 267.046 350.305 266.812C350.539 266.579 350.851 266.44 351.181 266.422ZM351.776 291.368L354.606 294.198L349.617 299.113C349.231 299.476 348.717 299.672 348.187 299.658C347.657 299.644 347.154 299.421 346.787 299.038C346.431 298.653 346.234 298.148 346.234 297.623C346.234 297.099 346.431 296.594 346.787 296.208L351.776 291.368ZM354.383 288.762C354.457 288.836 354.457 288.911 354.532 289.06L354.755 289.283L355.127 289.73L355.351 289.879L356.021 290.623L356.244 290.847L356.617 291.145L356.915 291.368L357.213 291.592L355.5 293.304L352.67 290.475L354.383 288.762ZM355.053 287.645C353.136 284.906 352.245 281.579 352.537 278.248C352.829 274.918 354.284 271.796 356.649 269.432C359.013 267.068 362.134 265.612 365.465 265.321C368.795 265.029 372.122 265.92 374.861 267.837C377.672 270.121 379.506 273.392 379.988 276.982C380.471 280.572 379.565 284.211 377.456 287.156C375.347 290.102 372.193 292.131 368.639 292.831C365.085 293.53 361.397 292.847 358.33 290.921L357.51 290.326C357.436 290.251 357.361 290.177 357.361 290.102L356.691 289.506L356.393 289.283L355.872 288.613L355.649 288.389L355.053 287.645Z" fill="white"/>
</g>
<g filter="url(#filter1_d_0_42)">
<path d="M335.432 389.645C335.431 389.98 335.558 390.302 335.788 390.546C336.017 390.79 336.331 390.936 336.665 390.956C337.007 390.937 337.329 390.793 337.571 390.552C337.813 390.31 337.957 389.987 337.976 389.645C337.946 388.916 337.75 388.204 337.403 387.563C337.055 386.921 336.566 386.368 335.971 385.945C335.058 385.276 334.003 384.827 332.888 384.634V383.324C332.888 383.152 332.854 382.981 332.788 382.822C332.722 382.663 332.625 382.519 332.504 382.397C332.382 382.275 332.237 382.179 332.078 382.113C331.919 382.047 331.749 382.013 331.577 382.013C331.408 382.013 331.241 382.047 331.086 382.114C330.932 382.181 330.792 382.278 330.676 382.401C330.561 382.524 330.472 382.669 330.414 382.828C330.357 382.987 330.333 383.155 330.343 383.324V384.634C329.2 384.813 328.117 385.262 327.183 385.945C326.588 386.368 326.099 386.921 325.751 387.563C325.404 388.204 325.208 388.916 325.178 389.645C325.208 390.385 325.403 391.109 325.75 391.763C326.097 392.416 326.587 392.984 327.183 393.423C328.122 394.081 329.206 394.504 330.343 394.656V399.744C328.802 399.359 327.722 398.434 327.722 397.355C327.733 397.186 327.709 397.018 327.652 396.859C327.594 396.7 327.505 396.555 327.389 396.432C327.274 396.309 327.134 396.211 326.979 396.145C326.824 396.078 326.658 396.044 326.489 396.044C326.141 396.044 325.808 396.182 325.562 396.428C325.316 396.674 325.178 397.007 325.178 397.355C325.213 398.082 325.412 398.793 325.759 399.433C326.106 400.074 326.592 400.628 327.183 401.055C328.122 401.713 329.206 402.136 330.343 402.289V403.676C330.333 403.845 330.357 404.013 330.414 404.172C330.472 404.331 330.561 404.476 330.676 404.599C330.792 404.721 330.932 404.819 331.086 404.886C331.241 404.953 331.408 404.987 331.577 404.987C331.749 404.987 331.919 404.953 332.078 404.887C332.237 404.821 332.382 404.725 332.504 404.603C332.625 404.481 332.722 404.337 332.788 404.178C332.854 404.019 332.888 403.848 332.888 403.676V402.289C333.997 402.122 335.053 401.699 335.971 401.055C336.561 400.628 337.048 400.074 337.395 399.433C337.742 398.793 337.94 398.082 337.976 397.355C337.946 396.615 337.751 395.891 337.404 395.237C337.057 394.583 336.567 394.016 335.971 393.577C335.053 392.933 333.997 392.51 332.888 392.344V387.255C334.352 387.641 335.432 388.566 335.432 389.645ZM327.722 389.645C327.722 388.566 328.802 387.641 330.343 387.255V392.035C328.802 391.727 327.722 390.725 327.722 389.645ZM335.432 397.355C335.432 398.434 334.352 399.359 332.888 399.744V394.888C334.352 395.273 335.432 396.198 335.432 397.355Z" fill="white"/>
<path d="M331.5 411C341.165 411 349 403.165 349 393.5C349 383.835 341.165 376 331.5 376C321.835 376 314 383.835 314 393.5C314 403.165 321.835 411 331.5 411Z" stroke="white" stroke-width="1.98" stroke-miterlimit="10"/>
</g>
<g filter="url(#filter2_d_0_42)">
<path d="M344.256 168.344H342.529V144.236C342.529 143.694 342.313 143.175 341.927 142.791C341.542 142.408 341.019 142.193 340.474 142.193H336.775C336.23 142.193 335.707 142.408 335.322 142.791C334.937 143.175 334.72 143.694 334.72 144.236V168.344H330.446V155.105C330.424 154.577 330.199 154.079 329.815 153.713C329.432 153.347 328.922 153.143 328.391 153.144H324.692C324.16 153.143 323.65 153.347 323.267 153.713C322.884 154.079 322.658 154.577 322.637 155.105V168.344H318.362V161.479C318.362 161.211 318.309 160.945 318.206 160.697C318.102 160.45 317.951 160.224 317.76 160.035C317.569 159.845 317.343 159.694 317.093 159.592C316.844 159.489 316.577 159.436 316.307 159.436H312.608C312.063 159.436 311.54 159.651 311.155 160.035C310.769 160.418 310.553 160.937 310.553 161.479V168.344H308.744C308.64 168.343 308.536 168.365 308.441 168.407C308.345 168.448 308.26 168.51 308.19 168.587C308.12 168.664 308.067 168.756 308.035 168.854C308.003 168.953 307.993 169.058 308.005 169.161C308.005 169.356 308.083 169.543 308.221 169.681C308.36 169.819 308.548 169.897 308.744 169.897H344.256C344.452 169.897 344.64 169.819 344.779 169.681C344.917 169.543 344.995 169.356 344.995 169.161C345.007 169.058 344.997 168.953 344.965 168.854C344.933 168.756 344.88 168.664 344.81 168.587C344.74 168.51 344.655 168.448 344.559 168.407C344.464 168.365 344.36 168.343 344.256 168.344ZM316.882 168.344H312.032V161.479C312.052 161.342 312.122 161.217 312.228 161.127C312.333 161.036 312.469 160.987 312.608 160.989H316.307C316.446 160.987 316.582 161.036 316.687 161.127C316.793 161.217 316.862 161.342 316.882 161.479V168.344ZM328.966 168.344H324.116V155.105C324.136 154.968 324.205 154.843 324.311 154.752C324.417 154.662 324.552 154.613 324.692 154.615H328.391C328.53 154.613 328.665 154.662 328.771 154.752C328.877 154.843 328.946 154.968 328.966 155.105V168.344ZM341.05 168.344H336.282V144.236C336.282 143.909 336.446 143.664 336.775 143.664H340.474C340.627 143.664 340.773 143.724 340.881 143.832C340.989 143.939 341.05 144.084 341.05 144.236V168.344Z" fill="white"/>
<path d="M342.53 131.814C342.558 131.713 342.557 131.606 342.528 131.506C342.499 131.405 342.443 131.314 342.365 131.242C342.209 131.095 342.005 131.008 341.79 130.997H337.104C336.901 131.018 336.712 131.113 336.575 131.264C336.439 131.415 336.363 131.611 336.364 131.814C336.364 132.01 336.442 132.197 336.581 132.335C336.72 132.472 336.908 132.55 337.104 132.55H339.981L332.419 140.068L329.542 137.208C329.487 137.129 329.413 137.066 329.326 137.023C329.24 136.98 329.145 136.959 329.048 136.963C328.94 136.959 328.833 136.98 328.733 137.022C328.634 137.064 328.545 137.128 328.473 137.208L314.745 150.855C314.618 151.004 314.548 151.192 314.548 151.387C314.548 151.581 314.618 151.77 314.745 151.918C314.817 151.998 314.906 152.062 315.006 152.104C315.105 152.146 315.213 152.166 315.321 152.163C315.417 152.166 315.513 152.146 315.599 152.103C315.685 152.06 315.759 151.997 315.814 151.918L329.048 138.842L331.843 141.621C331.912 141.693 331.995 141.75 332.087 141.789C332.179 141.828 332.278 141.848 332.378 141.848C332.477 141.848 332.576 141.828 332.668 141.789C332.76 141.75 332.843 141.693 332.912 141.621L341.05 133.612V136.146C341.05 136.341 341.128 136.528 341.267 136.666C341.405 136.804 341.593 136.881 341.79 136.881C341.986 136.881 342.174 136.804 342.313 136.666C342.452 136.528 342.53 136.341 342.53 136.146V131.896V131.814Z" fill="white"/>
</g>
<g clip-path="url(#clip1_0_42)">
<path d="M240 61.5322C240.107 50.5908 248.693 41.9574 259.628 42.0002C270.564 42.0429 279.021 50.6122 279 61.5322C278.979 72.4522 270.393 81.0429 259.457 81.0001C248.522 80.9574 240.15 72.3667 240 61.5322ZM242.969 61.4467C242.99 70.6358 250.273 78.0084 259.436 78.0511C262.711 78.068 265.918 77.1122 268.651 75.3045C271.383 73.4969 273.518 70.9188 274.785 67.8966C276.052 64.8744 276.395 61.5439 275.769 58.3269C275.144 55.1098 273.578 52.1507 271.271 49.8243C268.964 47.4979 266.019 45.9087 262.808 45.2579C259.598 44.6071 256.267 44.9239 253.236 46.1683C250.206 47.4127 247.613 49.5287 245.785 52.2484C243.957 54.9682 242.977 58.1693 242.969 61.4467Z" fill="white"/>
<path d="M259.5 47.9836C260.76 48.3469 260.931 48.5606 260.931 49.8428V60.8482L261.764 61.703L268.556 68.4773C268.919 68.8406 269.26 69.1825 269.239 69.7595C269.251 70.0279 269.184 70.2939 269.048 70.5252C268.911 70.7566 268.711 70.9434 268.47 71.063C268.221 71.2046 267.935 71.268 267.65 71.2451C267.364 71.2223 267.092 71.1142 266.868 70.9348L266.569 70.6356L258.56 62.6433C258.411 62.4937 258.304 62.3228 258.197 62.2159C258.101 61.8829 258.065 61.5357 258.09 61.1902V49.8641C258.09 48.5606 258.24 48.3896 259.5 47.9836Z" fill="white"/>
</g>
</g>
<defs>
<filter id="filter0_d_0_42" x="341" y="264" width="45" height="44.947" filterUnits="userSpaceOnUse" color-interpolation-filters="sRGB">
<feFlood flood-opacity="0" result="BackgroundImageFix"/>
<feColorMatrix in="SourceAlpha" type="matrix" values="0 0 0 0 0 0 0 0 0 0 0 0 0 0 0 0 0 0 127 0" result="hardAlpha"/>
<feOffset dy="4"/>
<feGaussianBlur stdDeviation="2"/>
<feComposite in2="hardAlpha" operator="out"/>
<feColorMatrix type="matrix" values="0 0 0 0 0 0 0 0 0 0 0 0 0 0 0 0 0 0 0.25 0"/>
<feBlend mode="normal" in2="BackgroundImageFix" result="effect1_dropShadow_0_42"/>
<feBlend mode="normal" in="SourceGraphic" in2="effect1_dropShadow_0_42" result="shape"/>
</filter>
<filter id="filter1_d_0_42" x="309.01" y="375.01" width="44.98" height="44.98" filterUnits="userSpaceOnUse" color-interpolation-filters="sRGB">
<feFlood flood-opacity="0" result="BackgroundImageFix"/>
<feColorMatrix in="SourceAlpha" type="matrix" values="0 0 0 0 0 0 0 0 0 0 0 0 0 0 0 0 0 0 127 0" result="hardAlpha"/>
<feOffset dy="4"/>
<feGaussianBlur stdDeviation="2"/>
<feComposite in2="hardAlpha" operator="out"/>
<feColorMatrix type="matrix" values="0 0 0 0 0 0 0 0 0 0 0 0 0 0 0 0 0 0 0.25 0"/>
<feBlend mode="normal" in2="BackgroundImageFix" result="effect1_dropShadow_0_42"/>
<feBlend mode="normal" in="SourceGraphic" in2="effect1_dropShadow_0_42" result="shape"/>
</filter>
<filter id="filter2_d_0_42" x="304" y="130.997" width="45" height="46.8993" filterUnits="userSpaceOnUse" color-interpolation-filters="sRGB">
<feFlood flood-opacity="0" result="BackgroundImageFix"/>
<feColorMatrix in="SourceAlpha" type="matrix" values="0 0 0 0 0 0 0 0 0 0 0 0 0 0 0 0 0 0 127 0" result="hardAlpha"/>
<feOffset dy="4"/>
<feGaussianBlur stdDeviation="2"/>
<feComposite in2="hardAlpha" operator="out"/>
<feColorMatrix type="matrix" values="0 0 0 0 0 0 0 0 0 0 0 0 0 0 0 0 0 0 0.25 0"/>
<feBlend mode="normal" in2="BackgroundImageFix" result="effect1_dropShadow_0_42"/>
<feBlend mode="normal" in="SourceGraphic" in2="effect1_dropShadow_0_42" result="shape"/>
</filter>
<linearGradient id="paint0_linear_0_42" x1="-23.0573" y1="186.772" x2="242.922" y2="372.199" gradientUnits="userSpaceOnUse">
<stop stop-color="white"/>
<stop offset="1" stop-color="#E6EBF3"/>
</linearGradient>
<linearGradient id="paint1_linear_0_42" x1="25968.9" y1="2280.19" x2="68736.2" y2="2280.19" gradientUnits="userSpaceOnUse">
<stop stop-color="white"/>
<stop offset="1" stop-color="#E6EBF3"/>
</linearGradient>
<linearGradient id="paint2_linear_0_42" x1="22832.4" y1="32209.3" x2="55845.6" y2="32209.3" gradientUnits="userSpaceOnUse">
<stop stop-color="white"/>
<stop offset="1" stop-color="#E6EBF3"/>
</linearGradient>
<linearGradient id="paint3_linear_0_42" x1="22829" y1="21075.7" x2="55842.9" y2="21075.7" gradientUnits="userSpaceOnUse">
<stop stop-color="white"/>
<stop offset="1" stop-color="#E6EBF3"/>
</linearGradient>
<linearGradient id="paint4_linear_0_42" x1="14815.4" y1="29195.6" x2="28635.6" y2="29195.6" gradientUnits="userSpaceOnUse">
<stop stop-color="white"/>
<stop offset="1" stop-color="#E6EBF3"/>
</linearGradient>
<clipPath id="clip0_0_42">
<rect width="409" height="479" fill="white"/>
</clipPath>
<clipPath id="clip1_0_42">
<rect width="39" height="39" fill="white" transform="translate(240 42)"/>
</clipPath>
</defs>
</svg>
